M48
; DRILL file {KiCad 7.0.2} date Tue Jul 25 22:56:38 2023
; FORMAT={3:3/ absolute / metric / keep zeros}
; #@! TF.CreationDate,2023-07-25T22:56:38+09:00
; #@! TF.GenerationSoftware,Kicad,Pcbnew,7.0.2
; #@! TF.FileFunction,MixedPlating,1,2
FMAT,2
METRIC
; #@! TA.AperFunction,Plated,PTH,ViaDrill
T1C0.300
; #@! TA.AperFunction,Plated,PTH,ViaDrill
T2C0.400
; #@! TA.AperFunction,Plated,PTH,ViaDrill
T3C0.500
; #@! TA.AperFunction,Plated,PTH,ComponentDrill
T4C0.800
; #@! TA.AperFunction,Plated,PTH,ComponentDrill
T5C1.000
%
G90
G05
T1
X102055Y-082045
T2
X087900Y-096900
X091750Y-067000
X091800Y-083400
X092000Y-058500
X092000Y-061250
X092000Y-064000
X092250Y-078500
X092250Y-093750
X092250Y-097000
X092349Y-085151
X092500Y-081750
X092500Y-087750
X092500Y-090750
X104400Y-083226
X104500Y-060900
X104600Y-086000
X106600Y-059100
X107000Y-081250
X107000Y-084750
X107000Y-087250
X107500Y-062750
X107500Y-066500
X107500Y-069000
X107500Y-073000
X117200Y-068600
X117300Y-074500
X118200Y-103200
T3
X086000Y-057000
X086000Y-098000
X086000Y-102500
X086500Y-053500
X087500Y-060000
X092500Y-099250
X092500Y-103500
X094500Y-069500
X094500Y-071500
X094500Y-074000
X099500Y-102000
X100000Y-057000
X100000Y-082000
X100000Y-095500
X100250Y-087250
X100500Y-074000
X102750Y-074000
X104000Y-054500
X108000Y-075000
X108400Y-078400
X109000Y-057500
X109500Y-053000
X109500Y-054500
X109500Y-090500
X109500Y-092000
X109500Y-094500
X109500Y-097000
X110000Y-102000
X115000Y-053500
X115000Y-057000
X115000Y-064000
X115500Y-078500
X115500Y-102000
X117000Y-097500
X117000Y-100500
X118500Y-058250
X123500Y-052500
X123600Y-103100
X124000Y-075200
T4
X086950Y-079250
X086950Y-081250
X086950Y-083250
X086950Y-085250
X086950Y-087250
X086950Y-089250
X086950Y-091250
X086950Y-093250
X086950Y-095250
X087000Y-063000
X087000Y-065000
X087000Y-067000
X087000Y-069000
X087000Y-071000
X087000Y-073000
X087000Y-075000
X089450Y-099500
X089450Y-102000
X091500Y-071000
X091500Y-073000
X091500Y-075000
T5
X097285Y-053860
X097285Y-056400
X097285Y-058940
X097285Y-061480
X097285Y-064020
X097285Y-066560
X097285Y-069100
X097285Y-071640
X097285Y-074180
X097285Y-076720
X097285Y-079260
X097285Y-081800
X097285Y-084340
X097285Y-086880
X097285Y-089420
X097285Y-091960
X097285Y-094500
X097285Y-097040
X097285Y-099580
X097285Y-102120
X112525Y-053860
X112525Y-056400
X112525Y-058940
X112525Y-061480
X112525Y-064020
X112525Y-066560
X112525Y-069100
X112525Y-071640
X112525Y-074180
X112525Y-076720
X112525Y-079260
X112525Y-081800
X112525Y-084340
X112525Y-086880
X112525Y-089420
X112525Y-091960
X112525Y-094500
X112525Y-097040
X112525Y-099580
X112525Y-102120
X118250Y-084000
X118250Y-089500
X118250Y-095000
X118300Y-077800
X118325Y-065800
X118375Y-062075
X120790Y-084000
X120790Y-089500
X120790Y-095000
X120840Y-077800
X120865Y-065800
X120915Y-062075
X123330Y-084000
X123330Y-089500
X123330Y-095000
X123380Y-077800
X123455Y-062075
T0
M30
