%TF.GenerationSoftware,KiCad,Pcbnew,7.0.2*%
%TF.CreationDate,2023-07-25T22:56:35+09:00*%
%TF.ProjectId,bluepill_yoke,626c7565-7069-46c6-9c5f-796f6b652e6b,rev?*%
%TF.SameCoordinates,Original*%
%TF.FileFunction,Copper,L2,Bot*%
%TF.FilePolarity,Positive*%
%FSLAX46Y46*%
G04 Gerber Fmt 4.6, Leading zero omitted, Abs format (unit mm)*
G04 Created by KiCad (PCBNEW 7.0.2) date 2023-07-25 22:56:35*
%MOMM*%
%LPD*%
G01*
G04 APERTURE LIST*
G04 Aperture macros list*
%AMRoundRect*
0 Rectangle with rounded corners*
0 $1 Rounding radius*
0 $2 $3 $4 $5 $6 $7 $8 $9 X,Y pos of 4 corners*
0 Add a 4 corners polygon primitive as box body*
4,1,4,$2,$3,$4,$5,$6,$7,$8,$9,$2,$3,0*
0 Add four circle primitives for the rounded corners*
1,1,$1+$1,$2,$3*
1,1,$1+$1,$4,$5*
1,1,$1+$1,$6,$7*
1,1,$1+$1,$8,$9*
0 Add four rect primitives between the rounded corners*
20,1,$1+$1,$2,$3,$4,$5,0*
20,1,$1+$1,$4,$5,$6,$7,0*
20,1,$1+$1,$6,$7,$8,$9,0*
20,1,$1+$1,$8,$9,$2,$3,0*%
%AMFreePoly0*
4,1,6,1.000000,0.000000,0.500000,-0.750000,-0.500000,-0.750000,-0.500000,0.750000,0.500000,0.750000,1.000000,0.000000,1.000000,0.000000,$1*%
%AMFreePoly1*
4,1,6,0.500000,-0.750000,-0.650000,-0.750000,-0.150000,0.000000,-0.650000,0.750000,0.500000,0.750000,0.500000,-0.750000,0.500000,-0.750000,$1*%
G04 Aperture macros list end*
%TA.AperFunction,SMDPad,CuDef*%
%ADD10FreePoly0,0.000000*%
%TD*%
%TA.AperFunction,SMDPad,CuDef*%
%ADD11FreePoly1,0.000000*%
%TD*%
%TA.AperFunction,SMDPad,CuDef*%
%ADD12FreePoly0,180.000000*%
%TD*%
%TA.AperFunction,SMDPad,CuDef*%
%ADD13FreePoly1,180.000000*%
%TD*%
%TA.AperFunction,ComponentPad*%
%ADD14O,1.700000X1.700000*%
%TD*%
%TA.AperFunction,ComponentPad*%
%ADD15R,1.700000X1.700000*%
%TD*%
%TA.AperFunction,ComponentPad*%
%ADD16C,1.700000*%
%TD*%
%TA.AperFunction,ComponentPad*%
%ADD17C,1.600000*%
%TD*%
%TA.AperFunction,ComponentPad*%
%ADD18R,1.600000X1.600000*%
%TD*%
%TA.AperFunction,ComponentPad*%
%ADD19O,1.350000X1.350000*%
%TD*%
%TA.AperFunction,ComponentPad*%
%ADD20R,1.350000X1.350000*%
%TD*%
%TA.AperFunction,SMDPad,CuDef*%
%ADD21RoundRect,0.200000X0.200000X0.275000X-0.200000X0.275000X-0.200000X-0.275000X0.200000X-0.275000X0*%
%TD*%
%TA.AperFunction,ViaPad*%
%ADD22C,0.800000*%
%TD*%
%TA.AperFunction,ViaPad*%
%ADD23C,1.000000*%
%TD*%
%TA.AperFunction,ViaPad*%
%ADD24C,0.550000*%
%TD*%
%TA.AperFunction,Conductor*%
%ADD25C,0.300000*%
%TD*%
%TA.AperFunction,Conductor*%
%ADD26C,0.400000*%
%TD*%
%TA.AperFunction,Conductor*%
%ADD27C,0.250000*%
%TD*%
G04 APERTURE END LIST*
D10*
%TO.P,JP23,1,A*%
%TO.N,/PA3*%
X114700000Y-81600000D03*
D11*
%TO.P,JP23,2,B*%
%TO.N,Net-(J4-Pin_2)*%
X116150000Y-81600000D03*
%TD*%
D12*
%TO.P,JP1,1,A*%
%TO.N,/PB0*%
X110225000Y-72750000D03*
D13*
%TO.P,JP1,2,B*%
%TO.N,/S2_ORG*%
X108775000Y-72750000D03*
%TD*%
D12*
%TO.P,JP10,1,A*%
%TO.N,/PB9*%
X94975000Y-97000000D03*
D13*
%TO.P,JP10,2,B*%
%TO.N,/S1_BLU*%
X93525000Y-97000000D03*
%TD*%
D12*
%TO.P,JP14,1,A*%
%TO.N,/PB13*%
X94475000Y-60750000D03*
D13*
%TO.P,JP14,2,B*%
%TO.N,/S16_ORG*%
X93025000Y-60750000D03*
%TD*%
D12*
%TO.P,JP4,1,A*%
%TO.N,/PB4*%
X94975000Y-81750000D03*
D13*
%TO.P,JP4,2,B*%
%TO.N,/S7_GRY*%
X93525000Y-81750000D03*
%TD*%
D12*
%TO.P,JP19,1,A*%
%TO.N,/PA7*%
X109475000Y-81250000D03*
D13*
%TO.P,JP19,2,B*%
%TO.N,/S14_GRY*%
X108025000Y-81250000D03*
%TD*%
D12*
%TO.P,JP16,1,A*%
%TO.N,/PB15*%
X94475000Y-67250000D03*
D13*
%TO.P,JP16,2,B*%
%TO.N,/S18_YEL*%
X93025000Y-67250000D03*
%TD*%
D12*
%TO.P,JP5,1,A*%
%TO.N,/PB5*%
X94975000Y-84750000D03*
D13*
%TO.P,JP5,2,B*%
%TO.N,/S8_BLK*%
X93525000Y-84750000D03*
%TD*%
D12*
%TO.P,JP11,1,A*%
%TO.N,/PB10*%
X110200000Y-66250000D03*
D13*
%TO.P,JP11,2,B*%
%TO.N,/S3_GRY*%
X108750000Y-66250000D03*
%TD*%
D12*
%TO.P,JP15,1,A*%
%TO.N,/PB14*%
X94475000Y-64000000D03*
D13*
%TO.P,JP15,2,B*%
%TO.N,/S17_GRN*%
X93025000Y-64000000D03*
%TD*%
D10*
%TO.P,JP22,1,A*%
%TO.N,/PA2*%
X114650000Y-85900000D03*
D11*
%TO.P,JP22,2,B*%
%TO.N,Net-(J3-Pin_2)*%
X116100000Y-85900000D03*
%TD*%
D12*
%TO.P,JP18,1,A*%
%TO.N,/PA6*%
X109525000Y-84600000D03*
D13*
%TO.P,JP18,2,B*%
%TO.N,/S13_BLU*%
X108075000Y-84600000D03*
%TD*%
D12*
%TO.P,JP17,1,A*%
%TO.N,/PA5*%
X109525000Y-87600000D03*
D13*
%TO.P,JP17,2,B*%
%TO.N,/S12_YEL*%
X108075000Y-87600000D03*
%TD*%
D12*
%TO.P,JP8,1,A*%
%TO.N,/PB8*%
X94975000Y-93750000D03*
D13*
%TO.P,JP8,2,B*%
%TO.N,/S11_YEL*%
X93525000Y-93750000D03*
%TD*%
D12*
%TO.P,JP2,1,A*%
%TO.N,/PB1*%
X110200000Y-69500000D03*
D13*
%TO.P,JP2,2,B*%
%TO.N,/S5_PPL*%
X108750000Y-69500000D03*
%TD*%
D10*
%TO.P,JP20,1,A*%
%TO.N,/PA0*%
X114525000Y-92800000D03*
D11*
%TO.P,JP20,2,B*%
%TO.N,Net-(J1-Pin_2)*%
X115975000Y-92800000D03*
%TD*%
D12*
%TO.P,JP12,1,A*%
%TO.N,/PB11*%
X110175000Y-62750000D03*
D13*
%TO.P,JP12,2,B*%
%TO.N,/S4_WHT*%
X108725000Y-62750000D03*
%TD*%
D12*
%TO.P,JP3,1,A*%
%TO.N,/PB3*%
X94975000Y-78500000D03*
D13*
%TO.P,JP3,2,B*%
%TO.N,/S6_WHT*%
X93525000Y-78500000D03*
%TD*%
D12*
%TO.P,JP13,1,A*%
%TO.N,/PB12*%
X94475000Y-57250000D03*
D13*
%TO.P,JP13,2,B*%
%TO.N,/S15_PPL*%
X93025000Y-57250000D03*
%TD*%
D10*
%TO.P,JP21,1,A*%
%TO.N,/PA1*%
X114475000Y-89500000D03*
D11*
%TO.P,JP21,2,B*%
%TO.N,Net-(J2-Pin_2)*%
X115925000Y-89500000D03*
%TD*%
D12*
%TO.P,JP6,1,A*%
%TO.N,/PB6*%
X94975000Y-87750000D03*
D13*
%TO.P,JP6,2,B*%
%TO.N,/S9_BLU*%
X93525000Y-87750000D03*
%TD*%
D12*
%TO.P,JP7,1,A*%
%TO.N,/PB7*%
X94975000Y-90750000D03*
D13*
%TO.P,JP7,2,B*%
%TO.N,/S10_BRN*%
X93525000Y-90750000D03*
%TD*%
D14*
%TO.P,J9,3,Pin_3*%
%TO.N,GND*%
X123455000Y-62075000D03*
%TO.P,J9,2,Pin_2*%
%TO.N,Net-(J8-Pin_2)*%
X120915000Y-62075000D03*
D15*
%TO.P,J9,1,Pin_1*%
%TO.N,Net-(J8-Pin_1)*%
X118375000Y-62075000D03*
%TD*%
D14*
%TO.P,J8,2,Pin_2*%
%TO.N,Net-(J8-Pin_2)*%
X120865000Y-65800000D03*
D15*
%TO.P,J8,1,Pin_1*%
%TO.N,Net-(J8-Pin_1)*%
X118325000Y-65800000D03*
%TD*%
D16*
%TO.P,U1,40,GND*%
%TO.N,GND*%
X112524759Y-53860000D03*
%TO.P,U1,39,GND*%
X112524759Y-56400000D03*
%TO.P,U1,38,3V3*%
%TO.N,+3V3*%
X112524759Y-58940000D03*
%TO.P,U1,37,RST*%
%TO.N,unconnected-(U1-RST-Pad37)*%
X112524759Y-61480000D03*
%TO.P,U1,36,PB11*%
%TO.N,/PB11*%
X112524759Y-64020000D03*
%TO.P,U1,35,PB10*%
%TO.N,/PB10*%
X112524759Y-66560000D03*
%TO.P,U1,34,PB1*%
%TO.N,/PB1*%
X112524759Y-69100000D03*
%TO.P,U1,33,PB0*%
%TO.N,/PB0*%
X112524759Y-71640000D03*
%TO.P,U1,32,PA7*%
%TO.N,/PA7*%
X112524759Y-74180000D03*
%TO.P,U1,31,PA6*%
%TO.N,/PA6*%
X112524759Y-76720000D03*
%TO.P,U1,30,PA5*%
%TO.N,/PA5*%
X112524759Y-79260000D03*
%TO.P,U1,29,PA4*%
%TO.N,/PA4*%
X112524759Y-81800000D03*
%TO.P,U1,28,PA3*%
%TO.N,/PA3*%
X112524759Y-84340000D03*
%TO.P,U1,27,PA2*%
%TO.N,/PA2*%
X112524759Y-86880000D03*
%TO.P,U1,26,PA1*%
%TO.N,/PA1*%
X112524759Y-89420000D03*
%TO.P,U1,25,PA0*%
%TO.N,/PA0*%
X112524759Y-91960000D03*
%TO.P,U1,24,PC15*%
%TO.N,/PC15*%
X112524759Y-94500000D03*
%TO.P,U1,23,PC14*%
%TO.N,/PC14*%
X112524759Y-97040000D03*
%TO.P,U1,22,PC13*%
%TO.N,unconnected-(U1-PC13-Pad22)*%
X112524759Y-99580000D03*
%TO.P,U1,21,VBat*%
%TO.N,unconnected-(U1-VBat-Pad21)*%
X112524759Y-102120000D03*
%TO.P,U1,20,3V3*%
%TO.N,+3V3*%
X97284759Y-102120000D03*
%TO.P,U1,19,GND*%
%TO.N,GND*%
X97284759Y-99580000D03*
%TO.P,U1,18,5V*%
%TO.N,unconnected-(U1-5V-Pad18)*%
X97284759Y-97040000D03*
%TO.P,U1,17,PB9*%
%TO.N,/PB9*%
X97284759Y-94500000D03*
%TO.P,U1,16,PB8*%
%TO.N,/PB8*%
X97284759Y-91960000D03*
%TO.P,U1,15,PB7*%
%TO.N,/PB7*%
X97284759Y-89420000D03*
%TO.P,U1,14,PB6*%
%TO.N,/PB6*%
X97284759Y-86880000D03*
%TO.P,U1,13,PB5*%
%TO.N,/PB5*%
X97284759Y-84340000D03*
%TO.P,U1,12,PB4*%
%TO.N,/PB4*%
X97284759Y-81800000D03*
%TO.P,U1,11,PB3*%
%TO.N,/PB3*%
X97284759Y-79260000D03*
%TO.P,U1,10,PA15*%
%TO.N,/PA15*%
X97284759Y-76720000D03*
%TO.P,U1,9,PA12*%
%TO.N,/PA12*%
X97284759Y-74180000D03*
%TO.P,U1,8,PA11*%
%TO.N,/PA11*%
X97284759Y-71640000D03*
%TO.P,U1,7,PA10*%
%TO.N,/PA10*%
X97284759Y-69100000D03*
%TO.P,U1,6,PA9*%
%TO.N,/PA9*%
X97284759Y-66560000D03*
%TO.P,U1,5,PA8*%
%TO.N,/PA8*%
X97284759Y-64020000D03*
%TO.P,U1,4,PB15*%
%TO.N,/PB15*%
X97284759Y-61480000D03*
%TO.P,U1,3,PB14*%
%TO.N,/PB14*%
X97284759Y-58940000D03*
%TO.P,U1,2,PB13*%
%TO.N,/PB13*%
X97284759Y-56400000D03*
D15*
%TO.P,U1,1,PB12*%
%TO.N,/PB12*%
X97284759Y-53860000D03*
%TD*%
D17*
%TO.P,C23,2*%
%TO.N,GND*%
X89450000Y-99500000D03*
D18*
%TO.P,C23,1*%
%TO.N,+3V3*%
X89450000Y-102000000D03*
%TD*%
D19*
%TO.P,J7,3,Pin_3*%
%TO.N,/S14_GRY*%
X91500000Y-75000000D03*
%TO.P,J7,2,Pin_2*%
%TO.N,/S13_BLU*%
X91500000Y-73000000D03*
D20*
%TO.P,J7,1,Pin_1*%
%TO.N,/S12_YEL*%
X91500000Y-71000000D03*
%TD*%
D14*
%TO.P,J2,3,Pin_3*%
%TO.N,GND*%
X123330000Y-89500000D03*
%TO.P,J2,2,Pin_2*%
%TO.N,Net-(J2-Pin_2)*%
X120790000Y-89500000D03*
D15*
%TO.P,J2,1,Pin_1*%
%TO.N,+3V3*%
X118250000Y-89500000D03*
%TD*%
D14*
%TO.P,J4,3,Pin_3*%
%TO.N,GND*%
X123380000Y-77800000D03*
%TO.P,J4,2,Pin_2*%
%TO.N,Net-(J4-Pin_2)*%
X120840000Y-77800000D03*
D15*
%TO.P,J4,1,Pin_1*%
%TO.N,+3V3*%
X118300000Y-77800000D03*
%TD*%
D14*
%TO.P,J3,3,Pin_3*%
%TO.N,GND*%
X123330000Y-84000000D03*
%TO.P,J3,2,Pin_2*%
%TO.N,Net-(J3-Pin_2)*%
X120790000Y-84000000D03*
D15*
%TO.P,J3,1,Pin_1*%
%TO.N,+3V3*%
X118250000Y-84000000D03*
%TD*%
D19*
%TO.P,J6,7,Pin_7*%
%TO.N,/S18_YEL*%
X87000000Y-75000000D03*
%TO.P,J6,6,Pin_6*%
%TO.N,/S17_GRN*%
X87000000Y-73000000D03*
%TO.P,J6,5,Pin_5*%
%TO.N,/S16_ORG*%
X87000000Y-71000000D03*
%TO.P,J6,4,Pin_4*%
%TO.N,/S15_PPL*%
X87000000Y-69000000D03*
%TO.P,J6,3,Pin_3*%
%TO.N,/S4_WHT*%
X87000000Y-67000000D03*
%TO.P,J6,2,Pin_2*%
%TO.N,/S3_GRY*%
X87000000Y-65000000D03*
D20*
%TO.P,J6,1,Pin_1*%
%TO.N,/S1_BLU*%
X87000000Y-63000000D03*
%TD*%
D14*
%TO.P,J1,3,Pin_3*%
%TO.N,GND*%
X123330000Y-95000000D03*
%TO.P,J1,2,Pin_2*%
%TO.N,Net-(J1-Pin_2)*%
X120790000Y-95000000D03*
D15*
%TO.P,J1,1,Pin_1*%
%TO.N,+3V3*%
X118250000Y-95000000D03*
%TD*%
D19*
%TO.P,J5,9,Pin_9*%
%TO.N,GND*%
X86950000Y-95250000D03*
%TO.P,J5,8,Pin_8*%
%TO.N,/S11_YEL*%
X86950000Y-93250000D03*
%TO.P,J5,7,Pin_7*%
%TO.N,/S10_BRN*%
X86950000Y-91250000D03*
%TO.P,J5,6,Pin_6*%
%TO.N,/S9_BLU*%
X86950000Y-89250000D03*
%TO.P,J5,5,Pin_5*%
%TO.N,/S8_BLK*%
X86950000Y-87250000D03*
%TO.P,J5,4,Pin_4*%
%TO.N,/S7_GRY*%
X86950000Y-85250000D03*
%TO.P,J5,3,Pin_3*%
%TO.N,/S6_WHT*%
X86950000Y-83250000D03*
%TO.P,J5,2,Pin_2*%
%TO.N,/S5_PPL*%
X86950000Y-81250000D03*
D20*
%TO.P,J5,1,Pin_1*%
%TO.N,/S2_ORG*%
X86950000Y-79250000D03*
%TD*%
D21*
%TO.P,R8,2*%
%TO.N,+3V3*%
X89675000Y-81750000D03*
%TO.P,R8,1*%
%TO.N,/S7_GRY*%
X91325000Y-81750000D03*
%TD*%
%TO.P,R19,2*%
%TO.N,+3V3*%
X89375000Y-67000000D03*
%TO.P,R19,1*%
%TO.N,/S18_YEL*%
X91025000Y-67000000D03*
%TD*%
%TO.P,R6,2*%
%TO.N,+3V3*%
X105200000Y-69000000D03*
%TO.P,R6,1*%
%TO.N,/S5_PPL*%
X106850000Y-69000000D03*
%TD*%
%TO.P,R11,2*%
%TO.N,+3V3*%
X89675000Y-90750000D03*
%TO.P,R11,1*%
%TO.N,/S10_BRN*%
X91325000Y-90750000D03*
%TD*%
%TO.P,R13,2*%
%TO.N,+3V3*%
X89675000Y-96750000D03*
%TO.P,R13,1*%
%TO.N,/S1_BLU*%
X91325000Y-96750000D03*
%TD*%
%TO.P,R20,2*%
%TO.N,+3V3*%
X104575000Y-87250000D03*
%TO.P,R20,1*%
%TO.N,/S12_YEL*%
X106225000Y-87250000D03*
%TD*%
%TO.P,R17,2*%
%TO.N,+3V3*%
X89450000Y-61500000D03*
%TO.P,R17,1*%
%TO.N,/S16_ORG*%
X91100000Y-61500000D03*
%TD*%
%TO.P,R9,2*%
%TO.N,+3V3*%
X89675000Y-85000000D03*
%TO.P,R9,1*%
%TO.N,/S8_BLK*%
X91325000Y-85000000D03*
%TD*%
%TO.P,R14,2*%
%TO.N,+3V3*%
X105200000Y-66500000D03*
%TO.P,R14,1*%
%TO.N,/S3_GRY*%
X106850000Y-66500000D03*
%TD*%
%TO.P,R12,2*%
%TO.N,+3V3*%
X89675000Y-93750000D03*
%TO.P,R12,1*%
%TO.N,/S11_YEL*%
X91325000Y-93750000D03*
%TD*%
%TO.P,R15,2*%
%TO.N,+3V3*%
X105200000Y-62750000D03*
%TO.P,R15,1*%
%TO.N,/S4_WHT*%
X106850000Y-62750000D03*
%TD*%
%TO.P,R7,2*%
%TO.N,+3V3*%
X89675000Y-79250000D03*
%TO.P,R7,1*%
%TO.N,/S6_WHT*%
X91325000Y-79250000D03*
%TD*%
%TO.P,R21,2*%
%TO.N,+3V3*%
X104575000Y-84800000D03*
%TO.P,R21,1*%
%TO.N,/S13_BLU*%
X106225000Y-84800000D03*
%TD*%
%TO.P,R5,2*%
%TO.N,+3V3*%
X105175000Y-72250000D03*
%TO.P,R5,1*%
%TO.N,/S2_ORG*%
X106825000Y-72250000D03*
%TD*%
%TO.P,R18,2*%
%TO.N,+3V3*%
X89425000Y-64000000D03*
%TO.P,R18,1*%
%TO.N,/S17_GRN*%
X91075000Y-64000000D03*
%TD*%
%TO.P,R22,2*%
%TO.N,+3V3*%
X104375000Y-81250000D03*
%TO.P,R22,1*%
%TO.N,/S14_GRY*%
X106025000Y-81250000D03*
%TD*%
%TO.P,R16,2*%
%TO.N,+3V3*%
X89675000Y-58500000D03*
%TO.P,R16,1*%
%TO.N,/S15_PPL*%
X91325000Y-58500000D03*
%TD*%
%TO.P,R10,2*%
%TO.N,+3V3*%
X89675000Y-87750000D03*
%TO.P,R10,1*%
%TO.N,/S9_BLU*%
X91325000Y-87750000D03*
%TD*%
D22*
%TO.N,GND*%
X118200000Y-103200000D03*
X104500000Y-60900000D03*
X106600000Y-59100000D03*
X117200000Y-68600000D03*
X117300000Y-74500000D03*
%TO.N,+3V3*%
X91800000Y-83400000D03*
X104600000Y-86000000D03*
X104400000Y-83225500D03*
D23*
%TO.N,GND*%
X94500000Y-69500000D03*
X86000000Y-98000000D03*
X115000000Y-53500000D03*
X118500000Y-58250000D03*
X109500000Y-90500000D03*
X109000000Y-57500000D03*
X109500000Y-54500000D03*
X115000000Y-57000000D03*
X115500000Y-102000000D03*
X100000000Y-82000000D03*
X117000000Y-100500000D03*
X115000000Y-64000000D03*
X99500000Y-102000000D03*
X100500000Y-74000000D03*
X100000000Y-57000000D03*
X115500000Y-78500000D03*
X110000000Y-102000000D03*
X92500000Y-99250000D03*
X102750000Y-74000000D03*
X124000000Y-75200000D03*
X123600000Y-103100000D03*
X86000000Y-102500000D03*
X94500000Y-71500000D03*
X86500000Y-53500000D03*
X123500000Y-52500000D03*
X86000000Y-57000000D03*
X100250000Y-87250000D03*
X94500000Y-74000000D03*
X109500000Y-97000000D03*
X108000000Y-75000000D03*
X87500000Y-60000000D03*
X108400000Y-78400000D03*
X100000000Y-95500000D03*
X109500000Y-92000000D03*
X109500000Y-94500000D03*
X104000000Y-54500000D03*
X92500000Y-103500000D03*
X117000000Y-97500000D03*
X109500000Y-53000000D03*
D22*
%TO.N,/S2_ORG*%
X107500000Y-73000000D03*
%TO.N,/S5_PPL*%
X107500000Y-69000000D03*
%TO.N,/S6_WHT*%
X92250000Y-78500000D03*
%TO.N,/S7_GRY*%
X92500000Y-81750000D03*
%TO.N,/S8_BLK*%
X92349312Y-85150688D03*
%TO.N,/S9_BLU*%
X92500000Y-87750000D03*
%TO.N,/S10_BRN*%
X92500000Y-90750000D03*
%TO.N,/S11_YEL*%
X92250000Y-93750000D03*
%TO.N,/S1_BLU*%
X87900000Y-96900000D03*
X92250000Y-97000000D03*
%TO.N,/S3_GRY*%
X107500000Y-66500000D03*
%TO.N,/S4_WHT*%
X107500000Y-62750000D03*
%TO.N,/S15_PPL*%
X92000000Y-58500000D03*
%TO.N,/S16_ORG*%
X92000000Y-61250000D03*
%TO.N,/S17_GRN*%
X92000000Y-64000000D03*
%TO.N,/S18_YEL*%
X91750000Y-67000000D03*
%TO.N,/S12_YEL*%
X107000000Y-87250000D03*
%TO.N,/S13_BLU*%
X107000000Y-84750000D03*
D24*
%TO.N,/S14_GRY*%
X102055378Y-82044622D03*
D22*
X107000000Y-81250000D03*
%TD*%
D25*
%TO.N,Net-(J4-Pin_2)*%
X120840000Y-78450000D02*
X120840000Y-77800000D01*
X117690000Y-81600000D02*
X120840000Y-78450000D01*
X116150000Y-81600000D02*
X117690000Y-81600000D01*
D26*
%TO.N,+3V3*%
X104400000Y-81275000D02*
X104375000Y-81250000D01*
X104400000Y-83225500D02*
X104400000Y-81275000D01*
D27*
%TO.N,/S12_YEL*%
X105325000Y-88150000D02*
X106225000Y-87250000D01*
X103150000Y-88150000D02*
X105325000Y-88150000D01*
X101200000Y-86200000D02*
X103150000Y-88150000D01*
X101200000Y-79200000D02*
X101200000Y-86200000D01*
X96745000Y-77995000D02*
X99995000Y-77995000D01*
X95000000Y-76250000D02*
X96745000Y-77995000D01*
X89900000Y-75955635D02*
X90194365Y-76250000D01*
X89900000Y-71800000D02*
X89900000Y-75955635D01*
X90194365Y-76250000D02*
X95000000Y-76250000D01*
X99995000Y-77995000D02*
X101200000Y-79200000D01*
X90700000Y-71000000D02*
X89900000Y-71800000D01*
X91500000Y-71000000D02*
X90700000Y-71000000D01*
%TO.N,/S14_GRY*%
X91955000Y-75455000D02*
X91500000Y-75000000D01*
X101750000Y-78150000D02*
X99055000Y-75455000D01*
X99055000Y-75455000D02*
X91955000Y-75455000D01*
X101750000Y-81739244D02*
X101750000Y-78150000D01*
X102055378Y-82044622D02*
X101750000Y-81739244D01*
%TO.N,/S13_BLU*%
X103950000Y-83950000D02*
X105375000Y-83950000D01*
X102655378Y-82655378D02*
X103950000Y-83950000D01*
X97812882Y-72905000D02*
X102655378Y-77747496D01*
X105375000Y-83950000D02*
X106225000Y-84800000D01*
X91595000Y-72905000D02*
X97812882Y-72905000D01*
X102655378Y-77747496D02*
X102655378Y-82655378D01*
X91500000Y-73000000D02*
X91595000Y-72905000D01*
D26*
%TO.N,+3V3*%
X104600000Y-86000000D02*
X104600000Y-84825000D01*
X104600000Y-86000000D02*
X104600000Y-87225000D01*
X104600000Y-84825000D02*
X104575000Y-84800000D01*
X104600000Y-87225000D02*
X104575000Y-87250000D01*
D27*
%TO.N,/S12_YEL*%
X107725000Y-87250000D02*
X108075000Y-87600000D01*
D25*
%TO.N,/PA5*%
X111284759Y-80500000D02*
X112524759Y-79260000D01*
X111250000Y-85875000D02*
X111250000Y-80500000D01*
X109525000Y-87600000D02*
X111250000Y-85875000D01*
X111250000Y-80500000D02*
X111284759Y-80500000D01*
D27*
%TO.N,/S12_YEL*%
X107000000Y-87250000D02*
X107725000Y-87250000D01*
%TO.N,/S13_BLU*%
X107925000Y-84750000D02*
X108075000Y-84600000D01*
D25*
%TO.N,/PA6*%
X112030000Y-76720000D02*
X112524759Y-76720000D01*
D27*
%TO.N,/S13_BLU*%
X107000000Y-84750000D02*
X107925000Y-84750000D01*
D25*
%TO.N,/PA6*%
X110750000Y-78000000D02*
X112030000Y-76720000D01*
X110750000Y-83375000D02*
X110750000Y-78000000D01*
X109525000Y-84600000D02*
X110750000Y-83375000D01*
D27*
%TO.N,/S12_YEL*%
X106225000Y-87250000D02*
X107000000Y-87250000D01*
D26*
%TO.N,+3V3*%
X104250000Y-73175000D02*
X105175000Y-72250000D01*
X104375000Y-81250000D02*
X104250000Y-81125000D01*
X104250000Y-81125000D02*
X104250000Y-73175000D01*
D25*
%TO.N,/S14_GRY*%
X107000000Y-81250000D02*
X106025000Y-81250000D01*
D27*
%TO.N,/S13_BLU*%
X106275000Y-84750000D02*
X107000000Y-84750000D01*
X106225000Y-84800000D02*
X106275000Y-84750000D01*
D25*
%TO.N,/PA7*%
X109725000Y-81000000D02*
X109725000Y-76979759D01*
X109725000Y-76979759D02*
X112524759Y-74180000D01*
X109475000Y-81250000D02*
X109725000Y-81000000D01*
%TO.N,/S14_GRY*%
X107000000Y-81250000D02*
X108025000Y-81250000D01*
%TO.N,Net-(J1-Pin_2)*%
X118590000Y-92800000D02*
X120790000Y-95000000D01*
%TO.N,/PA0*%
X113800000Y-92800000D02*
X114525000Y-92800000D01*
X112960000Y-91960000D02*
X113800000Y-92800000D01*
X112524759Y-91960000D02*
X112960000Y-91960000D01*
%TO.N,Net-(J1-Pin_2)*%
X115975000Y-92800000D02*
X118590000Y-92800000D01*
%TO.N,Net-(J2-Pin_2)*%
X119490000Y-90800000D02*
X120790000Y-89500000D01*
X115975000Y-89775000D02*
X117000000Y-90800000D01*
X117000000Y-90800000D02*
X119490000Y-90800000D01*
X115975000Y-89500000D02*
X115975000Y-89775000D01*
%TO.N,/PA1*%
X114395000Y-89420000D02*
X114475000Y-89500000D01*
X112524759Y-89420000D02*
X114395000Y-89420000D01*
%TO.N,/PA2*%
X113670000Y-86880000D02*
X114650000Y-85900000D01*
X112524759Y-86880000D02*
X113670000Y-86880000D01*
%TO.N,Net-(J3-Pin_2)*%
X119850000Y-85900000D02*
X120790000Y-84960000D01*
X116100000Y-85900000D02*
X119850000Y-85900000D01*
X120790000Y-84960000D02*
X120790000Y-84000000D01*
D27*
%TO.N,/S2_ORG*%
X107500000Y-73000000D02*
X107750000Y-72750000D01*
X107750000Y-72750000D02*
X108775000Y-72750000D01*
D26*
%TO.N,/PB0*%
X110225000Y-72750000D02*
X111414759Y-72750000D01*
X111414759Y-72750000D02*
X112524759Y-71640000D01*
%TO.N,+3V3*%
X89675000Y-97425000D02*
X91100000Y-98850000D01*
X89450000Y-61500000D02*
X89450000Y-58725000D01*
X89675000Y-87750000D02*
X89675000Y-90750000D01*
D25*
X89675000Y-57225000D02*
X94500000Y-52400000D01*
D26*
X89675000Y-93750000D02*
X89675000Y-96750000D01*
X105200000Y-62750000D02*
X105200000Y-69000000D01*
D25*
X94500000Y-52400000D02*
X105984759Y-52400000D01*
D26*
X89500000Y-83200000D02*
X89500000Y-84825000D01*
X89675000Y-90750000D02*
X89675000Y-93750000D01*
X105175000Y-72250000D02*
X105200000Y-72225000D01*
X105200000Y-62750000D02*
X105200000Y-62100000D01*
X108360000Y-58940000D02*
X112524759Y-58940000D01*
X89675000Y-96750000D02*
X89675000Y-97425000D01*
X89675000Y-81750000D02*
X89675000Y-79250000D01*
D25*
X105984759Y-52400000D02*
X112524759Y-58940000D01*
D26*
X89375000Y-64050000D02*
X89425000Y-64000000D01*
X89450000Y-61500000D02*
X89450000Y-63975000D01*
X89450000Y-58725000D02*
X89675000Y-58500000D01*
X89500000Y-83200000D02*
X89500000Y-83400000D01*
D25*
X89675000Y-58500000D02*
X89675000Y-57225000D01*
D26*
X89675000Y-81750000D02*
X89500000Y-81925000D01*
X105200000Y-72225000D02*
X105200000Y-69000000D01*
X89450000Y-63975000D02*
X89425000Y-64000000D01*
X89500000Y-81925000D02*
X89500000Y-83200000D01*
X91100000Y-98850000D02*
X91100000Y-100350000D01*
X91100000Y-100350000D02*
X89450000Y-102000000D01*
X89500000Y-83400000D02*
X91800000Y-83400000D01*
X105200000Y-62100000D02*
X108360000Y-58940000D01*
X89500000Y-84825000D02*
X89675000Y-85000000D01*
X89375000Y-67000000D02*
X89375000Y-64050000D01*
D27*
%TO.N,/S2_ORG*%
X107500000Y-73000000D02*
X107500000Y-72925000D01*
X107500000Y-72925000D02*
X106825000Y-72250000D01*
%TO.N,/S5_PPL*%
X106850000Y-69000000D02*
X107500000Y-69000000D01*
X108250000Y-69000000D02*
X107500000Y-69000000D01*
X108750000Y-69500000D02*
X108250000Y-69000000D01*
D25*
%TO.N,/S6_WHT*%
X90275000Y-78200000D02*
X91325000Y-79250000D01*
X91325000Y-79250000D02*
X91500000Y-79250000D01*
X91500000Y-79250000D02*
X92250000Y-78500000D01*
X86950000Y-83205761D02*
X88300000Y-81855761D01*
X92250000Y-78500000D02*
X93525000Y-78500000D01*
X86950000Y-83250000D02*
X86950000Y-83205761D01*
X88900000Y-78200000D02*
X90275000Y-78200000D01*
X88300000Y-81855761D02*
X88300000Y-78800000D01*
X88300000Y-78800000D02*
X88900000Y-78200000D01*
%TO.N,/S7_GRY*%
X92500000Y-81750000D02*
X93525000Y-81750000D01*
X91325000Y-81750000D02*
X92500000Y-81750000D01*
%TO.N,/S8_BLK*%
X92349312Y-85150688D02*
X91475688Y-85150688D01*
X90250000Y-86000000D02*
X88200000Y-86000000D01*
X91325000Y-85000000D02*
X91250000Y-85000000D01*
X92750000Y-84750000D02*
X93525000Y-84750000D01*
X88200000Y-86000000D02*
X86950000Y-87250000D01*
X92349312Y-85150688D02*
X92750000Y-84750000D01*
X91250000Y-85000000D02*
X90250000Y-86000000D01*
X91475688Y-85150688D02*
X91325000Y-85000000D01*
%TO.N,/S9_BLU*%
X92500000Y-87750000D02*
X93525000Y-87750000D01*
X92500000Y-87750000D02*
X91325000Y-87750000D01*
%TO.N,/S10_BRN*%
X92500000Y-90750000D02*
X93525000Y-90750000D01*
X92500000Y-90750000D02*
X91325000Y-90750000D01*
%TO.N,/S11_YEL*%
X92250000Y-93750000D02*
X91325000Y-93750000D01*
X92250000Y-93750000D02*
X93525000Y-93750000D01*
%TO.N,/S1_BLU*%
X92250000Y-97000000D02*
X91575000Y-97000000D01*
X85825000Y-95715991D02*
X87009009Y-96900000D01*
X91575000Y-97000000D02*
X91325000Y-96750000D01*
X92250000Y-97000000D02*
X93525000Y-97000000D01*
X87009009Y-96900000D02*
X87900000Y-96900000D01*
X85825000Y-64175000D02*
X85825000Y-95715991D01*
X87000000Y-63000000D02*
X85825000Y-64175000D01*
%TO.N,/S3_GRY*%
X108750000Y-66250000D02*
X108500000Y-66500000D01*
X108500000Y-66500000D02*
X107500000Y-66500000D01*
X106850000Y-66500000D02*
X107500000Y-66500000D01*
%TO.N,/S4_WHT*%
X107500000Y-62750000D02*
X108725000Y-62750000D01*
X107500000Y-62750000D02*
X106850000Y-62750000D01*
%TO.N,/S15_PPL*%
X91325000Y-58500000D02*
X92000000Y-58500000D01*
X92000000Y-58500000D02*
X92012500Y-58500000D01*
X93025000Y-57487500D02*
X93025000Y-57250000D01*
X92012500Y-58500000D02*
X93025000Y-57487500D01*
%TO.N,/S16_ORG*%
X92000000Y-61250000D02*
X91750000Y-61500000D01*
X90200000Y-66430761D02*
X90200000Y-67800000D01*
X90275000Y-66355761D02*
X90200000Y-66430761D01*
X91750000Y-61500000D02*
X91100000Y-61500000D01*
X90275000Y-62325000D02*
X90275000Y-66355761D01*
X92000000Y-61250000D02*
X92525000Y-61250000D01*
X92525000Y-61250000D02*
X93025000Y-60750000D01*
X91100000Y-61500000D02*
X90275000Y-62325000D01*
X90200000Y-67800000D02*
X87000000Y-71000000D01*
%TO.N,/S17_GRN*%
X91075000Y-64000000D02*
X93025000Y-64000000D01*
D27*
%TO.N,/S18_YEL*%
X91025000Y-67975000D02*
X88300000Y-70700000D01*
X88300000Y-70700000D02*
X88300000Y-73700000D01*
X88300000Y-73700000D02*
X87000000Y-75000000D01*
X91025000Y-67000000D02*
X91025000Y-67975000D01*
D25*
X92775000Y-67000000D02*
X93025000Y-67250000D01*
X91750000Y-67000000D02*
X92775000Y-67000000D01*
D26*
%TO.N,/PB1*%
X110200000Y-69500000D02*
X110600000Y-69100000D01*
X110600000Y-69100000D02*
X112524759Y-69100000D01*
D27*
%TO.N,/PB3*%
X96760000Y-79260000D02*
X97284759Y-79260000D01*
X94975000Y-78500000D02*
X96000000Y-78500000D01*
X96000000Y-78500000D02*
X96760000Y-79260000D01*
D25*
%TO.N,/PB4*%
X94975000Y-81750000D02*
X95025000Y-81800000D01*
X95025000Y-81800000D02*
X97284759Y-81800000D01*
%TO.N,/PB5*%
X95910000Y-84340000D02*
X95500000Y-84750000D01*
X95500000Y-84750000D02*
X94975000Y-84750000D01*
X97284759Y-84340000D02*
X95910000Y-84340000D01*
%TO.N,/PB6*%
X97284759Y-86880000D02*
X96120000Y-86880000D01*
X95250000Y-87750000D02*
X94975000Y-87750000D01*
X96120000Y-86880000D02*
X95250000Y-87750000D01*
%TO.N,/PB7*%
X95500000Y-90750000D02*
X96830000Y-89420000D01*
X96830000Y-89420000D02*
X97284759Y-89420000D01*
X94975000Y-90750000D02*
X95500000Y-90750000D01*
%TO.N,/PB8*%
X94975000Y-93525000D02*
X94975000Y-93750000D01*
X97284759Y-91960000D02*
X96540000Y-91960000D01*
X96540000Y-91960000D02*
X94975000Y-93525000D01*
%TO.N,/PB9*%
X94975000Y-96775000D02*
X97250000Y-94500000D01*
X97250000Y-94500000D02*
X97284759Y-94500000D01*
X94975000Y-97000000D02*
X94975000Y-96775000D01*
D26*
%TO.N,/PB10*%
X112214759Y-66250000D02*
X112524759Y-66560000D01*
X110200000Y-66250000D02*
X112214759Y-66250000D01*
%TO.N,/PB11*%
X111254759Y-62750000D02*
X112524759Y-64020000D01*
X110175000Y-62750000D02*
X111254759Y-62750000D01*
D25*
%TO.N,/PB12*%
X94475000Y-55275000D02*
X95890000Y-53860000D01*
X94475000Y-57250000D02*
X94475000Y-55275000D01*
X95890000Y-53860000D02*
X97284759Y-53860000D01*
%TO.N,/PB13*%
X97284759Y-56557621D02*
X97284759Y-56400000D01*
X94475000Y-60750000D02*
X94475000Y-59367380D01*
X94475000Y-59367380D02*
X97284759Y-56557621D01*
%TO.N,/PB14*%
X95750000Y-60474759D02*
X97284759Y-58940000D01*
X94475000Y-62873528D02*
X95750000Y-61598528D01*
X95750000Y-61598528D02*
X95750000Y-60474759D01*
X94475000Y-64000000D02*
X94475000Y-62873528D01*
%TO.N,/PB15*%
X95250000Y-67250000D02*
X95750000Y-66750000D01*
X94475000Y-67250000D02*
X95250000Y-67250000D01*
X97020000Y-61480000D02*
X97284759Y-61480000D01*
X95750000Y-66750000D02*
X95750000Y-62750000D01*
X95750000Y-62750000D02*
X97020000Y-61480000D01*
%TO.N,/PA3*%
X113910000Y-84340000D02*
X114525000Y-83725000D01*
X112524759Y-84340000D02*
X113910000Y-84340000D01*
X114525000Y-83725000D02*
X114525000Y-81500000D01*
%TD*%
%TA.AperFunction,Conductor*%
%TO.N,GND*%
G36*
X105834543Y-52820185D02*
G01*
X105855185Y-52836819D01*
X111296185Y-58277819D01*
X111329670Y-58339142D01*
X111324686Y-58408834D01*
X111282814Y-58464767D01*
X111217350Y-58489184D01*
X111208504Y-58489500D01*
X108392262Y-58489500D01*
X108378379Y-58488720D01*
X108373926Y-58488218D01*
X108342964Y-58484729D01*
X108286784Y-58495358D01*
X108282219Y-58496134D01*
X108219761Y-58505549D01*
X108214834Y-58507170D01*
X108158964Y-58536699D01*
X108154825Y-58538789D01*
X108097949Y-58566179D01*
X108093708Y-58569188D01*
X108049046Y-58613849D01*
X108045709Y-58617063D01*
X107999394Y-58660037D01*
X107987968Y-58674926D01*
X104904264Y-61758631D01*
X104893898Y-61767895D01*
X104866031Y-61790118D01*
X104833824Y-61837356D01*
X104831144Y-61841132D01*
X104793633Y-61891959D01*
X104791301Y-61896578D01*
X104772674Y-61956966D01*
X104771225Y-61961369D01*
X104750369Y-62020973D01*
X104749500Y-62026089D01*
X104749500Y-62037371D01*
X104729815Y-62104410D01*
X104699136Y-62137140D01*
X104677849Y-62152850D01*
X104597207Y-62262117D01*
X104552353Y-62390303D01*
X104549770Y-62417848D01*
X104549769Y-62417861D01*
X104549500Y-62420734D01*
X104549500Y-63079266D01*
X104549769Y-63082139D01*
X104549770Y-63082151D01*
X104552353Y-63109696D01*
X104597207Y-63237882D01*
X104677848Y-63347148D01*
X104677849Y-63347148D01*
X104677850Y-63347150D01*
X104699134Y-63362858D01*
X104741384Y-63418502D01*
X104749500Y-63462627D01*
X104749500Y-65787371D01*
X104729815Y-65854410D01*
X104699134Y-65887141D01*
X104677848Y-65902850D01*
X104597207Y-66012115D01*
X104552353Y-66140303D01*
X104549770Y-66167848D01*
X104549769Y-66167861D01*
X104549500Y-66170734D01*
X104549500Y-66829266D01*
X104549769Y-66832139D01*
X104549770Y-66832151D01*
X104552353Y-66859696D01*
X104552353Y-66859698D01*
X104552354Y-66859699D01*
X104557814Y-66875304D01*
X104597207Y-66987882D01*
X104677848Y-67097148D01*
X104677849Y-67097148D01*
X104677850Y-67097150D01*
X104699134Y-67112858D01*
X104741384Y-67168502D01*
X104749500Y-67212627D01*
X104749500Y-68287371D01*
X104729815Y-68354410D01*
X104699134Y-68387141D01*
X104677848Y-68402850D01*
X104597207Y-68512115D01*
X104552353Y-68640303D01*
X104549770Y-68667848D01*
X104549769Y-68667861D01*
X104549500Y-68670734D01*
X104549500Y-69329266D01*
X104549769Y-69332139D01*
X104549770Y-69332151D01*
X104552353Y-69359696D01*
X104597207Y-69487882D01*
X104677848Y-69597148D01*
X104677849Y-69597148D01*
X104677850Y-69597150D01*
X104699134Y-69612858D01*
X104741384Y-69668502D01*
X104749500Y-69712627D01*
X104749499Y-71518920D01*
X104729814Y-71585960D01*
X104699134Y-71618689D01*
X104652849Y-71652849D01*
X104572207Y-71762115D01*
X104527353Y-71890303D01*
X104524770Y-71917848D01*
X104524769Y-71917861D01*
X104524500Y-71920734D01*
X104524500Y-71923625D01*
X104524500Y-71923626D01*
X104524500Y-72212033D01*
X104504815Y-72279072D01*
X104488181Y-72299714D01*
X103954264Y-72833631D01*
X103943898Y-72842895D01*
X103916031Y-72865118D01*
X103883824Y-72912356D01*
X103881144Y-72916132D01*
X103843633Y-72966959D01*
X103841301Y-72971578D01*
X103822674Y-73031966D01*
X103821225Y-73036369D01*
X103800369Y-73095973D01*
X103799500Y-73101089D01*
X103799500Y-73164261D01*
X103799413Y-73168898D01*
X103797050Y-73232029D01*
X103799500Y-73250635D01*
X103799500Y-80684334D01*
X103779815Y-80751373D01*
X103775270Y-80757967D01*
X103772207Y-80762116D01*
X103727353Y-80890303D01*
X103724770Y-80917848D01*
X103724769Y-80917861D01*
X103724500Y-80920734D01*
X103724500Y-81579266D01*
X103724769Y-81582139D01*
X103724770Y-81582151D01*
X103727353Y-81609696D01*
X103772207Y-81737884D01*
X103852847Y-81847148D01*
X103899132Y-81881307D01*
X103941383Y-81936954D01*
X103949499Y-81981078D01*
X103949499Y-82699741D01*
X103929814Y-82766780D01*
X103911300Y-82788386D01*
X103819780Y-82920976D01*
X103786665Y-83008294D01*
X103744487Y-83063997D01*
X103678890Y-83088054D01*
X103610699Y-83072827D01*
X103583042Y-83052004D01*
X103067197Y-82536159D01*
X103033712Y-82474836D01*
X103030878Y-82448478D01*
X103030878Y-77799299D01*
X103033517Y-77773852D01*
X103035745Y-77763228D01*
X103031830Y-77731818D01*
X103030878Y-77716481D01*
X103030878Y-77716384D01*
X103029704Y-77709347D01*
X103027452Y-77695853D01*
X103026720Y-77690830D01*
X103020244Y-77638871D01*
X103020242Y-77638867D01*
X103019267Y-77631043D01*
X103019197Y-77630823D01*
X103011683Y-77616939D01*
X102990537Y-77577865D01*
X102988200Y-77573325D01*
X102986281Y-77569399D01*
X102965204Y-77526285D01*
X102965203Y-77526284D01*
X102961738Y-77519196D01*
X102961603Y-77519015D01*
X102955797Y-77513670D01*
X102917269Y-77478202D01*
X102913596Y-77474677D01*
X98115031Y-72676111D01*
X98098904Y-72656253D01*
X98092965Y-72647162D01*
X98067992Y-72627725D01*
X98056475Y-72617554D01*
X98049134Y-72610213D01*
X98051720Y-72607626D01*
X98020210Y-72567464D01*
X98013646Y-72497903D01*
X98045732Y-72435837D01*
X98051824Y-72429885D01*
X98101523Y-72384579D01*
X98224432Y-72221821D01*
X98224432Y-72221819D01*
X98224434Y-72221818D01*
X98291921Y-72086284D01*
X98315341Y-72039250D01*
X98371156Y-71843083D01*
X98389974Y-71640000D01*
X98371156Y-71436917D01*
X98315341Y-71240750D01*
X98314968Y-71240001D01*
X98224434Y-71058181D01*
X98101522Y-70895419D01*
X97950800Y-70758018D01*
X97777397Y-70650652D01*
X97587216Y-70576976D01*
X97520388Y-70564484D01*
X97386735Y-70539500D01*
X97182783Y-70539500D01*
X97082543Y-70558238D01*
X96982301Y-70576976D01*
X96792120Y-70650652D01*
X96618717Y-70758018D01*
X96467995Y-70895419D01*
X96345083Y-71058181D01*
X96254177Y-71240748D01*
X96198361Y-71436916D01*
X96179544Y-71640000D01*
X96198361Y-71843083D01*
X96254177Y-72039251D01*
X96345083Y-72221818D01*
X96427363Y-72330773D01*
X96452055Y-72396134D01*
X96437490Y-72464469D01*
X96388293Y-72514082D01*
X96328409Y-72529500D01*
X92368624Y-72529500D01*
X92301585Y-72509815D01*
X92261236Y-72467498D01*
X92252870Y-72453007D01*
X92122691Y-72308429D01*
X91965300Y-72194078D01*
X91895002Y-72162780D01*
X91841765Y-72117530D01*
X91821443Y-72050681D01*
X91840488Y-71983457D01*
X91892854Y-71937201D01*
X91945437Y-71925500D01*
X92199675Y-71925500D01*
X92238142Y-71917848D01*
X92272740Y-71910966D01*
X92355601Y-71855601D01*
X92410966Y-71772740D01*
X92425500Y-71699674D01*
X92425500Y-70300326D01*
X92410966Y-70227260D01*
X92355601Y-70144399D01*
X92272740Y-70089034D01*
X92272739Y-70089033D01*
X92272738Y-70089033D01*
X92199675Y-70074500D01*
X92199674Y-70074500D01*
X90800326Y-70074500D01*
X90800325Y-70074500D01*
X90727261Y-70089033D01*
X90644399Y-70144399D01*
X90589033Y-70227261D01*
X90574500Y-70300325D01*
X90574500Y-70565978D01*
X90554815Y-70633017D01*
X90504964Y-70677377D01*
X90471715Y-70693632D01*
X90471505Y-70693788D01*
X90430719Y-70738093D01*
X90427172Y-70741789D01*
X89671108Y-71497852D01*
X89651254Y-71513976D01*
X89642165Y-71519914D01*
X89622722Y-71544894D01*
X89612563Y-71556398D01*
X89612484Y-71556476D01*
X89612479Y-71556482D01*
X89612480Y-71556482D01*
X89600390Y-71573414D01*
X89597341Y-71577504D01*
X89560354Y-71625024D01*
X89560237Y-71625253D01*
X89543057Y-71682955D01*
X89541495Y-71687831D01*
X89521941Y-71744792D01*
X89521906Y-71745034D01*
X89524394Y-71805191D01*
X89524500Y-71810315D01*
X89524500Y-75903831D01*
X89521861Y-75929277D01*
X89519633Y-75939902D01*
X89523548Y-75971311D01*
X89524500Y-75986648D01*
X89524500Y-75986751D01*
X89527918Y-76007237D01*
X89528657Y-76012305D01*
X89536107Y-76072073D01*
X89536185Y-76072317D01*
X89564827Y-76125243D01*
X89567171Y-76129797D01*
X89593634Y-76183927D01*
X89593779Y-76184121D01*
X89638092Y-76224914D01*
X89641790Y-76228462D01*
X89892215Y-76478888D01*
X89908341Y-76498744D01*
X89914281Y-76507836D01*
X89939255Y-76527274D01*
X89950773Y-76537446D01*
X89950847Y-76537520D01*
X89960775Y-76544608D01*
X89967764Y-76549598D01*
X89971873Y-76552662D01*
X90019406Y-76589658D01*
X90019597Y-76589757D01*
X90053966Y-76599988D01*
X90077320Y-76606941D01*
X90082157Y-76608490D01*
X90131705Y-76625500D01*
X90139162Y-76628060D01*
X90139395Y-76628093D01*
X90147274Y-76627767D01*
X90147277Y-76627768D01*
X90199558Y-76625605D01*
X90204681Y-76625500D01*
X94793101Y-76625500D01*
X94860140Y-76645185D01*
X94880782Y-76661819D01*
X95501874Y-77282911D01*
X95535359Y-77344234D01*
X95530375Y-77413926D01*
X95488503Y-77469859D01*
X95423039Y-77494276D01*
X95414193Y-77494592D01*
X94475000Y-77494592D01*
X94471973Y-77494891D01*
X94471947Y-77494893D01*
X94424911Y-77499551D01*
X94378999Y-77518625D01*
X94309537Y-77526167D01*
X94285974Y-77516666D01*
X94175001Y-77494592D01*
X94175000Y-77494592D01*
X93025000Y-77494592D01*
X93024999Y-77494592D01*
X92927261Y-77514033D01*
X92844399Y-77569399D01*
X92789033Y-77652261D01*
X92769592Y-77749999D01*
X92769592Y-77832932D01*
X92749907Y-77899971D01*
X92697103Y-77945726D01*
X92627945Y-77955670D01*
X92587965Y-77942728D01*
X92576226Y-77936567D01*
X92550692Y-77923165D01*
X92482364Y-77887303D01*
X92328985Y-77849500D01*
X92171015Y-77849500D01*
X92017635Y-77887303D01*
X91877761Y-77960716D01*
X91759515Y-78065471D01*
X91669780Y-78195476D01*
X91615337Y-78339033D01*
X91613763Y-78343182D01*
X91605895Y-78407988D01*
X91604989Y-78415446D01*
X91577367Y-78479624D01*
X91519433Y-78518681D01*
X91481893Y-78524500D01*
X91217254Y-78524500D01*
X91150215Y-78504815D01*
X91129573Y-78488181D01*
X90529690Y-77888296D01*
X90529675Y-77888283D01*
X90513342Y-77871950D01*
X90513341Y-77871949D01*
X90513339Y-77871947D01*
X90493599Y-77861889D01*
X90477014Y-77851726D01*
X90459090Y-77838704D01*
X90453806Y-77836987D01*
X90438019Y-77831857D01*
X90420044Y-77824412D01*
X90400302Y-77814353D01*
X90378418Y-77810886D01*
X90359507Y-77806346D01*
X90338435Y-77799500D01*
X90338433Y-77799500D01*
X90306519Y-77799500D01*
X88963433Y-77799500D01*
X88836567Y-77799500D01*
X88815491Y-77806347D01*
X88796582Y-77810886D01*
X88774696Y-77814353D01*
X88754956Y-77824411D01*
X88736985Y-77831855D01*
X88715910Y-77838703D01*
X88697984Y-77851727D01*
X88681398Y-77861891D01*
X88661658Y-77871949D01*
X88639091Y-77894517D01*
X88046064Y-78487542D01*
X87984741Y-78521027D01*
X87915049Y-78516043D01*
X87859116Y-78474171D01*
X87855290Y-78468765D01*
X87805601Y-78394399D01*
X87722740Y-78339034D01*
X87722739Y-78339033D01*
X87722738Y-78339033D01*
X87649675Y-78324500D01*
X87649674Y-78324500D01*
X86349500Y-78324500D01*
X86282461Y-78304815D01*
X86236706Y-78252011D01*
X86225500Y-78200500D01*
X86225500Y-75824638D01*
X86245185Y-75757599D01*
X86297989Y-75711844D01*
X86367147Y-75701900D01*
X86422385Y-75724320D01*
X86534699Y-75805921D01*
X86712431Y-75885052D01*
X86902724Y-75925500D01*
X86902726Y-75925500D01*
X87097276Y-75925500D01*
X87287568Y-75885052D01*
X87287569Y-75885051D01*
X87287571Y-75885051D01*
X87465299Y-75805922D01*
X87622692Y-75691569D01*
X87752870Y-75546992D01*
X87850144Y-75378508D01*
X87910262Y-75193482D01*
X87930598Y-75000000D01*
X87910262Y-74806518D01*
X87888190Y-74738589D01*
X87886196Y-74668753D01*
X87918439Y-74612596D01*
X88528889Y-74002146D01*
X88548741Y-73986025D01*
X88557836Y-73980084D01*
X88577277Y-73955104D01*
X88587449Y-73943587D01*
X88587520Y-73943517D01*
X88599614Y-73926576D01*
X88602648Y-73922508D01*
X88634809Y-73881189D01*
X88634809Y-73881187D01*
X88639666Y-73874948D01*
X88639753Y-73874779D01*
X88642010Y-73867199D01*
X88656954Y-73817001D01*
X88658491Y-73812202D01*
X88675500Y-73762660D01*
X88675500Y-73762656D01*
X88678060Y-73755199D01*
X88678095Y-73754965D01*
X88675606Y-73694792D01*
X88675500Y-73689668D01*
X88675500Y-70906899D01*
X88695185Y-70839860D01*
X88711819Y-70819218D01*
X89980537Y-69550500D01*
X90431037Y-69100000D01*
X96179544Y-69100000D01*
X96198361Y-69303083D01*
X96254177Y-69499251D01*
X96345083Y-69681818D01*
X96467995Y-69844580D01*
X96618717Y-69981981D01*
X96792120Y-70089347D01*
X96792122Y-70089348D01*
X96982303Y-70163024D01*
X97182783Y-70200500D01*
X97182785Y-70200500D01*
X97386733Y-70200500D01*
X97386735Y-70200500D01*
X97587215Y-70163024D01*
X97777396Y-70089348D01*
X97950800Y-69981981D01*
X98012757Y-69925500D01*
X98101522Y-69844580D01*
X98101523Y-69844579D01*
X98224432Y-69681821D01*
X98224432Y-69681819D01*
X98224434Y-69681818D01*
X98286751Y-69556667D01*
X98315341Y-69499250D01*
X98371156Y-69303083D01*
X98389974Y-69100000D01*
X98371156Y-68896917D01*
X98315341Y-68700750D01*
X98280020Y-68629815D01*
X98224434Y-68518181D01*
X98101522Y-68355419D01*
X97950800Y-68218018D01*
X97777397Y-68110652D01*
X97587216Y-68036976D01*
X97507571Y-68022088D01*
X97386735Y-67999500D01*
X97182783Y-67999500D01*
X97082543Y-68018238D01*
X96982301Y-68036976D01*
X96792120Y-68110652D01*
X96618717Y-68218018D01*
X96467995Y-68355419D01*
X96345083Y-68518181D01*
X96254177Y-68700748D01*
X96198361Y-68896916D01*
X96179544Y-69100000D01*
X90431037Y-69100000D01*
X91253892Y-68277144D01*
X91273743Y-68261024D01*
X91282836Y-68255084D01*
X91302280Y-68230101D01*
X91312453Y-68218584D01*
X91312520Y-68218518D01*
X91324619Y-68201570D01*
X91327641Y-68197515D01*
X91359809Y-68156189D01*
X91359810Y-68156185D01*
X91364666Y-68149947D01*
X91364753Y-68149778D01*
X91367008Y-68142200D01*
X91367010Y-68142199D01*
X91381951Y-68092009D01*
X91383479Y-68087238D01*
X91400500Y-68037660D01*
X91400500Y-68037655D01*
X91403060Y-68030199D01*
X91403093Y-68029970D01*
X91402767Y-68022090D01*
X91402768Y-68022088D01*
X91400605Y-67969806D01*
X91400500Y-67964684D01*
X91400500Y-67767980D01*
X91420185Y-67700941D01*
X91450865Y-67668211D01*
X91461313Y-67660500D01*
X91477154Y-67648808D01*
X91542781Y-67624837D01*
X91580462Y-67628180D01*
X91671015Y-67650500D01*
X91671016Y-67650500D01*
X91828985Y-67650500D01*
X91982365Y-67612696D01*
X92087968Y-67557270D01*
X92156473Y-67543545D01*
X92221526Y-67569037D01*
X92262471Y-67625652D01*
X92269592Y-67667067D01*
X92269592Y-68000000D01*
X92289033Y-68097738D01*
X92289033Y-68097739D01*
X92289034Y-68097740D01*
X92344399Y-68180601D01*
X92427260Y-68235966D01*
X92476130Y-68245687D01*
X92524999Y-68255408D01*
X92525000Y-68255408D01*
X93671974Y-68255408D01*
X93675000Y-68255408D01*
X93718972Y-68251099D01*
X93724567Y-68250552D01*
X93771241Y-68231276D01*
X93840718Y-68223879D01*
X93864163Y-68233360D01*
X93877258Y-68235965D01*
X93877260Y-68235966D01*
X93950588Y-68250552D01*
X93974999Y-68255408D01*
X93975000Y-68255408D01*
X94975001Y-68255408D01*
X95007580Y-68248927D01*
X95072740Y-68235966D01*
X95155601Y-68180601D01*
X95210966Y-68097740D01*
X95230408Y-68000000D01*
X95230408Y-67767567D01*
X95250093Y-67700528D01*
X95302897Y-67654773D01*
X95316079Y-67649639D01*
X95334505Y-67643653D01*
X95353414Y-67639112D01*
X95375304Y-67635646D01*
X95395042Y-67625587D01*
X95413016Y-67618142D01*
X95434090Y-67611296D01*
X95452021Y-67598267D01*
X95468598Y-67588109D01*
X95488342Y-67578050D01*
X95496674Y-67569717D01*
X95496680Y-67569713D01*
X96069713Y-66996681D01*
X96069716Y-66996674D01*
X96078050Y-66988342D01*
X96078050Y-66988341D01*
X96083440Y-66982952D01*
X96144764Y-66949469D01*
X96214456Y-66954456D01*
X96270388Y-66996329D01*
X96282118Y-67015365D01*
X96345083Y-67141818D01*
X96467995Y-67304580D01*
X96618717Y-67441981D01*
X96788317Y-67546992D01*
X96792122Y-67549348D01*
X96982303Y-67623024D01*
X97182783Y-67660500D01*
X97182785Y-67660500D01*
X97386733Y-67660500D01*
X97386735Y-67660500D01*
X97587215Y-67623024D01*
X97777396Y-67549348D01*
X97950800Y-67441981D01*
X98041059Y-67359699D01*
X98101522Y-67304580D01*
X98138655Y-67255408D01*
X98224432Y-67141821D01*
X98224432Y-67141819D01*
X98224434Y-67141818D01*
X98270072Y-67050161D01*
X98315341Y-66959250D01*
X98371156Y-66763083D01*
X98389974Y-66560000D01*
X98371156Y-66356917D01*
X98369179Y-66349970D01*
X98327081Y-66202011D01*
X98315341Y-66160750D01*
X98291704Y-66113280D01*
X98224434Y-65978181D01*
X98101522Y-65815419D01*
X97950800Y-65678018D01*
X97777397Y-65570652D01*
X97587216Y-65496976D01*
X97520388Y-65484484D01*
X97386735Y-65459500D01*
X97182783Y-65459500D01*
X97082543Y-65478238D01*
X96982301Y-65496976D01*
X96792120Y-65570652D01*
X96618717Y-65678018D01*
X96467995Y-65815419D01*
X96373454Y-65940613D01*
X96317345Y-65982249D01*
X96247633Y-65986940D01*
X96186451Y-65953198D01*
X96153224Y-65891735D01*
X96150500Y-65865886D01*
X96150500Y-64714113D01*
X96170185Y-64647074D01*
X96222989Y-64601319D01*
X96292147Y-64591375D01*
X96355703Y-64620400D01*
X96373454Y-64639387D01*
X96467993Y-64764578D01*
X96618717Y-64901981D01*
X96792120Y-65009347D01*
X96792122Y-65009348D01*
X96982303Y-65083024D01*
X97182783Y-65120500D01*
X97182785Y-65120500D01*
X97386733Y-65120500D01*
X97386735Y-65120500D01*
X97587215Y-65083024D01*
X97777396Y-65009348D01*
X97950800Y-64901981D01*
X98055518Y-64806518D01*
X98101522Y-64764580D01*
X98101524Y-64764578D01*
X98224432Y-64601821D01*
X98224432Y-64601819D01*
X98224434Y-64601818D01*
X98279877Y-64490472D01*
X98315341Y-64419250D01*
X98371156Y-64223083D01*
X98389974Y-64020000D01*
X98371156Y-63816917D01*
X98371155Y-63816915D01*
X98332370Y-63680600D01*
X98315341Y-63620750D01*
X98314968Y-63620001D01*
X98224434Y-63438181D01*
X98101522Y-63275419D01*
X97950800Y-63138018D01*
X97777397Y-63030652D01*
X97587216Y-62956976D01*
X97520388Y-62944484D01*
X97386735Y-62919500D01*
X97182783Y-62919500D01*
X97103519Y-62934317D01*
X96982301Y-62956976D01*
X96792120Y-63030652D01*
X96618717Y-63138018D01*
X96467995Y-63275419D01*
X96373454Y-63400613D01*
X96317345Y-63442249D01*
X96247633Y-63446940D01*
X96186451Y-63413198D01*
X96153224Y-63351735D01*
X96150500Y-63325886D01*
X96150500Y-62967254D01*
X96170185Y-62900215D01*
X96186819Y-62879573D01*
X96383404Y-62682988D01*
X96602192Y-62464199D01*
X96663513Y-62430716D01*
X96733204Y-62435700D01*
X96755146Y-62446453D01*
X96792122Y-62469348D01*
X96982303Y-62543024D01*
X97182783Y-62580500D01*
X97182785Y-62580500D01*
X97386733Y-62580500D01*
X97386735Y-62580500D01*
X97587215Y-62543024D01*
X97777396Y-62469348D01*
X97950800Y-62361981D01*
X98018432Y-62300326D01*
X98101522Y-62224580D01*
X98101523Y-62224579D01*
X98224432Y-62061821D01*
X98224432Y-62061819D01*
X98224434Y-62061818D01*
X98304549Y-61900923D01*
X98315341Y-61879250D01*
X98371156Y-61683083D01*
X98389974Y-61480000D01*
X98371156Y-61276917D01*
X98315341Y-61080750D01*
X98314968Y-61080001D01*
X98224434Y-60898181D01*
X98101522Y-60735419D01*
X97950800Y-60598018D01*
X97777397Y-60490652D01*
X97587216Y-60416976D01*
X97520388Y-60404484D01*
X97386735Y-60379500D01*
X97182783Y-60379500D01*
X97082543Y-60398238D01*
X96982301Y-60416976D01*
X96792120Y-60490652D01*
X96618717Y-60598018D01*
X96467995Y-60735419D01*
X96373454Y-60860613D01*
X96317345Y-60902249D01*
X96247633Y-60906940D01*
X96186451Y-60873198D01*
X96153224Y-60811735D01*
X96150500Y-60785886D01*
X96150500Y-60692013D01*
X96170185Y-60624974D01*
X96186815Y-60604336D01*
X96785215Y-60005935D01*
X96846536Y-59972452D01*
X96916227Y-59977436D01*
X96917514Y-59977924D01*
X96982303Y-60003024D01*
X97182783Y-60040500D01*
X97182785Y-60040500D01*
X97386733Y-60040500D01*
X97386735Y-60040500D01*
X97587215Y-60003024D01*
X97777396Y-59929348D01*
X97950800Y-59821981D01*
X98101523Y-59684579D01*
X98224432Y-59521821D01*
X98224432Y-59521819D01*
X98224434Y-59521818D01*
X98280020Y-59410185D01*
X98315341Y-59339250D01*
X98371156Y-59143083D01*
X98389974Y-58940000D01*
X98371156Y-58736917D01*
X98315341Y-58540750D01*
X98313324Y-58536699D01*
X98224434Y-58358181D01*
X98101522Y-58195419D01*
X97950800Y-58058018D01*
X97777397Y-57950652D01*
X97587216Y-57876976D01*
X97505928Y-57861781D01*
X97386735Y-57839500D01*
X97182783Y-57839500D01*
X96982303Y-57876976D01*
X96947658Y-57890397D01*
X96795026Y-57949526D01*
X96725403Y-57955387D01*
X96663663Y-57922677D01*
X96629408Y-57861781D01*
X96633515Y-57792032D01*
X96662550Y-57746221D01*
X96905288Y-57503482D01*
X96966609Y-57469999D01*
X97015748Y-57469276D01*
X97182783Y-57500500D01*
X97182785Y-57500500D01*
X97386733Y-57500500D01*
X97386735Y-57500500D01*
X97587215Y-57463024D01*
X97777396Y-57389348D01*
X97950800Y-57281981D01*
X98101523Y-57144579D01*
X98224432Y-56981821D01*
X98224432Y-56981819D01*
X98224434Y-56981818D01*
X98306399Y-56817208D01*
X98315341Y-56799250D01*
X98371156Y-56603083D01*
X98389974Y-56400000D01*
X98371156Y-56196917D01*
X98369232Y-56190156D01*
X98348959Y-56118904D01*
X98315341Y-56000750D01*
X98302543Y-55975048D01*
X98224434Y-55818181D01*
X98101522Y-55655419D01*
X97950800Y-55518018D01*
X97777397Y-55410652D01*
X97587216Y-55336976D01*
X97520388Y-55324484D01*
X97386735Y-55299500D01*
X97182783Y-55299500D01*
X97082543Y-55318237D01*
X96982301Y-55336976D01*
X96792120Y-55410652D01*
X96618717Y-55518018D01*
X96467995Y-55655419D01*
X96345083Y-55818181D01*
X96254177Y-56000748D01*
X96198361Y-56196916D01*
X96179544Y-56400000D01*
X96198361Y-56603083D01*
X96254176Y-56799250D01*
X96288391Y-56867964D01*
X96300651Y-56936750D01*
X96273777Y-57001244D01*
X96265071Y-57010915D01*
X95442089Y-57833897D01*
X95380766Y-57867382D01*
X95311074Y-57862398D01*
X95255141Y-57820526D01*
X95230724Y-57755062D01*
X95230408Y-57746216D01*
X95230408Y-56499999D01*
X95210966Y-56402261D01*
X95210966Y-56402260D01*
X95155601Y-56319399D01*
X95072740Y-56264034D01*
X95072739Y-56264033D01*
X95072738Y-56264033D01*
X94975308Y-56244653D01*
X94913397Y-56212268D01*
X94878823Y-56151552D01*
X94875500Y-56123036D01*
X94875500Y-55492253D01*
X94895185Y-55425214D01*
X94911814Y-55404577D01*
X95972578Y-54343814D01*
X96033901Y-54310329D01*
X96103593Y-54315313D01*
X96159526Y-54357185D01*
X96183943Y-54422649D01*
X96184259Y-54431495D01*
X96184259Y-54734674D01*
X96198792Y-54807738D01*
X96198792Y-54807739D01*
X96198793Y-54807740D01*
X96254158Y-54890601D01*
X96337019Y-54945966D01*
X96373552Y-54953233D01*
X96410084Y-54960500D01*
X96410085Y-54960500D01*
X98159434Y-54960500D01*
X98183788Y-54955655D01*
X98232499Y-54945966D01*
X98315360Y-54890601D01*
X98370725Y-54807740D01*
X98385259Y-54734674D01*
X98385259Y-52985326D01*
X98377971Y-52948692D01*
X98384199Y-52879100D01*
X98427062Y-52823923D01*
X98492951Y-52800678D01*
X98499589Y-52800500D01*
X105767504Y-52800500D01*
X105834543Y-52820185D01*
G37*
%TD.AperFunction*%
%TA.AperFunction,Conductor*%
G36*
X96402999Y-73300185D02*
G01*
X96448754Y-73352989D01*
X96458698Y-73422147D01*
X96434914Y-73479227D01*
X96345083Y-73598181D01*
X96254177Y-73780748D01*
X96198361Y-73976916D01*
X96183675Y-74135417D01*
X96179544Y-74180000D01*
X96181139Y-74197221D01*
X96198361Y-74383083D01*
X96254177Y-74579251D01*
X96345083Y-74761818D01*
X96434914Y-74880773D01*
X96459606Y-74946135D01*
X96445041Y-75014469D01*
X96395843Y-75064082D01*
X96335960Y-75079500D01*
X92550604Y-75079500D01*
X92483565Y-75059815D01*
X92437810Y-75007011D01*
X92427283Y-74968462D01*
X92424066Y-74937853D01*
X92410262Y-74806518D01*
X92350144Y-74621492D01*
X92274500Y-74490472D01*
X92252870Y-74453007D01*
X92122691Y-74308429D01*
X91965300Y-74194078D01*
X91783822Y-74113280D01*
X91730585Y-74068030D01*
X91710263Y-74001181D01*
X91729308Y-73933957D01*
X91781674Y-73887701D01*
X91783822Y-73886720D01*
X91796245Y-73881189D01*
X91965299Y-73805922D01*
X92118256Y-73694792D01*
X92122691Y-73691570D01*
X92132569Y-73680600D01*
X92252870Y-73546992D01*
X92350144Y-73378508D01*
X92354149Y-73366183D01*
X92393585Y-73308507D01*
X92457944Y-73281308D01*
X92472080Y-73280500D01*
X96335960Y-73280500D01*
X96402999Y-73300185D01*
G37*
%TD.AperFunction*%
%TA.AperFunction,Conductor*%
G36*
X124015469Y-51520185D02*
G01*
X124036111Y-51536819D01*
X124963181Y-52463888D01*
X124996666Y-52525211D01*
X124999500Y-52551569D01*
X124999500Y-103448429D01*
X124979815Y-103515468D01*
X124963181Y-103536110D01*
X124036111Y-104463181D01*
X123974788Y-104496666D01*
X123948430Y-104499500D01*
X86051569Y-104499500D01*
X85984530Y-104479815D01*
X85963888Y-104463181D01*
X85036819Y-103536111D01*
X85003334Y-103474788D01*
X85000500Y-103448430D01*
X85000500Y-99499999D01*
X88345287Y-99499999D01*
X88364096Y-99702992D01*
X88419885Y-99899068D01*
X88510753Y-100081556D01*
X88573379Y-100164487D01*
X88573380Y-100164487D01*
X89080998Y-99656869D01*
X89122359Y-99738045D01*
X89211955Y-99827641D01*
X89293128Y-99869001D01*
X88782321Y-100379809D01*
X88784262Y-100381579D01*
X88957588Y-100488899D01*
X89147679Y-100562540D01*
X89348072Y-100600000D01*
X89551928Y-100600000D01*
X89752320Y-100562540D01*
X89942415Y-100488897D01*
X90035680Y-100431150D01*
X90103040Y-100412593D01*
X90169740Y-100433401D01*
X90214601Y-100486966D01*
X90223382Y-100556281D01*
X90193294Y-100619341D01*
X90188639Y-100624257D01*
X89899716Y-100913181D01*
X89838393Y-100946666D01*
X89812035Y-100949500D01*
X88625325Y-100949500D01*
X88552261Y-100964033D01*
X88469399Y-101019399D01*
X88414033Y-101102261D01*
X88399500Y-101175325D01*
X88399500Y-102824674D01*
X88414033Y-102897738D01*
X88414033Y-102897739D01*
X88414034Y-102897740D01*
X88469399Y-102980601D01*
X88552260Y-103035966D01*
X88588792Y-103043233D01*
X88625325Y-103050500D01*
X88625326Y-103050500D01*
X90274675Y-103050500D01*
X90299029Y-103045655D01*
X90347740Y-103035966D01*
X90430601Y-102980601D01*
X90485966Y-102897740D01*
X90500500Y-102824674D01*
X90500500Y-102120000D01*
X96179544Y-102120000D01*
X96198361Y-102323083D01*
X96254177Y-102519251D01*
X96345083Y-102701818D01*
X96467995Y-102864580D01*
X96618717Y-103001981D01*
X96792120Y-103109347D01*
X96792122Y-103109348D01*
X96982303Y-103183024D01*
X97182783Y-103220500D01*
X97182785Y-103220500D01*
X97386733Y-103220500D01*
X97386735Y-103220500D01*
X97587215Y-103183024D01*
X97777396Y-103109348D01*
X97950800Y-103001981D01*
X98101523Y-102864579D01*
X98224432Y-102701821D01*
X98224432Y-102701819D01*
X98224434Y-102701818D01*
X98270072Y-102610161D01*
X98315341Y-102519250D01*
X98371156Y-102323083D01*
X98389974Y-102120000D01*
X98389974Y-102119999D01*
X111419544Y-102119999D01*
X111438361Y-102323083D01*
X111494177Y-102519251D01*
X111585083Y-102701818D01*
X111707995Y-102864580D01*
X111858717Y-103001981D01*
X112032120Y-103109347D01*
X112032122Y-103109348D01*
X112222303Y-103183024D01*
X112422783Y-103220500D01*
X112422785Y-103220500D01*
X112626733Y-103220500D01*
X112626735Y-103220500D01*
X112827215Y-103183024D01*
X113017396Y-103109348D01*
X113190800Y-103001981D01*
X113341523Y-102864579D01*
X113464432Y-102701821D01*
X113464432Y-102701819D01*
X113464434Y-102701818D01*
X113510072Y-102610161D01*
X113555341Y-102519250D01*
X113611156Y-102323083D01*
X113629974Y-102120000D01*
X113611156Y-101916917D01*
X113555341Y-101720750D01*
X113514119Y-101637964D01*
X113464434Y-101538181D01*
X113341522Y-101375419D01*
X113190800Y-101238018D01*
X113017397Y-101130652D01*
X112827216Y-101056976D01*
X112760388Y-101044484D01*
X112626735Y-101019500D01*
X112422783Y-101019500D01*
X112322542Y-101038238D01*
X112222301Y-101056976D01*
X112032120Y-101130652D01*
X111858717Y-101238018D01*
X111707995Y-101375419D01*
X111585083Y-101538181D01*
X111494177Y-101720748D01*
X111438361Y-101916916D01*
X111419544Y-102119999D01*
X98389974Y-102119999D01*
X98371156Y-101916917D01*
X98315341Y-101720750D01*
X98274119Y-101637964D01*
X98224434Y-101538181D01*
X98101522Y-101375419D01*
X97950800Y-101238018D01*
X97777397Y-101130652D01*
X97587216Y-101056976D01*
X97520388Y-101044484D01*
X97386735Y-101019500D01*
X97182783Y-101019500D01*
X97082542Y-101038238D01*
X96982301Y-101056976D01*
X96792120Y-101130652D01*
X96618717Y-101238018D01*
X96467995Y-101375419D01*
X96345083Y-101538181D01*
X96254177Y-101720748D01*
X96198361Y-101916916D01*
X96179544Y-102120000D01*
X90500500Y-102120000D01*
X90500500Y-101637963D01*
X90520185Y-101570925D01*
X90536814Y-101550288D01*
X91395749Y-100691353D01*
X91406098Y-100682105D01*
X91433970Y-100659879D01*
X91466182Y-100612630D01*
X91468820Y-100608911D01*
X91502793Y-100562883D01*
X91502795Y-100562877D01*
X91506379Y-100558021D01*
X91508694Y-100553437D01*
X91526656Y-100495203D01*
X91527323Y-100493038D01*
X91528759Y-100488672D01*
X91547646Y-100434700D01*
X91547646Y-100434695D01*
X91549637Y-100429006D01*
X91550500Y-100423932D01*
X91550500Y-100360737D01*
X91550587Y-100356100D01*
X91551766Y-100324580D01*
X91552724Y-100298990D01*
X91552723Y-100298988D01*
X91552949Y-100292967D01*
X91550499Y-100274359D01*
X91550499Y-99587680D01*
X91550499Y-99580000D01*
X96129832Y-99580000D01*
X96149496Y-99792219D01*
X96207821Y-99997208D01*
X96302818Y-100187989D01*
X96372442Y-100280184D01*
X96839943Y-99812683D01*
X96902998Y-99910798D01*
X97011659Y-100004952D01*
X97053039Y-100023850D01*
X96581685Y-100495203D01*
X96588761Y-100501652D01*
X96769961Y-100613846D01*
X96968698Y-100690837D01*
X97178198Y-100730000D01*
X97391320Y-100730000D01*
X97600819Y-100690837D01*
X97799557Y-100613846D01*
X97980755Y-100501654D01*
X97987830Y-100495203D01*
X97516477Y-100023850D01*
X97557859Y-100004952D01*
X97666520Y-99910798D01*
X97729574Y-99812683D01*
X98197075Y-100280184D01*
X98266698Y-100187989D01*
X98361696Y-99997208D01*
X98420021Y-99792219D01*
X98439685Y-99580000D01*
X111419544Y-99580000D01*
X111438361Y-99783083D01*
X111494177Y-99979251D01*
X111585083Y-100161818D01*
X111707995Y-100324580D01*
X111858717Y-100461981D01*
X112032120Y-100569347D01*
X112032122Y-100569348D01*
X112222303Y-100643024D01*
X112422783Y-100680500D01*
X112422785Y-100680500D01*
X112626733Y-100680500D01*
X112626735Y-100680500D01*
X112827215Y-100643024D01*
X113017396Y-100569348D01*
X113190800Y-100461981D01*
X113341523Y-100324579D01*
X113464432Y-100161821D01*
X113464432Y-100161819D01*
X113464434Y-100161818D01*
X113546399Y-99997208D01*
X113555341Y-99979250D01*
X113611156Y-99783083D01*
X113629974Y-99580000D01*
X113611156Y-99376917D01*
X113610568Y-99374852D01*
X113578446Y-99261955D01*
X113555341Y-99180750D01*
X113542543Y-99155048D01*
X113464434Y-98998181D01*
X113341522Y-98835419D01*
X113190800Y-98698018D01*
X113017397Y-98590652D01*
X112827216Y-98516976D01*
X112760388Y-98504483D01*
X112626735Y-98479500D01*
X112422783Y-98479500D01*
X112322542Y-98498238D01*
X112222301Y-98516976D01*
X112032120Y-98590652D01*
X111858717Y-98698018D01*
X111707995Y-98835419D01*
X111585083Y-98998181D01*
X111494177Y-99180748D01*
X111438361Y-99376916D01*
X111419544Y-99580000D01*
X98439685Y-99580000D01*
X98420021Y-99367780D01*
X98361696Y-99162791D01*
X98266698Y-98972010D01*
X98197074Y-98879815D01*
X97729573Y-99347315D01*
X97666520Y-99249202D01*
X97557859Y-99155048D01*
X97516477Y-99136149D01*
X97987831Y-98664795D01*
X97987831Y-98664794D01*
X97980759Y-98658349D01*
X97799556Y-98546153D01*
X97600819Y-98469162D01*
X97391320Y-98430000D01*
X97178198Y-98430000D01*
X96968698Y-98469162D01*
X96769960Y-98546153D01*
X96588760Y-98658347D01*
X96581685Y-98664794D01*
X96581685Y-98664795D01*
X97053040Y-99136149D01*
X97011659Y-99155048D01*
X96902998Y-99249202D01*
X96839944Y-99347316D01*
X96372442Y-98879814D01*
X96302817Y-98972011D01*
X96207821Y-99162791D01*
X96149496Y-99367780D01*
X96129832Y-99580000D01*
X91550499Y-99580000D01*
X91550499Y-98882243D01*
X91551277Y-98868397D01*
X91555270Y-98832965D01*
X91544635Y-98776761D01*
X91543864Y-98772220D01*
X91534448Y-98709744D01*
X91532842Y-98704861D01*
X91511665Y-98664795D01*
X91503296Y-98648961D01*
X91501241Y-98644892D01*
X91476425Y-98593358D01*
X91476423Y-98593356D01*
X91473807Y-98587923D01*
X91470827Y-98583723D01*
X91426165Y-98539062D01*
X91422946Y-98535721D01*
X91379958Y-98489391D01*
X91365067Y-98477964D01*
X90288361Y-97401258D01*
X90254876Y-97339935D01*
X90259860Y-97270243D01*
X90276273Y-97239942D01*
X90276667Y-97239406D01*
X90277793Y-97237882D01*
X90322646Y-97109699D01*
X90325500Y-97079266D01*
X90674500Y-97079266D01*
X90674769Y-97082139D01*
X90674770Y-97082151D01*
X90677353Y-97109696D01*
X90722207Y-97237884D01*
X90802849Y-97347150D01*
X90912115Y-97427792D01*
X90912118Y-97427793D01*
X91040301Y-97472646D01*
X91070734Y-97475500D01*
X91073627Y-97475500D01*
X91576373Y-97475500D01*
X91579266Y-97475500D01*
X91609699Y-97472646D01*
X91679238Y-97448313D01*
X91749018Y-97444751D01*
X91802417Y-97472536D01*
X91877760Y-97539283D01*
X92017635Y-97612696D01*
X92171015Y-97650500D01*
X92328985Y-97650500D01*
X92482365Y-97612696D01*
X92587968Y-97557270D01*
X92656473Y-97543545D01*
X92721526Y-97569037D01*
X92762471Y-97625652D01*
X92769592Y-97667067D01*
X92769592Y-97750000D01*
X92789033Y-97847738D01*
X92789033Y-97847739D01*
X92789034Y-97847740D01*
X92844399Y-97930601D01*
X92927260Y-97985966D01*
X92976130Y-97995687D01*
X93024999Y-98005408D01*
X93025000Y-98005408D01*
X94171974Y-98005408D01*
X94175000Y-98005408D01*
X94218972Y-98001099D01*
X94224567Y-98000552D01*
X94271241Y-97981276D01*
X94340718Y-97973879D01*
X94364163Y-97983360D01*
X94377258Y-97985965D01*
X94377260Y-97985966D01*
X94450588Y-98000552D01*
X94474999Y-98005408D01*
X94475000Y-98005408D01*
X95475001Y-98005408D01*
X95507579Y-97998927D01*
X95572740Y-97985966D01*
X95655601Y-97930601D01*
X95710966Y-97847740D01*
X95730408Y-97750000D01*
X95730408Y-97040000D01*
X96179544Y-97040000D01*
X96198361Y-97243083D01*
X96254177Y-97439251D01*
X96345083Y-97621818D01*
X96467995Y-97784580D01*
X96618717Y-97921981D01*
X96752979Y-98005112D01*
X96792122Y-98029348D01*
X96982303Y-98103024D01*
X97182783Y-98140500D01*
X97182785Y-98140500D01*
X97386733Y-98140500D01*
X97386735Y-98140500D01*
X97587215Y-98103024D01*
X97777396Y-98029348D01*
X97950800Y-97921981D01*
X98032241Y-97847738D01*
X98101522Y-97784580D01*
X98135724Y-97739289D01*
X98224432Y-97621821D01*
X98224432Y-97621819D01*
X98224434Y-97621818D01*
X98285990Y-97498195D01*
X98315341Y-97439250D01*
X98371156Y-97243083D01*
X98389974Y-97040000D01*
X111419544Y-97040000D01*
X111438361Y-97243083D01*
X111494177Y-97439251D01*
X111585083Y-97621818D01*
X111707995Y-97784580D01*
X111858717Y-97921981D01*
X111992979Y-98005112D01*
X112032122Y-98029348D01*
X112222303Y-98103024D01*
X112422783Y-98140500D01*
X112422785Y-98140500D01*
X112626733Y-98140500D01*
X112626735Y-98140500D01*
X112827215Y-98103024D01*
X113017396Y-98029348D01*
X113190800Y-97921981D01*
X113272241Y-97847738D01*
X113341522Y-97784580D01*
X113375724Y-97739289D01*
X113464432Y-97621821D01*
X113464432Y-97621819D01*
X113464434Y-97621818D01*
X113525990Y-97498195D01*
X113555341Y-97439250D01*
X113611156Y-97243083D01*
X113629974Y-97040000D01*
X113611156Y-96836917D01*
X113555341Y-96640750D01*
X113532798Y-96595477D01*
X113464434Y-96458181D01*
X113341522Y-96295419D01*
X113190800Y-96158018D01*
X113017397Y-96050652D01*
X112827216Y-95976976D01*
X112727162Y-95958273D01*
X112626735Y-95939500D01*
X112422783Y-95939500D01*
X112343449Y-95954330D01*
X112222301Y-95976976D01*
X112032120Y-96050652D01*
X111858717Y-96158018D01*
X111707995Y-96295419D01*
X111585083Y-96458181D01*
X111494177Y-96640748D01*
X111438361Y-96836916D01*
X111419544Y-97040000D01*
X98389974Y-97040000D01*
X98371156Y-96836917D01*
X98315341Y-96640750D01*
X98292798Y-96595477D01*
X98224434Y-96458181D01*
X98101522Y-96295419D01*
X97950800Y-96158018D01*
X97777397Y-96050652D01*
X97587216Y-95976976D01*
X97487162Y-95958273D01*
X97386735Y-95939500D01*
X97182783Y-95939500D01*
X97103449Y-95954330D01*
X96982301Y-95976976D01*
X96792120Y-96050652D01*
X96618717Y-96158018D01*
X96467995Y-96295419D01*
X96345083Y-96458181D01*
X96254177Y-96640748D01*
X96198361Y-96836916D01*
X96179544Y-97040000D01*
X95730408Y-97040000D01*
X95730408Y-96637345D01*
X95750093Y-96570307D01*
X95766722Y-96549669D01*
X96760161Y-95556230D01*
X96821482Y-95522747D01*
X96891173Y-95527731D01*
X96892633Y-95528286D01*
X96906621Y-95533705D01*
X96982303Y-95563024D01*
X97182783Y-95600500D01*
X97182785Y-95600500D01*
X97386733Y-95600500D01*
X97386735Y-95600500D01*
X97587215Y-95563024D01*
X97777396Y-95489348D01*
X97950800Y-95381981D01*
X98067056Y-95276000D01*
X98101522Y-95244580D01*
X98101523Y-95244579D01*
X98224432Y-95081821D01*
X98224432Y-95081819D01*
X98224434Y-95081818D01*
X98305309Y-94919397D01*
X98315341Y-94899250D01*
X98371156Y-94703083D01*
X98389974Y-94500000D01*
X98389974Y-94499999D01*
X111419544Y-94499999D01*
X111438361Y-94703083D01*
X111494177Y-94899251D01*
X111585083Y-95081818D01*
X111707995Y-95244580D01*
X111858717Y-95381981D01*
X112032120Y-95489347D01*
X112032122Y-95489348D01*
X112222303Y-95563024D01*
X112422783Y-95600500D01*
X112422785Y-95600500D01*
X112626733Y-95600500D01*
X112626735Y-95600500D01*
X112827215Y-95563024D01*
X113017396Y-95489348D01*
X113190800Y-95381981D01*
X113307056Y-95276000D01*
X113341522Y-95244580D01*
X113341523Y-95244579D01*
X113464432Y-95081821D01*
X113464432Y-95081819D01*
X113464434Y-95081818D01*
X113545309Y-94919397D01*
X113555341Y-94899250D01*
X113611156Y-94703083D01*
X113629974Y-94500000D01*
X113612115Y-94307271D01*
X113611156Y-94296916D01*
X113569496Y-94150500D01*
X113555341Y-94100750D01*
X113543203Y-94076373D01*
X113464434Y-93918181D01*
X113341522Y-93755419D01*
X113190800Y-93618018D01*
X113017397Y-93510652D01*
X112827216Y-93436976D01*
X112740327Y-93420734D01*
X112626735Y-93399500D01*
X112422783Y-93399500D01*
X112324629Y-93417848D01*
X112222301Y-93436976D01*
X112032120Y-93510652D01*
X111858717Y-93618018D01*
X111707995Y-93755419D01*
X111585083Y-93918181D01*
X111494177Y-94100748D01*
X111438361Y-94296916D01*
X111419544Y-94499999D01*
X98389974Y-94499999D01*
X98372115Y-94307271D01*
X98371156Y-94296916D01*
X98329496Y-94150500D01*
X98315341Y-94100750D01*
X98303203Y-94076373D01*
X98224434Y-93918181D01*
X98101522Y-93755419D01*
X97950800Y-93618018D01*
X97777397Y-93510652D01*
X97587216Y-93436976D01*
X97500327Y-93420734D01*
X97386735Y-93399500D01*
X97182783Y-93399500D01*
X97084629Y-93417848D01*
X96982301Y-93436976D01*
X96792120Y-93510652D01*
X96618717Y-93618018D01*
X96467995Y-93755419D01*
X96345083Y-93918181D01*
X96254177Y-94100748D01*
X96198361Y-94296916D01*
X96179544Y-94499999D01*
X96198361Y-94703083D01*
X96240919Y-94852655D01*
X96240333Y-94922523D01*
X96209334Y-94974271D01*
X95225334Y-95958273D01*
X95164011Y-95991758D01*
X95137653Y-95994592D01*
X94475000Y-95994592D01*
X94471973Y-95994891D01*
X94471947Y-95994893D01*
X94424911Y-95999551D01*
X94378999Y-96018625D01*
X94309537Y-96026167D01*
X94285974Y-96016666D01*
X94175001Y-95994592D01*
X94175000Y-95994592D01*
X93025000Y-95994592D01*
X93024999Y-95994592D01*
X92927261Y-96014033D01*
X92844399Y-96069399D01*
X92789033Y-96152261D01*
X92769592Y-96249999D01*
X92769592Y-96332932D01*
X92749907Y-96399971D01*
X92697103Y-96445726D01*
X92627945Y-96455670D01*
X92587965Y-96442728D01*
X92482364Y-96387303D01*
X92328985Y-96349500D01*
X92171015Y-96349500D01*
X92084728Y-96370767D01*
X92014926Y-96367697D01*
X91957864Y-96327377D01*
X91938012Y-96291323D01*
X91936605Y-96287303D01*
X91927793Y-96262118D01*
X91927792Y-96262115D01*
X91847150Y-96152849D01*
X91737884Y-96072207D01*
X91609696Y-96027353D01*
X91582151Y-96024770D01*
X91582139Y-96024769D01*
X91579266Y-96024500D01*
X91070734Y-96024500D01*
X91067861Y-96024769D01*
X91067848Y-96024770D01*
X91040303Y-96027353D01*
X90912115Y-96072207D01*
X90802849Y-96152849D01*
X90722207Y-96262115D01*
X90677353Y-96390303D01*
X90674770Y-96417848D01*
X90674769Y-96417861D01*
X90674500Y-96420734D01*
X90674500Y-97079266D01*
X90325500Y-97079266D01*
X90325500Y-96420734D01*
X90322646Y-96390301D01*
X90277793Y-96262118D01*
X90277792Y-96262115D01*
X90197151Y-96152850D01*
X90175866Y-96137141D01*
X90133615Y-96081493D01*
X90125500Y-96037371D01*
X90125500Y-94462627D01*
X90145185Y-94395588D01*
X90175863Y-94362859D01*
X90197150Y-94347150D01*
X90277793Y-94237882D01*
X90322646Y-94109699D01*
X90325500Y-94079266D01*
X90674500Y-94079266D01*
X90674769Y-94082139D01*
X90674770Y-94082151D01*
X90677353Y-94109696D01*
X90722207Y-94237884D01*
X90802849Y-94347150D01*
X90912115Y-94427792D01*
X90912118Y-94427793D01*
X91040301Y-94472646D01*
X91070734Y-94475500D01*
X91073627Y-94475500D01*
X91576373Y-94475500D01*
X91579266Y-94475500D01*
X91609699Y-94472646D01*
X91737882Y-94427793D01*
X91843203Y-94350062D01*
X91908831Y-94326092D01*
X91974462Y-94340036D01*
X92017635Y-94362696D01*
X92171015Y-94400500D01*
X92328985Y-94400500D01*
X92482365Y-94362696D01*
X92587968Y-94307270D01*
X92656473Y-94293545D01*
X92721526Y-94319037D01*
X92762471Y-94375652D01*
X92769592Y-94417067D01*
X92769592Y-94500000D01*
X92789033Y-94597738D01*
X92789033Y-94597739D01*
X92789034Y-94597740D01*
X92844399Y-94680601D01*
X92927260Y-94735966D01*
X92976130Y-94745687D01*
X93024999Y-94755408D01*
X93025000Y-94755408D01*
X94171974Y-94755408D01*
X94175000Y-94755408D01*
X94218972Y-94751099D01*
X94224567Y-94750552D01*
X94271241Y-94731276D01*
X94340718Y-94723879D01*
X94364163Y-94733360D01*
X94377258Y-94735965D01*
X94377260Y-94735966D01*
X94450588Y-94750552D01*
X94474999Y-94755408D01*
X94475000Y-94755408D01*
X95475001Y-94755408D01*
X95507580Y-94748927D01*
X95572740Y-94735966D01*
X95655601Y-94680601D01*
X95710966Y-94597740D01*
X95730408Y-94500000D01*
X95730408Y-93387345D01*
X95750093Y-93320306D01*
X95766722Y-93299669D01*
X96328730Y-92737661D01*
X96390051Y-92704178D01*
X96459743Y-92709162D01*
X96499947Y-92733707D01*
X96618717Y-92841981D01*
X96792120Y-92949347D01*
X96792122Y-92949348D01*
X96982303Y-93023024D01*
X97182783Y-93060500D01*
X97182785Y-93060500D01*
X97386733Y-93060500D01*
X97386735Y-93060500D01*
X97587215Y-93023024D01*
X97777396Y-92949348D01*
X97950800Y-92841981D01*
X98101523Y-92704579D01*
X98224432Y-92541821D01*
X98224432Y-92541819D01*
X98224434Y-92541818D01*
X98279187Y-92431858D01*
X98315341Y-92359250D01*
X98371156Y-92163083D01*
X98389974Y-91960000D01*
X111419544Y-91960000D01*
X111438361Y-92163083D01*
X111494177Y-92359251D01*
X111585083Y-92541818D01*
X111707995Y-92704580D01*
X111858717Y-92841981D01*
X112032120Y-92949347D01*
X112032122Y-92949348D01*
X112222303Y-93023024D01*
X112422783Y-93060500D01*
X112422785Y-93060500D01*
X112626733Y-93060500D01*
X112626735Y-93060500D01*
X112827215Y-93023024D01*
X113017396Y-92949348D01*
X113159659Y-92861262D01*
X113227017Y-92842706D01*
X113293717Y-92863514D01*
X113312616Y-92879008D01*
X113471950Y-93038342D01*
X113561658Y-93128050D01*
X113581395Y-93138106D01*
X113597990Y-93148276D01*
X113615908Y-93161295D01*
X113615909Y-93161295D01*
X113615910Y-93161296D01*
X113636979Y-93168141D01*
X113654949Y-93175584D01*
X113674696Y-93185646D01*
X113692197Y-93194563D01*
X113691194Y-93196531D01*
X113728118Y-93214032D01*
X113765053Y-93273341D01*
X113769592Y-93306582D01*
X113769592Y-93550000D01*
X113789033Y-93647738D01*
X113789033Y-93647739D01*
X113789034Y-93647740D01*
X113844399Y-93730601D01*
X113927260Y-93785966D01*
X113976130Y-93795687D01*
X114024999Y-93805408D01*
X114025000Y-93805408D01*
X115021948Y-93805408D01*
X115025000Y-93805408D01*
X115028047Y-93805106D01*
X115028052Y-93805106D01*
X115075087Y-93800449D01*
X115075089Y-93800448D01*
X115075090Y-93800448D01*
X115121000Y-93781374D01*
X115190461Y-93773833D01*
X115214025Y-93783333D01*
X115227259Y-93785965D01*
X115227260Y-93785966D01*
X115282691Y-93796992D01*
X115324999Y-93805408D01*
X115325000Y-93805408D01*
X116475001Y-93805408D01*
X116517309Y-93796992D01*
X116572740Y-93785966D01*
X116655601Y-93730601D01*
X116710966Y-93647740D01*
X116730408Y-93550000D01*
X116730408Y-93324500D01*
X116750093Y-93257461D01*
X116802897Y-93211706D01*
X116854408Y-93200500D01*
X118372745Y-93200500D01*
X118439784Y-93220185D01*
X118460426Y-93236819D01*
X118911426Y-93687819D01*
X118944911Y-93749142D01*
X118939927Y-93818834D01*
X118898055Y-93874767D01*
X118832591Y-93899184D01*
X118823745Y-93899500D01*
X117375325Y-93899500D01*
X117302261Y-93914033D01*
X117219399Y-93969399D01*
X117164033Y-94052261D01*
X117149500Y-94125325D01*
X117149500Y-95874674D01*
X117164033Y-95947738D01*
X117164033Y-95947739D01*
X117164034Y-95947740D01*
X117219399Y-96030601D01*
X117302260Y-96085966D01*
X117338792Y-96093233D01*
X117375325Y-96100500D01*
X117375326Y-96100500D01*
X119124675Y-96100500D01*
X119149029Y-96095655D01*
X119197740Y-96085966D01*
X119280601Y-96030601D01*
X119335966Y-95947740D01*
X119350500Y-95874674D01*
X119350500Y-94426253D01*
X119370185Y-94359215D01*
X119422989Y-94313460D01*
X119492147Y-94303516D01*
X119555703Y-94332541D01*
X119562153Y-94338546D01*
X119722276Y-94498669D01*
X119755759Y-94559990D01*
X119753859Y-94620282D01*
X119703603Y-94796914D01*
X119684785Y-94999999D01*
X119703602Y-95203083D01*
X119759418Y-95399251D01*
X119850324Y-95581818D01*
X119973236Y-95744580D01*
X120123958Y-95881981D01*
X120277381Y-95976976D01*
X120297363Y-95989348D01*
X120487544Y-96063024D01*
X120688024Y-96100500D01*
X120688026Y-96100500D01*
X120891974Y-96100500D01*
X120891976Y-96100500D01*
X121092456Y-96063024D01*
X121282637Y-95989348D01*
X121456041Y-95881981D01*
X121545424Y-95800498D01*
X121606763Y-95744580D01*
X121676255Y-95652558D01*
X121729673Y-95581821D01*
X121729673Y-95581819D01*
X121729675Y-95581818D01*
X121811640Y-95417208D01*
X121820582Y-95399250D01*
X121876397Y-95203083D01*
X121895215Y-95000000D01*
X121881316Y-94849999D01*
X122188972Y-94849999D01*
X122188973Y-94850000D01*
X122852935Y-94850000D01*
X122830000Y-94928111D01*
X122830000Y-95071889D01*
X122852935Y-95150000D01*
X122188973Y-95150000D01*
X122194738Y-95212218D01*
X122253062Y-95417208D01*
X122348058Y-95607988D01*
X122476497Y-95778067D01*
X122634003Y-95921654D01*
X122815201Y-96033846D01*
X123013939Y-96110837D01*
X123180000Y-96141879D01*
X123180000Y-95481170D01*
X123187685Y-95484680D01*
X123294237Y-95500000D01*
X123365763Y-95500000D01*
X123472315Y-95484680D01*
X123480000Y-95481170D01*
X123480000Y-96141879D01*
X123646060Y-96110837D01*
X123844798Y-96033846D01*
X124025996Y-95921654D01*
X124183502Y-95778067D01*
X124311941Y-95607988D01*
X124406937Y-95417208D01*
X124465261Y-95212218D01*
X124471027Y-95150000D01*
X123807065Y-95150000D01*
X123830000Y-95071889D01*
X123830000Y-94928111D01*
X123807065Y-94850000D01*
X124471027Y-94850000D01*
X124471027Y-94849999D01*
X124465261Y-94787781D01*
X124406937Y-94582791D01*
X124311941Y-94392011D01*
X124183502Y-94221932D01*
X124025996Y-94078345D01*
X123844798Y-93966153D01*
X123646061Y-93889162D01*
X123480000Y-93858119D01*
X123480000Y-94518829D01*
X123472315Y-94515320D01*
X123365763Y-94500000D01*
X123294237Y-94500000D01*
X123187685Y-94515320D01*
X123179999Y-94518829D01*
X123180000Y-93858119D01*
X123013938Y-93889162D01*
X122815201Y-93966153D01*
X122634003Y-94078345D01*
X122476497Y-94221932D01*
X122348058Y-94392011D01*
X122253062Y-94582791D01*
X122194738Y-94787781D01*
X122188972Y-94849999D01*
X121881316Y-94849999D01*
X121876397Y-94796917D01*
X121874473Y-94790156D01*
X121849699Y-94703083D01*
X121820582Y-94600750D01*
X121798914Y-94557235D01*
X121729675Y-94418181D01*
X121606763Y-94255419D01*
X121456041Y-94118018D01*
X121282638Y-94010652D01*
X121092457Y-93936976D01*
X120969726Y-93914034D01*
X120891976Y-93899500D01*
X120688024Y-93899500D01*
X120610279Y-93914033D01*
X120487542Y-93936976D01*
X120422926Y-93962008D01*
X120353303Y-93967868D01*
X120291563Y-93935157D01*
X120290454Y-93934061D01*
X118844690Y-92488296D01*
X118844675Y-92488283D01*
X118828342Y-92471950D01*
X118828341Y-92471949D01*
X118828339Y-92471947D01*
X118808599Y-92461889D01*
X118792014Y-92451726D01*
X118774090Y-92438704D01*
X118753020Y-92431858D01*
X118735044Y-92424412D01*
X118715302Y-92414353D01*
X118693418Y-92410886D01*
X118674507Y-92406346D01*
X118653435Y-92399500D01*
X118653433Y-92399500D01*
X118621519Y-92399500D01*
X116854408Y-92399500D01*
X116787369Y-92379815D01*
X116741614Y-92327011D01*
X116730408Y-92275500D01*
X116730408Y-92049999D01*
X116718120Y-91988227D01*
X116710966Y-91952260D01*
X116655601Y-91869399D01*
X116572740Y-91814034D01*
X116572739Y-91814033D01*
X116572738Y-91814033D01*
X116475001Y-91794592D01*
X116475000Y-91794592D01*
X115325000Y-91794592D01*
X115321992Y-91794886D01*
X115321985Y-91794887D01*
X115275433Y-91799447D01*
X115228758Y-91818724D01*
X115159281Y-91826119D01*
X115135839Y-91816639D01*
X115025001Y-91794592D01*
X115025000Y-91794592D01*
X114025000Y-91794592D01*
X114024999Y-91794592D01*
X113927261Y-91814033D01*
X113844395Y-91869401D01*
X113843017Y-91871465D01*
X113789404Y-91916269D01*
X113720079Y-91924975D01*
X113657052Y-91894818D01*
X113620334Y-91835374D01*
X113616447Y-91814017D01*
X113611156Y-91756917D01*
X113611156Y-91756916D01*
X113611156Y-91756915D01*
X113574620Y-91628507D01*
X113555341Y-91560750D01*
X113554968Y-91560001D01*
X113464434Y-91378181D01*
X113341522Y-91215419D01*
X113190800Y-91078018D01*
X113017397Y-90970652D01*
X112827216Y-90896976D01*
X112760388Y-90884484D01*
X112626735Y-90859500D01*
X112422783Y-90859500D01*
X112322543Y-90878238D01*
X112222301Y-90896976D01*
X112032120Y-90970652D01*
X111858717Y-91078018D01*
X111707995Y-91215419D01*
X111585083Y-91378181D01*
X111494177Y-91560748D01*
X111438361Y-91756916D01*
X111419544Y-91960000D01*
X98389974Y-91960000D01*
X98371156Y-91756917D01*
X98371155Y-91756915D01*
X98334620Y-91628507D01*
X98315341Y-91560750D01*
X98314968Y-91560001D01*
X98224434Y-91378181D01*
X98101522Y-91215419D01*
X97950800Y-91078018D01*
X97777397Y-90970652D01*
X97587216Y-90896976D01*
X97520388Y-90884484D01*
X97386735Y-90859500D01*
X97182783Y-90859500D01*
X97082543Y-90878238D01*
X96982301Y-90896976D01*
X96792120Y-90970652D01*
X96618717Y-91078018D01*
X96467995Y-91215419D01*
X96345083Y-91378181D01*
X96254177Y-91560748D01*
X96215792Y-91695653D01*
X96184207Y-91749399D01*
X95225334Y-92708273D01*
X95164011Y-92741758D01*
X95137653Y-92744592D01*
X94475000Y-92744592D01*
X94471973Y-92744891D01*
X94471947Y-92744893D01*
X94424911Y-92749551D01*
X94378999Y-92768625D01*
X94309537Y-92776167D01*
X94285974Y-92766666D01*
X94175001Y-92744592D01*
X94175000Y-92744592D01*
X93025000Y-92744592D01*
X93024999Y-92744592D01*
X92927261Y-92764033D01*
X92844399Y-92819399D01*
X92789033Y-92902261D01*
X92769592Y-92999999D01*
X92769592Y-93082932D01*
X92749907Y-93149971D01*
X92697103Y-93195726D01*
X92627945Y-93205670D01*
X92587965Y-93192728D01*
X92482364Y-93137303D01*
X92328985Y-93099500D01*
X92171015Y-93099500D01*
X92017634Y-93137303D01*
X91974460Y-93159963D01*
X91905951Y-93173687D01*
X91843202Y-93149936D01*
X91737882Y-93072207D01*
X91609699Y-93027354D01*
X91609698Y-93027353D01*
X91609696Y-93027353D01*
X91582151Y-93024770D01*
X91582139Y-93024769D01*
X91579266Y-93024500D01*
X91070734Y-93024500D01*
X91067861Y-93024769D01*
X91067848Y-93024770D01*
X91040303Y-93027353D01*
X90912115Y-93072207D01*
X90802849Y-93152849D01*
X90722207Y-93262115D01*
X90677353Y-93390303D01*
X90674770Y-93417848D01*
X90674769Y-93417861D01*
X90674500Y-93420734D01*
X90674500Y-94079266D01*
X90325500Y-94079266D01*
X90325500Y-93420734D01*
X90322646Y-93390301D01*
X90277793Y-93262118D01*
X90277792Y-93262115D01*
X90197151Y-93152850D01*
X90175866Y-93137141D01*
X90133615Y-93081493D01*
X90125500Y-93037371D01*
X90125500Y-91462627D01*
X90145185Y-91395588D01*
X90175863Y-91362859D01*
X90197150Y-91347150D01*
X90277793Y-91237882D01*
X90322646Y-91109699D01*
X90325500Y-91079266D01*
X90674500Y-91079266D01*
X90674769Y-91082139D01*
X90674770Y-91082151D01*
X90677353Y-91109696D01*
X90722207Y-91237884D01*
X90802849Y-91347150D01*
X90912115Y-91427792D01*
X90912118Y-91427793D01*
X91040301Y-91472646D01*
X91070734Y-91475500D01*
X91073627Y-91475500D01*
X91576373Y-91475500D01*
X91579266Y-91475500D01*
X91609699Y-91472646D01*
X91737882Y-91427793D01*
X91737882Y-91427792D01*
X91737884Y-91427792D01*
X91847149Y-91347151D01*
X91850097Y-91343157D01*
X91903400Y-91270933D01*
X91959045Y-91228683D01*
X92028701Y-91223224D01*
X92085392Y-91251749D01*
X92127760Y-91289283D01*
X92267635Y-91362696D01*
X92421015Y-91400500D01*
X92578985Y-91400500D01*
X92615917Y-91391397D01*
X92685716Y-91394464D01*
X92742779Y-91434783D01*
X92764535Y-91488553D01*
X92767209Y-91488022D01*
X92789033Y-91597738D01*
X92789033Y-91597739D01*
X92789034Y-91597740D01*
X92844399Y-91680601D01*
X92927260Y-91735966D01*
X92976130Y-91745687D01*
X93024999Y-91755408D01*
X93025000Y-91755408D01*
X94171974Y-91755408D01*
X94175000Y-91755408D01*
X94218972Y-91751099D01*
X94224567Y-91750552D01*
X94271241Y-91731276D01*
X94340718Y-91723879D01*
X94364163Y-91733360D01*
X94377258Y-91735965D01*
X94377260Y-91735966D01*
X94450588Y-91750552D01*
X94474999Y-91755408D01*
X94475000Y-91755408D01*
X95475001Y-91755408D01*
X95507580Y-91748927D01*
X95572740Y-91735966D01*
X95655601Y-91680601D01*
X95710966Y-91597740D01*
X95730408Y-91500000D01*
X95730408Y-91137347D01*
X95750093Y-91070308D01*
X95766727Y-91049666D01*
X96113386Y-90703007D01*
X96484847Y-90331544D01*
X96546170Y-90298060D01*
X96615861Y-90303044D01*
X96637800Y-90313796D01*
X96792122Y-90409348D01*
X96982303Y-90483024D01*
X97182783Y-90520500D01*
X97182785Y-90520500D01*
X97386733Y-90520500D01*
X97386735Y-90520500D01*
X97587215Y-90483024D01*
X97777396Y-90409348D01*
X97950800Y-90301981D01*
X98050912Y-90210717D01*
X98101522Y-90164580D01*
X98103905Y-90161425D01*
X98224432Y-90001821D01*
X98224432Y-90001819D01*
X98224434Y-90001818D01*
X98289526Y-89871094D01*
X98315341Y-89819250D01*
X98371156Y-89623083D01*
X98389974Y-89420000D01*
X98389974Y-89419999D01*
X111419544Y-89419999D01*
X111438361Y-89623083D01*
X111494177Y-89819251D01*
X111585083Y-90001818D01*
X111707995Y-90164580D01*
X111858717Y-90301981D01*
X112001363Y-90390303D01*
X112032122Y-90409348D01*
X112222303Y-90483024D01*
X112422783Y-90520500D01*
X112422785Y-90520500D01*
X112626733Y-90520500D01*
X112626735Y-90520500D01*
X112827215Y-90483024D01*
X113017396Y-90409348D01*
X113190800Y-90301981D01*
X113290912Y-90210717D01*
X113341522Y-90164580D01*
X113343905Y-90161425D01*
X113464432Y-90001821D01*
X113484592Y-89961333D01*
X113532091Y-89910099D01*
X113599754Y-89892676D01*
X113666095Y-89914600D01*
X113710051Y-89968910D01*
X113719591Y-90016605D01*
X113719591Y-90250000D01*
X113739033Y-90347738D01*
X113739033Y-90347739D01*
X113739034Y-90347740D01*
X113794399Y-90430601D01*
X113877260Y-90485966D01*
X113926129Y-90495687D01*
X113974999Y-90505408D01*
X113975000Y-90505408D01*
X114971948Y-90505408D01*
X114975000Y-90505408D01*
X114978047Y-90505106D01*
X114978052Y-90505106D01*
X115025087Y-90500449D01*
X115025089Y-90500448D01*
X115025090Y-90500448D01*
X115071000Y-90481374D01*
X115140461Y-90473833D01*
X115164025Y-90483333D01*
X115177259Y-90485965D01*
X115177260Y-90485966D01*
X115232761Y-90497006D01*
X115274999Y-90505408D01*
X115275000Y-90505408D01*
X116087653Y-90505408D01*
X116154692Y-90525093D01*
X116175334Y-90541727D01*
X116747770Y-91114163D01*
X116747776Y-91114168D01*
X116761658Y-91128050D01*
X116779904Y-91137347D01*
X116781394Y-91138106D01*
X116797982Y-91148271D01*
X116815910Y-91161296D01*
X116836979Y-91168141D01*
X116854958Y-91175588D01*
X116874696Y-91185646D01*
X116896580Y-91189112D01*
X116915494Y-91193653D01*
X116936567Y-91200500D01*
X119553433Y-91200500D01*
X119574499Y-91193655D01*
X119593414Y-91189112D01*
X119615304Y-91185646D01*
X119635042Y-91175587D01*
X119653016Y-91168142D01*
X119674090Y-91161296D01*
X119692021Y-91148267D01*
X119708598Y-91138109D01*
X119728342Y-91128050D01*
X119736674Y-91119717D01*
X119736680Y-91119713D01*
X119806727Y-91049666D01*
X120290456Y-90565935D01*
X120351777Y-90532452D01*
X120421468Y-90537436D01*
X120422755Y-90537924D01*
X120487544Y-90563024D01*
X120688024Y-90600500D01*
X120688026Y-90600500D01*
X120891974Y-90600500D01*
X120891976Y-90600500D01*
X121092456Y-90563024D01*
X121282637Y-90489348D01*
X121456041Y-90381981D01*
X121599522Y-90251181D01*
X121606763Y-90244580D01*
X121606764Y-90244579D01*
X121729673Y-90081821D01*
X121729673Y-90081819D01*
X121729675Y-90081818D01*
X121785896Y-89968910D01*
X121820582Y-89899250D01*
X121876397Y-89703083D01*
X121895215Y-89500000D01*
X121881316Y-89349999D01*
X122188972Y-89349999D01*
X122188973Y-89350000D01*
X122852935Y-89350000D01*
X122830000Y-89428111D01*
X122830000Y-89571889D01*
X122852935Y-89650000D01*
X122188973Y-89650000D01*
X122194738Y-89712218D01*
X122253062Y-89917208D01*
X122348058Y-90107988D01*
X122476497Y-90278067D01*
X122634003Y-90421654D01*
X122815201Y-90533846D01*
X123013939Y-90610837D01*
X123180000Y-90641879D01*
X123180000Y-89981170D01*
X123187685Y-89984680D01*
X123294237Y-90000000D01*
X123365763Y-90000000D01*
X123472315Y-89984680D01*
X123480000Y-89981170D01*
X123480000Y-90641879D01*
X123646060Y-90610837D01*
X123844798Y-90533846D01*
X124025996Y-90421654D01*
X124183502Y-90278067D01*
X124311941Y-90107988D01*
X124406937Y-89917208D01*
X124465261Y-89712218D01*
X124471027Y-89650000D01*
X123807065Y-89650000D01*
X123830000Y-89571889D01*
X123830000Y-89428111D01*
X123807065Y-89350000D01*
X124471027Y-89350000D01*
X124471027Y-89349999D01*
X124465261Y-89287781D01*
X124406937Y-89082791D01*
X124311941Y-88892011D01*
X124183502Y-88721932D01*
X124025996Y-88578345D01*
X123844798Y-88466153D01*
X123646061Y-88389162D01*
X123480000Y-88358119D01*
X123480000Y-89018829D01*
X123472315Y-89015320D01*
X123365763Y-89000000D01*
X123294237Y-89000000D01*
X123187685Y-89015320D01*
X123179999Y-89018829D01*
X123180000Y-88358119D01*
X123013938Y-88389162D01*
X122815201Y-88466153D01*
X122634003Y-88578345D01*
X122476497Y-88721932D01*
X122348058Y-88892011D01*
X122253062Y-89082791D01*
X122194738Y-89287781D01*
X122188972Y-89349999D01*
X121881316Y-89349999D01*
X121876397Y-89296917D01*
X121874473Y-89290156D01*
X121853634Y-89216916D01*
X121820582Y-89100750D01*
X121780125Y-89019500D01*
X121729675Y-88918181D01*
X121606763Y-88755419D01*
X121456041Y-88618018D01*
X121282638Y-88510652D01*
X121092457Y-88436976D01*
X120969726Y-88414034D01*
X120891976Y-88399500D01*
X120688024Y-88399500D01*
X120621599Y-88411917D01*
X120487542Y-88436976D01*
X120297361Y-88510652D01*
X120123958Y-88618018D01*
X119973236Y-88755419D01*
X119850324Y-88918181D01*
X119759418Y-89100748D01*
X119703602Y-89296916D01*
X119684785Y-89499999D01*
X119703603Y-89703085D01*
X119753859Y-89879716D01*
X119753273Y-89949583D01*
X119722274Y-90001331D01*
X119566765Y-90156842D01*
X119562182Y-90161425D01*
X119500858Y-90194910D01*
X119431167Y-90189926D01*
X119375233Y-90148055D01*
X119350816Y-90082590D01*
X119350500Y-90073744D01*
X119350500Y-89349999D01*
X119350500Y-88625326D01*
X119335966Y-88552260D01*
X119280601Y-88469399D01*
X119197740Y-88414034D01*
X119197739Y-88414033D01*
X119197738Y-88414033D01*
X119124675Y-88399500D01*
X119124674Y-88399500D01*
X117375326Y-88399500D01*
X117375325Y-88399500D01*
X117302261Y-88414033D01*
X117219399Y-88469399D01*
X117164033Y-88552261D01*
X117149500Y-88625325D01*
X117149500Y-90083745D01*
X117129815Y-90150784D01*
X117077011Y-90196539D01*
X117007853Y-90206483D01*
X116944297Y-90177458D01*
X116937819Y-90171426D01*
X116716726Y-89950333D01*
X116683241Y-89889010D01*
X116680407Y-89862652D01*
X116680407Y-89349999D01*
X116680408Y-88750000D01*
X116660966Y-88652260D01*
X116605601Y-88569399D01*
X116522740Y-88514034D01*
X116522739Y-88514033D01*
X116522738Y-88514033D01*
X116425001Y-88494592D01*
X116425000Y-88494592D01*
X115275000Y-88494592D01*
X115271992Y-88494886D01*
X115271985Y-88494887D01*
X115225433Y-88499447D01*
X115178758Y-88518724D01*
X115109281Y-88526119D01*
X115085839Y-88516639D01*
X114975001Y-88494592D01*
X114975000Y-88494592D01*
X113975000Y-88494592D01*
X113974999Y-88494592D01*
X113877261Y-88514033D01*
X113794399Y-88569399D01*
X113739033Y-88652261D01*
X113719592Y-88749999D01*
X113719592Y-88823393D01*
X113699907Y-88890432D01*
X113647103Y-88936187D01*
X113577945Y-88946131D01*
X113514389Y-88917106D01*
X113484592Y-88878665D01*
X113464432Y-88838179D01*
X113341522Y-88675419D01*
X113190800Y-88538018D01*
X113017397Y-88430652D01*
X112827216Y-88356976D01*
X112753289Y-88343157D01*
X112626735Y-88319500D01*
X112422783Y-88319500D01*
X112322543Y-88338238D01*
X112222301Y-88356976D01*
X112032120Y-88430652D01*
X111858717Y-88538018D01*
X111707995Y-88675419D01*
X111585083Y-88838181D01*
X111494177Y-89020748D01*
X111438361Y-89216916D01*
X111419544Y-89419999D01*
X98389974Y-89419999D01*
X98371156Y-89216917D01*
X98315341Y-89020750D01*
X98305009Y-89000000D01*
X98224434Y-88838181D01*
X98101522Y-88675419D01*
X97950800Y-88538018D01*
X97777397Y-88430652D01*
X97587216Y-88356976D01*
X97513289Y-88343157D01*
X97386735Y-88319500D01*
X97182783Y-88319500D01*
X97082543Y-88338238D01*
X96982301Y-88356976D01*
X96792120Y-88430652D01*
X96618717Y-88538018D01*
X96467995Y-88675419D01*
X96345083Y-88838181D01*
X96254177Y-89020748D01*
X96198361Y-89216916D01*
X96179544Y-89419998D01*
X96181302Y-89438977D01*
X96167884Y-89507546D01*
X96145511Y-89538094D01*
X95845996Y-89837609D01*
X95784673Y-89871094D01*
X95714981Y-89866110D01*
X95659048Y-89824238D01*
X95655645Y-89819429D01*
X95655601Y-89819400D01*
X95655601Y-89819399D01*
X95572740Y-89764034D01*
X95572739Y-89764033D01*
X95572738Y-89764033D01*
X95475001Y-89744592D01*
X95475000Y-89744592D01*
X94475000Y-89744592D01*
X94471973Y-89744891D01*
X94471947Y-89744893D01*
X94424911Y-89749551D01*
X94378999Y-89768625D01*
X94309537Y-89776167D01*
X94285974Y-89766666D01*
X94175001Y-89744592D01*
X94175000Y-89744592D01*
X93025000Y-89744592D01*
X93024999Y-89744592D01*
X92927261Y-89764033D01*
X92844399Y-89819399D01*
X92789033Y-89902261D01*
X92767209Y-90011978D01*
X92762890Y-90011119D01*
X92749746Y-90055493D01*
X92696833Y-90101122D01*
X92627651Y-90110900D01*
X92615918Y-90108602D01*
X92578987Y-90099500D01*
X92578985Y-90099500D01*
X92421015Y-90099500D01*
X92267635Y-90137303D01*
X92191129Y-90177458D01*
X92127760Y-90210717D01*
X92085395Y-90248249D01*
X92022161Y-90277969D01*
X91952898Y-90268785D01*
X91903400Y-90229066D01*
X91847150Y-90152850D01*
X91847149Y-90152849D01*
X91847148Y-90152847D01*
X91737884Y-90072207D01*
X91609696Y-90027353D01*
X91582151Y-90024770D01*
X91582139Y-90024769D01*
X91579266Y-90024500D01*
X91070734Y-90024500D01*
X91067861Y-90024769D01*
X91067848Y-90024770D01*
X91040303Y-90027353D01*
X90912115Y-90072207D01*
X90802849Y-90152849D01*
X90722207Y-90262115D01*
X90677353Y-90390303D01*
X90674770Y-90417848D01*
X90674769Y-90417861D01*
X90674500Y-90420734D01*
X90674500Y-91079266D01*
X90325500Y-91079266D01*
X90325500Y-90420734D01*
X90322646Y-90390301D01*
X90277793Y-90262118D01*
X90277792Y-90262115D01*
X90197151Y-90152850D01*
X90175866Y-90137141D01*
X90133615Y-90081493D01*
X90125500Y-90037371D01*
X90125500Y-88462627D01*
X90145185Y-88395588D01*
X90175863Y-88362859D01*
X90197150Y-88347150D01*
X90277793Y-88237882D01*
X90322646Y-88109699D01*
X90325500Y-88079266D01*
X90674500Y-88079266D01*
X90674769Y-88082139D01*
X90674770Y-88082151D01*
X90677353Y-88109696D01*
X90722207Y-88237884D01*
X90802849Y-88347150D01*
X90912115Y-88427792D01*
X90912118Y-88427793D01*
X91040301Y-88472646D01*
X91070734Y-88475500D01*
X91073627Y-88475500D01*
X91576373Y-88475500D01*
X91579266Y-88475500D01*
X91609699Y-88472646D01*
X91737882Y-88427793D01*
X91737882Y-88427792D01*
X91737884Y-88427792D01*
X91847149Y-88347151D01*
X91863866Y-88324500D01*
X91903400Y-88270933D01*
X91959045Y-88228683D01*
X92028701Y-88223224D01*
X92085392Y-88251749D01*
X92127760Y-88289283D01*
X92267635Y-88362696D01*
X92421015Y-88400500D01*
X92578985Y-88400500D01*
X92615917Y-88391397D01*
X92685716Y-88394464D01*
X92742779Y-88434783D01*
X92764535Y-88488553D01*
X92767209Y-88488022D01*
X92789033Y-88597738D01*
X92789033Y-88597739D01*
X92789034Y-88597740D01*
X92844399Y-88680601D01*
X92927260Y-88735966D01*
X92976130Y-88745687D01*
X93024999Y-88755408D01*
X93025000Y-88755408D01*
X94171974Y-88755408D01*
X94175000Y-88755408D01*
X94218972Y-88751099D01*
X94224567Y-88750552D01*
X94271241Y-88731276D01*
X94340718Y-88723879D01*
X94364163Y-88733360D01*
X94377258Y-88735965D01*
X94377260Y-88735966D01*
X94447808Y-88749999D01*
X94474999Y-88755408D01*
X94475000Y-88755408D01*
X95475001Y-88755408D01*
X95507580Y-88748927D01*
X95572740Y-88735966D01*
X95655601Y-88680601D01*
X95710966Y-88597740D01*
X95730408Y-88500000D01*
X95730407Y-87887345D01*
X95750093Y-87820307D01*
X95766727Y-87799665D01*
X95941813Y-87624579D01*
X96143273Y-87423118D01*
X96204594Y-87389635D01*
X96274285Y-87394619D01*
X96330219Y-87436490D01*
X96341951Y-87455526D01*
X96345085Y-87461820D01*
X96467995Y-87624580D01*
X96618717Y-87761981D01*
X96791466Y-87868942D01*
X96792122Y-87869348D01*
X96982303Y-87943024D01*
X97182783Y-87980500D01*
X97182785Y-87980500D01*
X97386733Y-87980500D01*
X97386735Y-87980500D01*
X97587215Y-87943024D01*
X97777396Y-87869348D01*
X97950800Y-87761981D01*
X98101523Y-87624579D01*
X98224432Y-87461821D01*
X98224432Y-87461819D01*
X98224434Y-87461818D01*
X98280496Y-87349229D01*
X98315341Y-87279250D01*
X98371156Y-87083083D01*
X98389974Y-86880000D01*
X98371156Y-86676917D01*
X98369614Y-86671499D01*
X98331477Y-86537461D01*
X98315341Y-86480750D01*
X98304372Y-86458721D01*
X98224434Y-86298181D01*
X98101522Y-86135419D01*
X97950800Y-85998018D01*
X97777397Y-85890652D01*
X97587216Y-85816976D01*
X97480309Y-85796992D01*
X97386735Y-85779500D01*
X97182783Y-85779500D01*
X97089209Y-85796992D01*
X96982301Y-85816976D01*
X96792120Y-85890652D01*
X96618717Y-85998018D01*
X96467995Y-86135419D01*
X96345087Y-86298177D01*
X96345086Y-86298178D01*
X96345086Y-86298179D01*
X96289020Y-86410773D01*
X96241520Y-86462008D01*
X96178022Y-86479500D01*
X96056567Y-86479500D01*
X96035491Y-86486347D01*
X96016580Y-86490887D01*
X95994693Y-86494354D01*
X95974952Y-86504412D01*
X95956987Y-86511854D01*
X95935910Y-86518703D01*
X95917982Y-86531728D01*
X95901402Y-86541888D01*
X95881658Y-86551948D01*
X95861400Y-86572207D01*
X95859094Y-86574513D01*
X95859091Y-86574516D01*
X95700371Y-86733234D01*
X95639050Y-86766718D01*
X95588500Y-86767169D01*
X95475001Y-86744592D01*
X95475000Y-86744592D01*
X94475000Y-86744592D01*
X94471973Y-86744891D01*
X94471947Y-86744893D01*
X94424911Y-86749551D01*
X94378999Y-86768625D01*
X94309537Y-86776167D01*
X94285974Y-86766666D01*
X94175001Y-86744592D01*
X94175000Y-86744592D01*
X93025000Y-86744592D01*
X93024999Y-86744592D01*
X92927261Y-86764033D01*
X92844399Y-86819399D01*
X92789033Y-86902261D01*
X92767209Y-87011978D01*
X92762890Y-87011119D01*
X92749746Y-87055493D01*
X92696833Y-87101122D01*
X92627651Y-87110900D01*
X92615918Y-87108602D01*
X92578987Y-87099500D01*
X92578985Y-87099500D01*
X92421015Y-87099500D01*
X92267635Y-87137303D01*
X92175905Y-87185448D01*
X92127760Y-87210717D01*
X92085519Y-87248139D01*
X92085395Y-87248249D01*
X92022161Y-87277969D01*
X91952898Y-87268785D01*
X91903400Y-87229066D01*
X91847150Y-87152850D01*
X91847149Y-87152849D01*
X91847148Y-87152847D01*
X91737884Y-87072207D01*
X91609696Y-87027353D01*
X91582151Y-87024770D01*
X91582139Y-87024769D01*
X91579266Y-87024500D01*
X91070734Y-87024500D01*
X91067861Y-87024769D01*
X91067848Y-87024770D01*
X91040303Y-87027353D01*
X90912115Y-87072207D01*
X90802849Y-87152849D01*
X90722207Y-87262115D01*
X90677353Y-87390303D01*
X90674770Y-87417848D01*
X90674769Y-87417861D01*
X90674500Y-87420734D01*
X90674500Y-88079266D01*
X90325500Y-88079266D01*
X90325500Y-87420734D01*
X90322646Y-87390301D01*
X90280126Y-87268785D01*
X90277792Y-87262115D01*
X90197150Y-87152849D01*
X90087884Y-87072207D01*
X89959696Y-87027353D01*
X89932151Y-87024770D01*
X89932139Y-87024769D01*
X89929266Y-87024500D01*
X89420734Y-87024500D01*
X89417861Y-87024769D01*
X89417848Y-87024770D01*
X89390303Y-87027353D01*
X89262115Y-87072207D01*
X89152849Y-87152849D01*
X89072207Y-87262115D01*
X89027353Y-87390303D01*
X89024770Y-87417848D01*
X89024769Y-87417861D01*
X89024500Y-87420734D01*
X89024500Y-88079266D01*
X89024769Y-88082139D01*
X89024770Y-88082151D01*
X89027353Y-88109696D01*
X89072207Y-88237882D01*
X89152848Y-88347148D01*
X89152849Y-88347148D01*
X89152850Y-88347150D01*
X89174134Y-88362858D01*
X89216384Y-88418502D01*
X89224500Y-88462627D01*
X89224500Y-90037371D01*
X89204815Y-90104410D01*
X89174134Y-90137141D01*
X89152848Y-90152850D01*
X89072207Y-90262115D01*
X89027353Y-90390303D01*
X89024770Y-90417848D01*
X89024769Y-90417861D01*
X89024500Y-90420734D01*
X89024500Y-91079266D01*
X89024769Y-91082139D01*
X89024770Y-91082151D01*
X89027353Y-91109696D01*
X89027353Y-91109698D01*
X89027354Y-91109699D01*
X89040851Y-91148271D01*
X89072207Y-91237882D01*
X89152848Y-91347148D01*
X89152849Y-91347148D01*
X89152850Y-91347150D01*
X89174134Y-91362858D01*
X89216384Y-91418502D01*
X89224500Y-91462627D01*
X89224500Y-93037371D01*
X89204815Y-93104410D01*
X89174134Y-93137141D01*
X89152848Y-93152850D01*
X89072207Y-93262115D01*
X89027353Y-93390303D01*
X89024770Y-93417848D01*
X89024769Y-93417861D01*
X89024500Y-93420734D01*
X89024500Y-94079266D01*
X89024769Y-94082139D01*
X89024770Y-94082151D01*
X89027353Y-94109696D01*
X89072207Y-94237882D01*
X89152848Y-94347148D01*
X89152849Y-94347148D01*
X89152850Y-94347150D01*
X89174134Y-94362858D01*
X89216384Y-94418502D01*
X89224500Y-94462627D01*
X89224500Y-96037371D01*
X89204815Y-96104410D01*
X89174134Y-96137141D01*
X89152848Y-96152850D01*
X89072207Y-96262115D01*
X89027353Y-96390303D01*
X89024770Y-96417848D01*
X89024769Y-96417861D01*
X89024500Y-96420734D01*
X89024500Y-97079266D01*
X89024769Y-97082139D01*
X89024770Y-97082151D01*
X89027353Y-97109696D01*
X89072207Y-97237884D01*
X89152848Y-97347149D01*
X89170559Y-97360220D01*
X89212811Y-97415866D01*
X89218765Y-97436937D01*
X89230356Y-97498195D01*
X89231133Y-97502767D01*
X89240550Y-97565248D01*
X89242163Y-97570148D01*
X89271687Y-97626010D01*
X89273777Y-97630150D01*
X89301184Y-97687060D01*
X89304183Y-97691287D01*
X89348846Y-97735950D01*
X89352063Y-97739289D01*
X89395043Y-97785611D01*
X89409930Y-97797034D01*
X89835728Y-98222832D01*
X89869213Y-98284154D01*
X89864229Y-98353845D01*
X89822358Y-98409779D01*
X89756893Y-98434196D01*
X89725263Y-98432401D01*
X89551929Y-98400000D01*
X89348072Y-98400000D01*
X89147679Y-98437459D01*
X88957588Y-98511100D01*
X88784259Y-98618421D01*
X88782321Y-98620188D01*
X88782321Y-98620189D01*
X89293130Y-99130998D01*
X89211955Y-99172359D01*
X89122359Y-99261955D01*
X89080998Y-99343129D01*
X88573380Y-98835511D01*
X88510751Y-98918447D01*
X88419885Y-99100931D01*
X88364096Y-99297007D01*
X88345287Y-99499999D01*
X85000500Y-99499999D01*
X85000500Y-95779425D01*
X85424500Y-95779425D01*
X85431346Y-95800498D01*
X85435886Y-95819409D01*
X85439353Y-95841293D01*
X85449412Y-95861035D01*
X85456858Y-95879011D01*
X85463704Y-95900081D01*
X85476726Y-95918005D01*
X85486889Y-95934590D01*
X85496947Y-95954330D01*
X85496949Y-95954332D01*
X85496950Y-95954333D01*
X85513283Y-95970666D01*
X85513296Y-95970681D01*
X86756779Y-97214163D01*
X86756785Y-97214168D01*
X86770667Y-97228050D01*
X86790406Y-97238107D01*
X86806991Y-97248271D01*
X86824919Y-97261297D01*
X86845987Y-97268142D01*
X86863964Y-97275588D01*
X86883701Y-97285644D01*
X86883705Y-97285646D01*
X86905594Y-97289112D01*
X86924498Y-97293651D01*
X86945576Y-97300500D01*
X86977490Y-97300500D01*
X87324078Y-97300500D01*
X87391117Y-97320185D01*
X87406304Y-97331684D01*
X87409517Y-97334530D01*
X87527760Y-97439283D01*
X87667635Y-97512696D01*
X87821015Y-97550500D01*
X87978985Y-97550500D01*
X88132365Y-97512696D01*
X88272240Y-97439283D01*
X88390483Y-97334530D01*
X88480220Y-97204523D01*
X88536237Y-97056818D01*
X88555278Y-96900000D01*
X88536237Y-96743182D01*
X88480220Y-96595477D01*
X88400385Y-96479815D01*
X88390484Y-96465471D01*
X88343250Y-96423626D01*
X88272240Y-96360717D01*
X88208717Y-96327377D01*
X88132364Y-96287303D01*
X87978985Y-96249500D01*
X87821015Y-96249500D01*
X87667635Y-96287303D01*
X87527758Y-96360718D01*
X87406304Y-96468316D01*
X87343071Y-96498037D01*
X87324078Y-96499500D01*
X87226264Y-96499500D01*
X87159225Y-96479815D01*
X87138583Y-96463181D01*
X87091894Y-96416492D01*
X87058409Y-96355169D01*
X87063393Y-96285477D01*
X87105265Y-96229544D01*
X87143580Y-96210150D01*
X87324924Y-96155139D01*
X87494301Y-96064606D01*
X87642764Y-95942764D01*
X87764606Y-95794301D01*
X87855141Y-95624921D01*
X87910892Y-95441135D01*
X87914944Y-95400000D01*
X87322502Y-95400000D01*
X87335165Y-95375148D01*
X87354986Y-95250000D01*
X87335165Y-95124852D01*
X87322502Y-95100000D01*
X87914944Y-95100000D01*
X87914944Y-95099999D01*
X87910892Y-95058864D01*
X87855141Y-94875078D01*
X87764606Y-94705698D01*
X87642764Y-94557235D01*
X87494301Y-94435393D01*
X87324919Y-94344857D01*
X87311119Y-94340671D01*
X87252681Y-94302372D01*
X87224227Y-94238559D01*
X87234790Y-94169492D01*
X87281016Y-94117100D01*
X87296673Y-94108737D01*
X87415299Y-94055922D01*
X87572692Y-93941569D01*
X87702870Y-93796992D01*
X87800144Y-93628508D01*
X87860262Y-93443482D01*
X87880598Y-93250000D01*
X87860262Y-93056518D01*
X87800144Y-92871492D01*
X87794238Y-92861263D01*
X87702870Y-92703007D01*
X87572691Y-92558429D01*
X87415300Y-92444078D01*
X87233822Y-92363280D01*
X87180585Y-92318030D01*
X87160263Y-92251181D01*
X87179308Y-92183957D01*
X87231674Y-92137701D01*
X87233822Y-92136720D01*
X87291669Y-92110965D01*
X87415299Y-92055922D01*
X87572692Y-91941569D01*
X87702870Y-91796992D01*
X87800144Y-91628508D01*
X87860262Y-91443482D01*
X87880598Y-91250000D01*
X87860262Y-91056518D01*
X87800144Y-90871492D01*
X87793220Y-90859500D01*
X87702870Y-90703007D01*
X87572691Y-90558429D01*
X87415300Y-90444078D01*
X87233822Y-90363280D01*
X87180585Y-90318030D01*
X87160263Y-90251181D01*
X87179308Y-90183957D01*
X87231674Y-90137701D01*
X87233822Y-90136720D01*
X87291815Y-90110900D01*
X87415299Y-90055922D01*
X87513355Y-89984680D01*
X87572691Y-89941570D01*
X87616716Y-89892676D01*
X87702870Y-89796992D01*
X87800144Y-89628508D01*
X87860262Y-89443482D01*
X87880598Y-89250000D01*
X87860262Y-89056518D01*
X87800144Y-88871492D01*
X87733131Y-88755421D01*
X87702870Y-88703007D01*
X87572691Y-88558429D01*
X87415302Y-88444079D01*
X87233821Y-88363279D01*
X87180584Y-88318028D01*
X87160263Y-88251179D01*
X87179308Y-88183955D01*
X87231674Y-88137700D01*
X87233822Y-88136719D01*
X87237566Y-88135052D01*
X87237571Y-88135051D01*
X87415299Y-88055922D01*
X87544868Y-87961784D01*
X87572691Y-87941570D01*
X87702870Y-87796992D01*
X87717196Y-87772178D01*
X87800144Y-87628508D01*
X87860262Y-87443482D01*
X87880598Y-87250000D01*
X87860262Y-87056518D01*
X87846861Y-87015277D01*
X87844867Y-86945437D01*
X87877110Y-86889281D01*
X88329573Y-86436819D01*
X88390897Y-86403334D01*
X88417255Y-86400500D01*
X90313433Y-86400500D01*
X90334499Y-86393655D01*
X90353414Y-86389112D01*
X90375304Y-86385646D01*
X90395042Y-86375587D01*
X90413016Y-86368142D01*
X90434090Y-86361296D01*
X90452021Y-86348267D01*
X90468598Y-86338109D01*
X90488342Y-86328050D01*
X90496674Y-86319717D01*
X90496680Y-86319713D01*
X91054574Y-85761819D01*
X91115897Y-85728334D01*
X91142255Y-85725500D01*
X91576373Y-85725500D01*
X91579266Y-85725500D01*
X91609699Y-85722646D01*
X91737882Y-85677793D01*
X91780125Y-85646616D01*
X91845751Y-85622645D01*
X91913922Y-85637959D01*
X91935976Y-85653564D01*
X91977072Y-85689971D01*
X92116947Y-85763384D01*
X92270327Y-85801188D01*
X92428297Y-85801188D01*
X92581677Y-85763384D01*
X92721552Y-85689971D01*
X92721554Y-85689968D01*
X92732961Y-85683982D01*
X92801469Y-85670256D01*
X92859477Y-85690675D01*
X92927260Y-85735966D01*
X93000588Y-85750552D01*
X93024999Y-85755408D01*
X93025000Y-85755408D01*
X94171974Y-85755408D01*
X94175000Y-85755408D01*
X94218972Y-85751099D01*
X94224567Y-85750552D01*
X94271241Y-85731276D01*
X94340718Y-85723879D01*
X94364163Y-85733360D01*
X94377258Y-85735965D01*
X94377260Y-85735966D01*
X94450588Y-85750552D01*
X94474999Y-85755408D01*
X94475000Y-85755408D01*
X95475001Y-85755408D01*
X95525182Y-85745426D01*
X95572740Y-85735966D01*
X95655601Y-85680601D01*
X95710966Y-85597740D01*
X95730408Y-85500000D01*
X95730408Y-85137347D01*
X95750093Y-85070308D01*
X95766727Y-85049666D01*
X96039574Y-84776819D01*
X96100897Y-84743334D01*
X96127255Y-84740500D01*
X96178022Y-84740500D01*
X96245061Y-84760185D01*
X96289020Y-84809226D01*
X96345086Y-84921821D01*
X96345087Y-84921822D01*
X96467995Y-85084580D01*
X96618717Y-85221981D01*
X96792120Y-85329347D01*
X96792122Y-85329348D01*
X96982303Y-85403024D01*
X97182783Y-85440500D01*
X97182785Y-85440500D01*
X97386733Y-85440500D01*
X97386735Y-85440500D01*
X97587215Y-85403024D01*
X97777396Y-85329348D01*
X97950800Y-85221981D01*
X98019120Y-85159699D01*
X98101522Y-85084580D01*
X98112300Y-85070308D01*
X98224432Y-84921821D01*
X98224432Y-84921819D01*
X98224434Y-84921818D01*
X98274085Y-84822103D01*
X98315341Y-84739250D01*
X98371156Y-84543083D01*
X98389974Y-84340000D01*
X98371156Y-84136917D01*
X98315341Y-83940750D01*
X98296176Y-83902261D01*
X98224434Y-83758181D01*
X98101522Y-83595419D01*
X97950800Y-83458018D01*
X97777397Y-83350652D01*
X97587216Y-83276976D01*
X97471905Y-83255421D01*
X97386735Y-83239500D01*
X97182783Y-83239500D01*
X97097613Y-83255421D01*
X96982301Y-83276976D01*
X96792120Y-83350652D01*
X96618717Y-83458018D01*
X96467995Y-83595419D01*
X96345087Y-83758177D01*
X96345086Y-83758178D01*
X96345086Y-83758179D01*
X96289020Y-83870773D01*
X96241520Y-83922008D01*
X96178022Y-83939500D01*
X95846566Y-83939500D01*
X95844864Y-83940053D01*
X95775022Y-83942045D01*
X95715192Y-83905961D01*
X95703449Y-83891010D01*
X95689926Y-83870771D01*
X95655601Y-83819399D01*
X95572740Y-83764034D01*
X95572739Y-83764033D01*
X95572738Y-83764033D01*
X95475001Y-83744592D01*
X95475000Y-83744592D01*
X94475000Y-83744592D01*
X94471973Y-83744891D01*
X94471947Y-83744893D01*
X94424911Y-83749551D01*
X94378999Y-83768625D01*
X94309537Y-83776167D01*
X94285974Y-83766666D01*
X94175001Y-83744592D01*
X94175000Y-83744592D01*
X93025000Y-83744592D01*
X93024999Y-83744592D01*
X92927261Y-83764033D01*
X92844399Y-83819399D01*
X92789033Y-83902261D01*
X92769592Y-83999999D01*
X92769592Y-84232433D01*
X92749907Y-84299472D01*
X92697103Y-84345227D01*
X92683908Y-84350365D01*
X92665499Y-84356346D01*
X92646583Y-84360887D01*
X92624695Y-84364354D01*
X92604951Y-84374413D01*
X92586984Y-84381855D01*
X92565910Y-84388703D01*
X92547984Y-84401727D01*
X92531398Y-84411891D01*
X92511658Y-84421949D01*
X92494053Y-84439555D01*
X92489091Y-84444517D01*
X92469734Y-84463872D01*
X92408412Y-84497355D01*
X92382057Y-84500188D01*
X92270327Y-84500188D01*
X92116946Y-84537991D01*
X92088581Y-84552879D01*
X92020073Y-84566603D01*
X91955020Y-84541111D01*
X91931185Y-84516715D01*
X91927793Y-84512119D01*
X91927793Y-84512118D01*
X91847150Y-84402850D01*
X91847149Y-84402849D01*
X91847148Y-84402847D01*
X91737884Y-84322207D01*
X91615077Y-84279236D01*
X91612725Y-84277549D01*
X91611451Y-84277518D01*
X91582151Y-84274770D01*
X91582139Y-84274769D01*
X91579266Y-84274500D01*
X91070734Y-84274500D01*
X91067861Y-84274769D01*
X91067848Y-84274770D01*
X91040303Y-84277353D01*
X90912115Y-84322207D01*
X90802849Y-84402849D01*
X90722207Y-84512115D01*
X90677353Y-84640303D01*
X90674770Y-84667848D01*
X90674769Y-84667861D01*
X90674500Y-84670734D01*
X90674500Y-84673626D01*
X90674500Y-84957744D01*
X90654815Y-85024783D01*
X90638181Y-85045425D01*
X90537181Y-85146425D01*
X90475858Y-85179910D01*
X90406166Y-85174926D01*
X90350233Y-85133054D01*
X90325816Y-85067590D01*
X90325500Y-85058744D01*
X90325500Y-84673626D01*
X90325500Y-84670734D01*
X90322646Y-84640301D01*
X90277793Y-84512118D01*
X90277792Y-84512115D01*
X90197150Y-84402849D01*
X90087884Y-84322207D01*
X90033546Y-84303194D01*
X89976770Y-84262472D01*
X89951022Y-84197519D01*
X89950500Y-84186152D01*
X89950500Y-83974500D01*
X89970185Y-83907461D01*
X90022989Y-83861706D01*
X90074500Y-83850500D01*
X91280517Y-83850500D01*
X91347556Y-83870185D01*
X91362743Y-83881684D01*
X91387009Y-83903181D01*
X91427760Y-83939283D01*
X91567635Y-84012696D01*
X91597626Y-84020088D01*
X91652702Y-84033663D01*
X91661223Y-84038624D01*
X91662352Y-84038355D01*
X91685703Y-84041796D01*
X91721015Y-84050500D01*
X91721016Y-84050500D01*
X91878985Y-84050500D01*
X92032365Y-84012696D01*
X92172240Y-83939283D01*
X92290483Y-83834530D01*
X92380220Y-83704523D01*
X92436237Y-83556818D01*
X92455278Y-83400000D01*
X92436237Y-83243182D01*
X92380220Y-83095477D01*
X92293195Y-82969399D01*
X92290484Y-82965471D01*
X92270805Y-82948037D01*
X92172240Y-82860717D01*
X92112838Y-82829540D01*
X92032364Y-82787303D01*
X91878985Y-82749500D01*
X91721015Y-82749500D01*
X91567635Y-82787303D01*
X91427758Y-82860718D01*
X91362743Y-82918316D01*
X91299510Y-82948037D01*
X91280517Y-82949500D01*
X90074500Y-82949500D01*
X90007461Y-82929815D01*
X89961706Y-82877011D01*
X89950500Y-82825500D01*
X89950500Y-82563848D01*
X89970185Y-82496809D01*
X90022989Y-82451054D01*
X90033546Y-82446806D01*
X90045430Y-82442647D01*
X90087882Y-82427793D01*
X90087882Y-82427792D01*
X90087884Y-82427792D01*
X90197150Y-82347150D01*
X90277792Y-82237884D01*
X90279375Y-82233360D01*
X90322646Y-82109699D01*
X90325500Y-82079266D01*
X90674500Y-82079266D01*
X90674769Y-82082139D01*
X90674770Y-82082151D01*
X90677353Y-82109696D01*
X90722207Y-82237884D01*
X90802849Y-82347150D01*
X90912115Y-82427792D01*
X90912118Y-82427793D01*
X91040301Y-82472646D01*
X91070734Y-82475500D01*
X91073627Y-82475500D01*
X91576373Y-82475500D01*
X91579266Y-82475500D01*
X91609699Y-82472646D01*
X91737882Y-82427793D01*
X91737882Y-82427792D01*
X91737884Y-82427792D01*
X91847149Y-82347151D01*
X91863866Y-82324500D01*
X91903400Y-82270933D01*
X91959045Y-82228683D01*
X92028701Y-82223224D01*
X92085392Y-82251749D01*
X92127760Y-82289283D01*
X92267635Y-82362696D01*
X92421015Y-82400500D01*
X92578985Y-82400500D01*
X92615917Y-82391397D01*
X92685716Y-82394464D01*
X92742779Y-82434783D01*
X92764535Y-82488553D01*
X92767209Y-82488022D01*
X92789033Y-82597738D01*
X92789033Y-82597739D01*
X92789034Y-82597740D01*
X92844399Y-82680601D01*
X92927260Y-82735966D01*
X92976130Y-82745687D01*
X93024999Y-82755408D01*
X93025000Y-82755408D01*
X94171974Y-82755408D01*
X94175000Y-82755408D01*
X94218972Y-82751099D01*
X94224567Y-82750552D01*
X94271241Y-82731276D01*
X94340718Y-82723879D01*
X94364163Y-82733360D01*
X94377258Y-82735965D01*
X94377260Y-82735966D01*
X94445299Y-82749500D01*
X94474999Y-82755408D01*
X94475000Y-82755408D01*
X95475001Y-82755408D01*
X95507580Y-82748927D01*
X95572740Y-82735966D01*
X95655601Y-82680601D01*
X95710966Y-82597740D01*
X95730408Y-82500000D01*
X95730408Y-82324499D01*
X95750093Y-82257461D01*
X95802897Y-82211706D01*
X95854408Y-82200500D01*
X96178022Y-82200500D01*
X96245061Y-82220185D01*
X96289020Y-82269226D01*
X96345086Y-82381821D01*
X96354634Y-82394464D01*
X96467995Y-82544580D01*
X96618717Y-82681981D01*
X96790568Y-82788386D01*
X96792122Y-82789348D01*
X96982303Y-82863024D01*
X97182783Y-82900500D01*
X97182785Y-82900500D01*
X97386733Y-82900500D01*
X97386735Y-82900500D01*
X97587215Y-82863024D01*
X97777396Y-82789348D01*
X97950800Y-82681981D01*
X98035128Y-82605106D01*
X98101522Y-82544580D01*
X98107881Y-82536159D01*
X98224432Y-82381821D01*
X98224432Y-82381819D01*
X98224434Y-82381818D01*
X98285443Y-82259293D01*
X98315341Y-82199250D01*
X98371156Y-82003083D01*
X98389974Y-81800000D01*
X98371156Y-81596917D01*
X98315341Y-81400750D01*
X98254204Y-81277969D01*
X98224434Y-81218181D01*
X98101522Y-81055419D01*
X97950800Y-80918018D01*
X97777397Y-80810652D01*
X97587216Y-80736976D01*
X97502253Y-80721094D01*
X97386735Y-80699500D01*
X97182783Y-80699500D01*
X97120461Y-80711150D01*
X96982301Y-80736976D01*
X96792120Y-80810652D01*
X96618717Y-80918018D01*
X96467995Y-81055419D01*
X96345087Y-81218177D01*
X96345086Y-81218178D01*
X96345086Y-81218179D01*
X96289020Y-81330773D01*
X96241520Y-81382008D01*
X96178022Y-81399500D01*
X95854408Y-81399500D01*
X95787369Y-81379815D01*
X95741614Y-81327011D01*
X95730408Y-81275500D01*
X95730408Y-80999999D01*
X95714101Y-80918019D01*
X95710966Y-80902260D01*
X95655601Y-80819399D01*
X95572740Y-80764034D01*
X95572739Y-80764033D01*
X95572738Y-80764033D01*
X95475001Y-80744592D01*
X95475000Y-80744592D01*
X94475000Y-80744592D01*
X94471973Y-80744891D01*
X94471947Y-80744893D01*
X94424911Y-80749551D01*
X94378999Y-80768625D01*
X94309537Y-80776167D01*
X94285974Y-80766666D01*
X94175001Y-80744592D01*
X94175000Y-80744592D01*
X93025000Y-80744592D01*
X93024999Y-80744592D01*
X92927261Y-80764033D01*
X92844399Y-80819399D01*
X92789033Y-80902261D01*
X92767209Y-81011978D01*
X92762890Y-81011119D01*
X92749746Y-81055493D01*
X92696833Y-81101122D01*
X92627651Y-81110900D01*
X92615918Y-81108602D01*
X92578987Y-81099500D01*
X92578985Y-81099500D01*
X92421015Y-81099500D01*
X92267635Y-81137303D01*
X92186638Y-81179815D01*
X92127760Y-81210717D01*
X92085395Y-81248249D01*
X92022161Y-81277969D01*
X91952898Y-81268785D01*
X91903400Y-81229066D01*
X91847150Y-81152850D01*
X91847149Y-81152849D01*
X91847148Y-81152847D01*
X91737884Y-81072207D01*
X91609696Y-81027353D01*
X91582151Y-81024770D01*
X91582139Y-81024769D01*
X91579266Y-81024500D01*
X91070734Y-81024500D01*
X91067861Y-81024769D01*
X91067848Y-81024770D01*
X91040303Y-81027353D01*
X90912115Y-81072207D01*
X90802849Y-81152849D01*
X90722207Y-81262115D01*
X90677353Y-81390303D01*
X90674770Y-81417848D01*
X90674769Y-81417861D01*
X90674500Y-81420734D01*
X90674500Y-82079266D01*
X90325500Y-82079266D01*
X90325500Y-81420734D01*
X90322646Y-81390301D01*
X90277793Y-81262118D01*
X90277792Y-81262115D01*
X90197151Y-81152850D01*
X90175866Y-81137141D01*
X90133615Y-81081493D01*
X90125500Y-81037371D01*
X90125500Y-79962627D01*
X90145185Y-79895588D01*
X90175863Y-79862859D01*
X90197150Y-79847150D01*
X90277793Y-79737882D01*
X90322646Y-79609699D01*
X90325500Y-79579266D01*
X90325500Y-79116250D01*
X90345183Y-79049215D01*
X90397987Y-79003460D01*
X90467146Y-78993516D01*
X90530702Y-79022541D01*
X90537180Y-79028572D01*
X90638182Y-79129574D01*
X90671666Y-79190895D01*
X90674500Y-79217254D01*
X90674500Y-79579266D01*
X90674769Y-79582139D01*
X90674770Y-79582151D01*
X90677353Y-79609696D01*
X90722207Y-79737884D01*
X90802849Y-79847150D01*
X90912115Y-79927792D01*
X90912118Y-79927793D01*
X91040301Y-79972646D01*
X91070734Y-79975500D01*
X91073627Y-79975500D01*
X91576373Y-79975500D01*
X91579266Y-79975500D01*
X91609699Y-79972646D01*
X91737882Y-79927793D01*
X91737882Y-79927792D01*
X91737884Y-79927792D01*
X91847150Y-79847150D01*
X91927792Y-79737884D01*
X91937695Y-79709583D01*
X91972646Y-79609699D01*
X91975500Y-79579266D01*
X91975500Y-79392254D01*
X91995185Y-79325215D01*
X92011819Y-79304573D01*
X92129573Y-79186819D01*
X92190896Y-79153334D01*
X92217254Y-79150500D01*
X92328985Y-79150500D01*
X92482365Y-79112696D01*
X92587968Y-79057270D01*
X92656473Y-79043545D01*
X92721526Y-79069037D01*
X92762471Y-79125652D01*
X92769592Y-79167067D01*
X92769592Y-79250000D01*
X92789033Y-79347738D01*
X92789033Y-79347739D01*
X92789034Y-79347740D01*
X92844399Y-79430601D01*
X92927260Y-79485966D01*
X92976130Y-79495687D01*
X93024999Y-79505408D01*
X93025000Y-79505408D01*
X94171974Y-79505408D01*
X94175000Y-79505408D01*
X94218972Y-79501099D01*
X94224567Y-79500552D01*
X94271241Y-79481276D01*
X94340718Y-79473879D01*
X94364163Y-79483360D01*
X94377258Y-79485965D01*
X94377260Y-79485966D01*
X94450588Y-79500552D01*
X94474999Y-79505408D01*
X94475000Y-79505408D01*
X95475001Y-79505408D01*
X95507579Y-79498927D01*
X95572740Y-79485966D01*
X95655601Y-79430601D01*
X95710966Y-79347740D01*
X95730408Y-79250000D01*
X95730408Y-79060806D01*
X95750093Y-78993768D01*
X95802897Y-78948013D01*
X95872055Y-78938069D01*
X95935611Y-78967094D01*
X95942089Y-78973126D01*
X96142838Y-79173875D01*
X96176323Y-79235198D01*
X96178628Y-79250115D01*
X96198361Y-79463083D01*
X96254177Y-79659251D01*
X96345083Y-79841818D01*
X96467995Y-80004580D01*
X96618717Y-80141981D01*
X96784927Y-80244893D01*
X96792122Y-80249348D01*
X96982303Y-80323024D01*
X97182783Y-80360500D01*
X97182785Y-80360500D01*
X97386733Y-80360500D01*
X97386735Y-80360500D01*
X97587215Y-80323024D01*
X97777396Y-80249348D01*
X97950800Y-80141981D01*
X97990707Y-80105601D01*
X98101522Y-80004580D01*
X98123687Y-79975229D01*
X98224432Y-79841821D01*
X98224432Y-79841819D01*
X98224434Y-79841818D01*
X98293754Y-79702602D01*
X98315341Y-79659250D01*
X98371156Y-79463083D01*
X98389974Y-79260000D01*
X98372279Y-79069037D01*
X98371156Y-79056916D01*
X98325740Y-78897300D01*
X98315341Y-78860750D01*
X98306733Y-78843462D01*
X98224434Y-78678181D01*
X98173806Y-78611139D01*
X98142154Y-78569226D01*
X98117463Y-78503866D01*
X98132028Y-78435531D01*
X98181225Y-78385918D01*
X98241109Y-78370500D01*
X99788101Y-78370500D01*
X99855140Y-78390185D01*
X99875782Y-78406819D01*
X100788181Y-79319218D01*
X100821666Y-79380541D01*
X100824500Y-79406899D01*
X100824500Y-86148196D01*
X100821861Y-86173642D01*
X100819633Y-86184267D01*
X100823548Y-86215676D01*
X100824500Y-86231013D01*
X100824500Y-86231116D01*
X100827918Y-86251602D01*
X100828657Y-86256670D01*
X100836107Y-86316438D01*
X100836185Y-86316682D01*
X100864827Y-86369608D01*
X100867171Y-86374162D01*
X100893634Y-86428292D01*
X100893777Y-86428482D01*
X100899579Y-86433824D01*
X100899581Y-86433826D01*
X100938108Y-86469293D01*
X100941780Y-86472817D01*
X102847850Y-88378887D01*
X102863977Y-88398746D01*
X102869916Y-88407836D01*
X102877878Y-88414033D01*
X102894894Y-88427277D01*
X102906412Y-88437449D01*
X102906482Y-88437519D01*
X102915669Y-88444078D01*
X102923389Y-88449590D01*
X102927494Y-88452650D01*
X102953184Y-88472646D01*
X102975044Y-88489660D01*
X102975233Y-88489757D01*
X102982801Y-88492010D01*
X103032959Y-88506943D01*
X103037819Y-88508499D01*
X103087340Y-88525500D01*
X103087342Y-88525500D01*
X103094796Y-88528059D01*
X103095029Y-88528093D01*
X103102908Y-88527767D01*
X103102911Y-88527768D01*
X103155192Y-88525605D01*
X103160315Y-88525500D01*
X105273195Y-88525500D01*
X105298641Y-88528139D01*
X105302440Y-88528935D01*
X105309268Y-88530367D01*
X105339138Y-88526643D01*
X105340677Y-88526452D01*
X105356014Y-88525500D01*
X105356111Y-88525500D01*
X105356114Y-88525500D01*
X105376643Y-88522073D01*
X105381659Y-88521342D01*
X105433626Y-88514866D01*
X105433628Y-88514864D01*
X105441457Y-88513889D01*
X105441666Y-88513822D01*
X105448607Y-88510065D01*
X105448610Y-88510065D01*
X105494666Y-88485140D01*
X105499144Y-88482835D01*
X105546211Y-88459826D01*
X105546212Y-88459824D01*
X105553308Y-88456356D01*
X105553476Y-88456230D01*
X105558824Y-88450419D01*
X105558826Y-88450419D01*
X105594294Y-88411889D01*
X105597795Y-88408240D01*
X105994217Y-88011819D01*
X106055541Y-87978334D01*
X106081899Y-87975500D01*
X106476373Y-87975500D01*
X106479266Y-87975500D01*
X106509699Y-87972646D01*
X106637882Y-87927793D01*
X106689672Y-87889569D01*
X106755299Y-87865598D01*
X106792974Y-87868941D01*
X106921015Y-87900500D01*
X106921016Y-87900500D01*
X107078984Y-87900500D01*
X107078985Y-87900500D01*
X107165919Y-87879073D01*
X107235719Y-87882142D01*
X107292781Y-87922462D01*
X107318987Y-87987231D01*
X107319592Y-87999470D01*
X107319592Y-88350000D01*
X107339033Y-88447738D01*
X107339033Y-88447739D01*
X107339034Y-88447740D01*
X107394399Y-88530601D01*
X107477260Y-88585966D01*
X107526129Y-88595687D01*
X107574999Y-88605408D01*
X107575000Y-88605408D01*
X108721974Y-88605408D01*
X108725000Y-88605408D01*
X108768972Y-88601099D01*
X108774567Y-88600552D01*
X108821241Y-88581276D01*
X108890718Y-88573879D01*
X108914163Y-88583360D01*
X108927258Y-88585965D01*
X108927260Y-88585966D01*
X109000588Y-88600552D01*
X109024999Y-88605408D01*
X109025000Y-88605408D01*
X110025001Y-88605408D01*
X110063559Y-88597738D01*
X110122740Y-88585966D01*
X110205601Y-88530601D01*
X110260966Y-88447740D01*
X110280408Y-88350000D01*
X110280408Y-87462346D01*
X110300093Y-87395307D01*
X110316727Y-87374665D01*
X111269322Y-86422070D01*
X111330645Y-86388585D01*
X111400337Y-86393569D01*
X111456270Y-86435441D01*
X111480687Y-86500905D01*
X111476269Y-86543685D01*
X111438362Y-86676914D01*
X111419544Y-86880000D01*
X111438361Y-87083083D01*
X111494177Y-87279251D01*
X111585083Y-87461818D01*
X111707995Y-87624580D01*
X111858717Y-87761981D01*
X112031466Y-87868942D01*
X112032122Y-87869348D01*
X112222303Y-87943024D01*
X112422783Y-87980500D01*
X112422785Y-87980500D01*
X112626733Y-87980500D01*
X112626735Y-87980500D01*
X112827215Y-87943024D01*
X113017396Y-87869348D01*
X113190800Y-87761981D01*
X113341523Y-87624579D01*
X113464432Y-87461821D01*
X113520497Y-87349226D01*
X113567998Y-87297992D01*
X113631496Y-87280500D01*
X113733433Y-87280500D01*
X113754499Y-87273655D01*
X113773414Y-87269112D01*
X113795304Y-87265646D01*
X113815042Y-87255587D01*
X113833016Y-87248142D01*
X113854090Y-87241296D01*
X113872021Y-87228267D01*
X113888598Y-87218109D01*
X113908342Y-87208050D01*
X113916674Y-87199717D01*
X113916680Y-87199713D01*
X114174666Y-86941727D01*
X114235989Y-86908242D01*
X114262347Y-86905408D01*
X115146948Y-86905408D01*
X115150000Y-86905408D01*
X115153047Y-86905106D01*
X115153052Y-86905106D01*
X115200087Y-86900449D01*
X115200089Y-86900448D01*
X115200090Y-86900448D01*
X115246000Y-86881374D01*
X115315461Y-86873833D01*
X115339025Y-86883333D01*
X115352259Y-86885965D01*
X115352260Y-86885966D01*
X115410038Y-86897459D01*
X115449999Y-86905408D01*
X115450000Y-86905408D01*
X116600001Y-86905408D01*
X116632580Y-86898927D01*
X116697740Y-86885966D01*
X116780601Y-86830601D01*
X116835966Y-86747740D01*
X116855408Y-86650000D01*
X116855407Y-86424499D01*
X116875093Y-86357461D01*
X116927897Y-86311706D01*
X116979408Y-86300500D01*
X119913433Y-86300500D01*
X119934499Y-86293655D01*
X119953414Y-86289112D01*
X119975304Y-86285646D01*
X119995042Y-86275587D01*
X120013016Y-86268142D01*
X120034090Y-86261296D01*
X120052021Y-86248267D01*
X120068598Y-86238109D01*
X120088342Y-86228050D01*
X120096674Y-86219717D01*
X120096680Y-86219713D01*
X121109713Y-85206681D01*
X121109717Y-85206673D01*
X121118050Y-85198342D01*
X121128109Y-85178598D01*
X121138267Y-85162021D01*
X121151296Y-85144089D01*
X121158143Y-85123013D01*
X121165584Y-85105049D01*
X121175646Y-85085304D01*
X121175646Y-85085303D01*
X121184564Y-85067802D01*
X121187212Y-85069151D01*
X121203608Y-85034562D01*
X121251362Y-85001463D01*
X121282637Y-84989348D01*
X121456041Y-84881981D01*
X121606764Y-84744579D01*
X121729673Y-84581821D01*
X121729673Y-84581819D01*
X121729675Y-84581818D01*
X121800141Y-84440301D01*
X121820582Y-84399250D01*
X121876397Y-84203083D01*
X121895215Y-84000000D01*
X121881316Y-83849999D01*
X122188972Y-83849999D01*
X122188973Y-83850000D01*
X122852935Y-83850000D01*
X122830000Y-83928111D01*
X122830000Y-84071889D01*
X122852935Y-84150000D01*
X122188973Y-84150000D01*
X122194738Y-84212218D01*
X122253062Y-84417208D01*
X122348058Y-84607988D01*
X122476497Y-84778067D01*
X122634003Y-84921654D01*
X122815201Y-85033846D01*
X123013939Y-85110837D01*
X123180000Y-85141879D01*
X123180000Y-84481170D01*
X123187685Y-84484680D01*
X123294237Y-84500000D01*
X123365763Y-84500000D01*
X123472315Y-84484680D01*
X123480000Y-84481170D01*
X123480000Y-85141879D01*
X123646060Y-85110837D01*
X123844798Y-85033846D01*
X124025996Y-84921654D01*
X124183502Y-84778067D01*
X124311941Y-84607988D01*
X124406937Y-84417208D01*
X124465261Y-84212218D01*
X124471027Y-84150000D01*
X123807065Y-84150000D01*
X123830000Y-84071889D01*
X123830000Y-83928111D01*
X123807065Y-83850000D01*
X124471027Y-83850000D01*
X124471027Y-83849999D01*
X124465261Y-83787781D01*
X124406937Y-83582791D01*
X124311941Y-83392011D01*
X124183502Y-83221932D01*
X124025996Y-83078345D01*
X123844798Y-82966153D01*
X123646061Y-82889162D01*
X123480000Y-82858119D01*
X123480000Y-83518829D01*
X123472315Y-83515320D01*
X123365763Y-83500000D01*
X123294237Y-83500000D01*
X123187685Y-83515320D01*
X123179999Y-83518829D01*
X123180000Y-82858119D01*
X123013938Y-82889162D01*
X122815201Y-82966153D01*
X122634003Y-83078345D01*
X122476497Y-83221932D01*
X122348058Y-83392011D01*
X122253062Y-83582791D01*
X122194738Y-83787781D01*
X122188972Y-83849999D01*
X121881316Y-83849999D01*
X121876397Y-83796917D01*
X121874473Y-83790156D01*
X121840728Y-83671556D01*
X121820582Y-83600750D01*
X121819985Y-83599551D01*
X121729675Y-83418181D01*
X121606763Y-83255419D01*
X121456041Y-83118018D01*
X121282638Y-83010652D01*
X121092457Y-82936976D01*
X120969726Y-82914034D01*
X120891976Y-82899500D01*
X120688024Y-82899500D01*
X120620914Y-82912045D01*
X120487542Y-82936976D01*
X120297361Y-83010652D01*
X120123958Y-83118018D01*
X119973236Y-83255419D01*
X119850324Y-83418181D01*
X119759418Y-83600748D01*
X119703602Y-83796916D01*
X119684785Y-84000000D01*
X119703602Y-84203083D01*
X119759418Y-84399251D01*
X119850324Y-84581818D01*
X119973236Y-84744580D01*
X120120927Y-84879217D01*
X120157209Y-84938928D01*
X120155448Y-85008775D01*
X120125070Y-85058535D01*
X119720426Y-85463181D01*
X119659103Y-85496666D01*
X119632745Y-85499500D01*
X116979408Y-85499500D01*
X116912369Y-85479815D01*
X116866614Y-85427011D01*
X116855408Y-85375500D01*
X116855408Y-85287882D01*
X116855408Y-85150000D01*
X116835966Y-85052260D01*
X116780601Y-84969399D01*
X116697740Y-84914034D01*
X116697739Y-84914033D01*
X116697738Y-84914033D01*
X116600001Y-84894592D01*
X116600000Y-84894592D01*
X115450000Y-84894592D01*
X115446992Y-84894886D01*
X115446985Y-84894887D01*
X115400433Y-84899447D01*
X115353758Y-84918724D01*
X115284281Y-84926119D01*
X115260839Y-84916639D01*
X115150001Y-84894592D01*
X115150000Y-84894592D01*
X114220225Y-84894592D01*
X114153186Y-84874907D01*
X114152984Y-84874674D01*
X117149500Y-84874674D01*
X117164033Y-84947738D01*
X117164033Y-84947739D01*
X117164034Y-84947740D01*
X117219399Y-85030601D01*
X117302260Y-85085966D01*
X117338792Y-85093232D01*
X117375325Y-85100500D01*
X117375326Y-85100500D01*
X119124675Y-85100500D01*
X119149029Y-85095655D01*
X119197740Y-85085966D01*
X119280601Y-85030601D01*
X119335966Y-84947740D01*
X119350500Y-84874674D01*
X119350500Y-83125326D01*
X119335966Y-83052260D01*
X119280601Y-82969399D01*
X119197740Y-82914034D01*
X119197739Y-82914033D01*
X119197738Y-82914033D01*
X119124675Y-82899500D01*
X119124674Y-82899500D01*
X117375326Y-82899500D01*
X117375325Y-82899500D01*
X117302261Y-82914033D01*
X117219399Y-82969399D01*
X117164033Y-83052261D01*
X117149500Y-83125325D01*
X117149500Y-84874674D01*
X114152984Y-84874674D01*
X114107431Y-84822103D01*
X114097487Y-84752945D01*
X114126512Y-84689389D01*
X114135144Y-84682633D01*
X114134452Y-84681941D01*
X114148544Y-84667848D01*
X114156674Y-84659717D01*
X114156680Y-84659713D01*
X114327040Y-84489353D01*
X114830483Y-83985909D01*
X114830482Y-83985909D01*
X114853050Y-83963342D01*
X114853051Y-83963339D01*
X114857313Y-83959078D01*
X114861386Y-83946981D01*
X114863094Y-83943627D01*
X114873274Y-83927011D01*
X114886296Y-83909090D01*
X114893141Y-83888020D01*
X114900584Y-83870050D01*
X114910646Y-83850304D01*
X114914113Y-83828408D01*
X114918652Y-83809501D01*
X114925499Y-83788433D01*
X114925499Y-83766788D01*
X114925500Y-83766775D01*
X114925500Y-82729408D01*
X114945185Y-82662369D01*
X114997989Y-82616614D01*
X115049500Y-82605408D01*
X115196948Y-82605408D01*
X115200000Y-82605408D01*
X115203047Y-82605106D01*
X115203052Y-82605106D01*
X115250087Y-82600449D01*
X115250089Y-82600448D01*
X115250090Y-82600448D01*
X115296000Y-82581374D01*
X115365461Y-82573833D01*
X115389025Y-82583333D01*
X115402259Y-82585965D01*
X115402260Y-82585966D01*
X115424496Y-82590389D01*
X115499999Y-82605408D01*
X115500000Y-82605408D01*
X116650001Y-82605408D01*
X116688559Y-82597738D01*
X116747740Y-82585966D01*
X116830601Y-82530601D01*
X116885966Y-82447740D01*
X116905408Y-82350000D01*
X116905408Y-82124499D01*
X116925093Y-82057461D01*
X116977897Y-82011706D01*
X117029408Y-82000500D01*
X117753433Y-82000500D01*
X117774499Y-81993655D01*
X117793414Y-81989112D01*
X117815304Y-81985646D01*
X117835042Y-81975587D01*
X117853016Y-81968142D01*
X117874090Y-81961296D01*
X117892021Y-81948267D01*
X117908598Y-81938109D01*
X117928342Y-81928050D01*
X117936674Y-81919717D01*
X117936680Y-81919713D01*
X118676578Y-81179815D01*
X120931941Y-78924450D01*
X120993262Y-78890967D01*
X120996786Y-78890253D01*
X121142456Y-78863024D01*
X121332637Y-78789348D01*
X121506041Y-78681981D01*
X121656764Y-78544579D01*
X121779673Y-78381821D01*
X121779673Y-78381819D01*
X121779675Y-78381818D01*
X121839328Y-78262016D01*
X121870582Y-78199250D01*
X121926397Y-78003083D01*
X121945215Y-77800000D01*
X121931316Y-77649999D01*
X122238972Y-77649999D01*
X122238973Y-77650000D01*
X122902935Y-77650000D01*
X122880000Y-77728111D01*
X122880000Y-77871889D01*
X122902935Y-77950000D01*
X122238973Y-77950000D01*
X122244738Y-78012218D01*
X122303062Y-78217208D01*
X122398058Y-78407988D01*
X122526497Y-78578067D01*
X122684003Y-78721654D01*
X122865201Y-78833846D01*
X123063939Y-78910837D01*
X123230000Y-78941879D01*
X123230000Y-78281170D01*
X123237685Y-78284680D01*
X123344237Y-78300000D01*
X123415763Y-78300000D01*
X123522315Y-78284680D01*
X123530000Y-78281170D01*
X123530000Y-78941879D01*
X123696060Y-78910837D01*
X123894798Y-78833846D01*
X124075996Y-78721654D01*
X124233502Y-78578067D01*
X124361941Y-78407988D01*
X124456937Y-78217208D01*
X124515261Y-78012218D01*
X124521027Y-77950000D01*
X123857065Y-77950000D01*
X123880000Y-77871889D01*
X123880000Y-77728111D01*
X123857065Y-77650000D01*
X124521027Y-77650000D01*
X124521027Y-77649999D01*
X124515261Y-77587781D01*
X124456937Y-77382791D01*
X124361941Y-77192011D01*
X124233502Y-77021932D01*
X124075996Y-76878345D01*
X123894798Y-76766153D01*
X123696061Y-76689162D01*
X123530000Y-76658119D01*
X123530000Y-77318829D01*
X123522315Y-77315320D01*
X123415763Y-77300000D01*
X123344237Y-77300000D01*
X123237685Y-77315320D01*
X123230000Y-77318829D01*
X123230000Y-76658119D01*
X123063938Y-76689162D01*
X122865201Y-76766153D01*
X122684003Y-76878345D01*
X122526497Y-77021932D01*
X122398058Y-77192011D01*
X122303062Y-77382791D01*
X122244738Y-77587781D01*
X122238972Y-77649999D01*
X121931316Y-77649999D01*
X121926397Y-77596917D01*
X121924473Y-77590156D01*
X121890245Y-77469859D01*
X121870582Y-77400750D01*
X121842441Y-77344234D01*
X121779675Y-77218181D01*
X121656763Y-77055419D01*
X121506041Y-76918018D01*
X121332638Y-76810652D01*
X121142457Y-76736976D01*
X121045506Y-76718853D01*
X120941976Y-76699500D01*
X120738024Y-76699500D01*
X120660279Y-76714033D01*
X120537542Y-76736976D01*
X120347361Y-76810652D01*
X120173958Y-76918018D01*
X120023236Y-77055419D01*
X119900324Y-77218181D01*
X119809418Y-77400748D01*
X119753602Y-77596916D01*
X119734785Y-77800000D01*
X119753602Y-78003083D01*
X119809418Y-78199251D01*
X119900324Y-78381818D01*
X119965973Y-78468751D01*
X120022874Y-78544100D01*
X120025239Y-78547231D01*
X120049931Y-78612592D01*
X120035366Y-78680927D01*
X120013966Y-78709639D01*
X117560426Y-81163181D01*
X117499103Y-81196666D01*
X117472745Y-81199500D01*
X117029408Y-81199500D01*
X116962369Y-81179815D01*
X116916614Y-81127011D01*
X116905408Y-81075500D01*
X116905408Y-80849999D01*
X116889221Y-80768625D01*
X116885966Y-80752260D01*
X116830601Y-80669399D01*
X116747740Y-80614034D01*
X116747739Y-80614033D01*
X116747738Y-80614033D01*
X116650001Y-80594592D01*
X116650000Y-80594592D01*
X115500000Y-80594592D01*
X115496992Y-80594886D01*
X115496985Y-80594887D01*
X115450433Y-80599447D01*
X115403758Y-80618724D01*
X115334281Y-80626119D01*
X115310839Y-80616639D01*
X115200001Y-80594592D01*
X115200000Y-80594592D01*
X114200000Y-80594592D01*
X114199999Y-80594592D01*
X114102261Y-80614033D01*
X114019399Y-80669399D01*
X113964033Y-80752261D01*
X113944592Y-80849999D01*
X113944592Y-82350000D01*
X113964033Y-82447738D01*
X113964033Y-82447739D01*
X113964034Y-82447740D01*
X114019399Y-82530601D01*
X114069390Y-82564003D01*
X114114196Y-82617615D01*
X114124500Y-82667106D01*
X114124500Y-83507744D01*
X114104815Y-83574783D01*
X114088181Y-83595425D01*
X113780426Y-83903181D01*
X113719103Y-83936666D01*
X113692745Y-83939500D01*
X113631496Y-83939500D01*
X113564457Y-83919815D01*
X113520497Y-83870773D01*
X113464432Y-83758179D01*
X113396331Y-83667999D01*
X113341522Y-83595419D01*
X113190800Y-83458018D01*
X113017397Y-83350652D01*
X112827216Y-83276976D01*
X112711905Y-83255421D01*
X112626735Y-83239500D01*
X112422783Y-83239500D01*
X112337613Y-83255421D01*
X112222301Y-83276976D01*
X112032120Y-83350652D01*
X111858716Y-83458019D01*
X111858036Y-83458640D01*
X111856524Y-83459376D01*
X111848948Y-83464068D01*
X111848473Y-83463301D01*
X111795231Y-83489256D01*
X111725844Y-83481056D01*
X111671905Y-83436645D01*
X111650539Y-83370122D01*
X111650500Y-83367001D01*
X111650500Y-82772998D01*
X111670185Y-82705959D01*
X111722989Y-82660204D01*
X111792147Y-82650260D01*
X111848818Y-82676141D01*
X111848948Y-82675932D01*
X111850597Y-82676953D01*
X111855703Y-82679285D01*
X111858041Y-82681364D01*
X111858718Y-82681981D01*
X112028820Y-82787304D01*
X112032122Y-82789348D01*
X112222303Y-82863024D01*
X112422783Y-82900500D01*
X112422785Y-82900500D01*
X112626733Y-82900500D01*
X112626735Y-82900500D01*
X112827215Y-82863024D01*
X113017396Y-82789348D01*
X113190800Y-82681981D01*
X113275128Y-82605106D01*
X113341522Y-82544580D01*
X113347881Y-82536159D01*
X113464432Y-82381821D01*
X113464432Y-82381819D01*
X113464434Y-82381818D01*
X113525443Y-82259293D01*
X113555341Y-82199250D01*
X113611156Y-82003083D01*
X113629974Y-81800000D01*
X113611156Y-81596917D01*
X113555341Y-81400750D01*
X113494204Y-81277969D01*
X113464434Y-81218181D01*
X113341522Y-81055419D01*
X113190800Y-80918018D01*
X113017397Y-80810652D01*
X112827216Y-80736976D01*
X112742253Y-80721094D01*
X112626735Y-80699500D01*
X112422783Y-80699500D01*
X112360461Y-80711150D01*
X112222301Y-80736976D01*
X112032120Y-80810652D01*
X111858716Y-80918019D01*
X111858036Y-80918640D01*
X111856524Y-80919376D01*
X111848948Y-80924068D01*
X111848473Y-80923301D01*
X111795231Y-80949256D01*
X111725844Y-80941056D01*
X111671905Y-80896645D01*
X111650539Y-80830122D01*
X111650500Y-80827001D01*
X111650500Y-80752013D01*
X111670185Y-80684974D01*
X111686815Y-80664336D01*
X112025215Y-80325935D01*
X112086536Y-80292452D01*
X112156227Y-80297436D01*
X112157514Y-80297924D01*
X112222303Y-80323024D01*
X112422783Y-80360500D01*
X112422785Y-80360500D01*
X112626733Y-80360500D01*
X112626735Y-80360500D01*
X112827215Y-80323024D01*
X113017396Y-80249348D01*
X113190800Y-80141981D01*
X113230707Y-80105601D01*
X113341522Y-80004580D01*
X113363687Y-79975229D01*
X113464432Y-79841821D01*
X113464432Y-79841819D01*
X113464434Y-79841818D01*
X113533754Y-79702602D01*
X113555341Y-79659250D01*
X113611156Y-79463083D01*
X113629974Y-79260000D01*
X113612279Y-79069037D01*
X113611156Y-79056916D01*
X113565740Y-78897300D01*
X113555341Y-78860750D01*
X113546733Y-78843462D01*
X113464434Y-78678181D01*
X113461786Y-78674674D01*
X117199500Y-78674674D01*
X117214033Y-78747738D01*
X117214033Y-78747739D01*
X117214034Y-78747740D01*
X117269399Y-78830601D01*
X117352260Y-78885966D01*
X117388792Y-78893232D01*
X117425325Y-78900500D01*
X117425326Y-78900500D01*
X119174675Y-78900500D01*
X119199029Y-78895655D01*
X119247740Y-78885966D01*
X119330601Y-78830601D01*
X119385966Y-78747740D01*
X119400500Y-78674674D01*
X119400500Y-76925326D01*
X119385966Y-76852260D01*
X119330601Y-76769399D01*
X119247740Y-76714034D01*
X119247739Y-76714033D01*
X119247738Y-76714033D01*
X119174675Y-76699500D01*
X119174674Y-76699500D01*
X117425326Y-76699500D01*
X117425325Y-76699500D01*
X117352261Y-76714033D01*
X117269399Y-76769399D01*
X117214033Y-76852261D01*
X117199500Y-76925325D01*
X117199500Y-78674674D01*
X113461786Y-78674674D01*
X113341522Y-78515419D01*
X113190800Y-78378018D01*
X113017397Y-78270652D01*
X112827216Y-78196976D01*
X112760388Y-78184484D01*
X112626735Y-78159500D01*
X112422783Y-78159500D01*
X112322543Y-78178238D01*
X112222301Y-78196976D01*
X112032120Y-78270652D01*
X111858717Y-78378018D01*
X111707995Y-78515419D01*
X111585083Y-78678181D01*
X111494177Y-78860748D01*
X111438361Y-79056916D01*
X111419544Y-79260000D01*
X111438362Y-79463085D01*
X111488618Y-79639716D01*
X111488032Y-79709583D01*
X111457033Y-79761331D01*
X111362181Y-79856183D01*
X111300858Y-79889668D01*
X111231166Y-79884684D01*
X111175233Y-79842812D01*
X111150816Y-79777348D01*
X111150500Y-79768502D01*
X111150500Y-78217253D01*
X111170185Y-78150214D01*
X111186815Y-78129576D01*
X111700144Y-77616246D01*
X111761465Y-77582763D01*
X111831156Y-77587747D01*
X111853101Y-77598502D01*
X111858714Y-77601977D01*
X111858718Y-77601981D01*
X112032122Y-77709348D01*
X112222303Y-77783024D01*
X112422783Y-77820500D01*
X112422785Y-77820500D01*
X112626733Y-77820500D01*
X112626735Y-77820500D01*
X112827215Y-77783024D01*
X113017396Y-77709348D01*
X113190800Y-77601981D01*
X113281611Y-77519196D01*
X113341522Y-77464580D01*
X113341523Y-77464579D01*
X113464432Y-77301821D01*
X113464432Y-77301819D01*
X113464434Y-77301818D01*
X113516620Y-77197012D01*
X113555341Y-77119250D01*
X113611156Y-76923083D01*
X113629974Y-76720000D01*
X113611156Y-76516917D01*
X113602923Y-76487983D01*
X113555340Y-76320748D01*
X113464434Y-76138181D01*
X113341522Y-75975419D01*
X113190800Y-75838018D01*
X113017397Y-75730652D01*
X112827216Y-75656976D01*
X112760388Y-75644484D01*
X112626735Y-75619500D01*
X112422783Y-75619500D01*
X112322543Y-75638238D01*
X112222301Y-75656976D01*
X112032120Y-75730652D01*
X111858717Y-75838018D01*
X111707995Y-75975419D01*
X111585083Y-76138181D01*
X111494177Y-76320748D01*
X111438361Y-76516916D01*
X111419175Y-76723980D01*
X111393389Y-76788917D01*
X111383385Y-76800220D01*
X110444516Y-77739091D01*
X110444513Y-77739094D01*
X110421949Y-77761657D01*
X110411892Y-77781396D01*
X110401732Y-77797976D01*
X110388704Y-77815910D01*
X110388702Y-77815913D01*
X110381854Y-77836987D01*
X110374411Y-77854956D01*
X110359985Y-77883270D01*
X110312012Y-77934067D01*
X110244191Y-77950863D01*
X110178056Y-77928327D01*
X110134603Y-77873613D01*
X110125499Y-77826981D01*
X110125499Y-77197008D01*
X110145184Y-77129973D01*
X110161809Y-77109341D01*
X112025213Y-75245936D01*
X112086536Y-75212452D01*
X112156228Y-75217436D01*
X112157688Y-75217992D01*
X112222303Y-75243024D01*
X112422783Y-75280500D01*
X112422785Y-75280500D01*
X112626733Y-75280500D01*
X112626735Y-75280500D01*
X112827215Y-75243024D01*
X113017396Y-75169348D01*
X113190800Y-75061981D01*
X113317877Y-74946135D01*
X113341522Y-74924580D01*
X113341523Y-74924579D01*
X113464432Y-74761821D01*
X113464432Y-74761819D01*
X113464434Y-74761818D01*
X113534307Y-74621492D01*
X113555341Y-74579250D01*
X113611156Y-74383083D01*
X113629974Y-74180000D01*
X113612651Y-73993055D01*
X113611156Y-73976916D01*
X113565670Y-73817052D01*
X113555341Y-73780750D01*
X113540304Y-73750552D01*
X113464434Y-73598181D01*
X113341522Y-73435419D01*
X113190800Y-73298018D01*
X113017397Y-73190652D01*
X112827216Y-73116976D01*
X112760388Y-73104484D01*
X112626735Y-73079500D01*
X112422783Y-73079500D01*
X112334660Y-73095973D01*
X112222301Y-73116976D01*
X112032120Y-73190652D01*
X111858717Y-73298018D01*
X111707995Y-73435419D01*
X111585083Y-73598181D01*
X111494177Y-73780748D01*
X111438361Y-73976916D01*
X111423675Y-74135417D01*
X111419544Y-74180000D01*
X111422700Y-74214060D01*
X111438362Y-74383085D01*
X111488618Y-74559716D01*
X111488032Y-74629583D01*
X111457033Y-74681331D01*
X109419516Y-76718850D01*
X109419513Y-76718853D01*
X109396949Y-76741416D01*
X109386892Y-76761155D01*
X109376731Y-76777738D01*
X109363702Y-76795672D01*
X109356854Y-76816746D01*
X109349412Y-76834713D01*
X109339353Y-76854456D01*
X109335886Y-76876341D01*
X109331347Y-76895250D01*
X109324500Y-76916325D01*
X109324500Y-80120592D01*
X109304815Y-80187631D01*
X109252011Y-80233386D01*
X109200500Y-80244592D01*
X108975000Y-80244592D01*
X108971973Y-80244891D01*
X108971947Y-80244893D01*
X108924911Y-80249551D01*
X108878999Y-80268625D01*
X108809537Y-80276167D01*
X108785974Y-80266666D01*
X108675001Y-80244592D01*
X108675000Y-80244592D01*
X107525000Y-80244592D01*
X107524999Y-80244592D01*
X107427261Y-80264033D01*
X107344399Y-80319399D01*
X107289033Y-80402261D01*
X107267209Y-80511979D01*
X107262864Y-80511114D01*
X107249907Y-80555244D01*
X107197103Y-80600999D01*
X107127945Y-80610943D01*
X107115919Y-80608602D01*
X107078987Y-80599500D01*
X107078985Y-80599500D01*
X106921015Y-80599500D01*
X106767637Y-80637303D01*
X106767635Y-80637303D01*
X106767635Y-80637304D01*
X106759522Y-80641561D01*
X106694653Y-80675608D01*
X106626144Y-80689333D01*
X106561091Y-80663840D01*
X106558632Y-80661322D01*
X106437884Y-80572207D01*
X106309696Y-80527353D01*
X106282151Y-80524770D01*
X106282139Y-80524769D01*
X106279266Y-80524500D01*
X105770734Y-80524500D01*
X105767861Y-80524769D01*
X105767848Y-80524770D01*
X105740303Y-80527353D01*
X105612115Y-80572207D01*
X105502849Y-80652849D01*
X105422207Y-80762115D01*
X105377353Y-80890303D01*
X105374770Y-80917848D01*
X105374769Y-80917861D01*
X105374500Y-80920734D01*
X105374500Y-81579266D01*
X105374769Y-81582139D01*
X105374770Y-81582151D01*
X105377353Y-81609696D01*
X105422207Y-81737884D01*
X105502849Y-81847150D01*
X105612115Y-81927792D01*
X105612852Y-81928050D01*
X105740301Y-81972646D01*
X105770734Y-81975500D01*
X105773627Y-81975500D01*
X106276373Y-81975500D01*
X106279266Y-81975500D01*
X106309699Y-81972646D01*
X106437882Y-81927793D01*
X106437882Y-81927792D01*
X106437884Y-81927792D01*
X106562189Y-81836052D01*
X106564824Y-81839623D01*
X106592861Y-81818320D01*
X106662515Y-81812836D01*
X106694653Y-81824391D01*
X106767635Y-81862696D01*
X106921015Y-81900500D01*
X107078985Y-81900500D01*
X107115917Y-81891397D01*
X107185717Y-81894465D01*
X107242780Y-81934783D01*
X107264535Y-81988552D01*
X107267209Y-81988021D01*
X107289033Y-82097738D01*
X107289033Y-82097739D01*
X107289034Y-82097740D01*
X107344399Y-82180601D01*
X107427260Y-82235966D01*
X107476130Y-82245687D01*
X107524999Y-82255408D01*
X107525000Y-82255408D01*
X108671974Y-82255408D01*
X108675000Y-82255408D01*
X108718972Y-82251099D01*
X108724567Y-82250552D01*
X108771241Y-82231276D01*
X108840718Y-82223879D01*
X108864163Y-82233360D01*
X108877258Y-82235965D01*
X108877260Y-82235966D01*
X108950588Y-82250552D01*
X108974999Y-82255408D01*
X108975000Y-82255408D01*
X109975001Y-82255408D01*
X110008125Y-82248819D01*
X110072740Y-82235966D01*
X110155601Y-82180601D01*
X110155601Y-82180599D01*
X110156610Y-82179926D01*
X110223288Y-82159049D01*
X110290668Y-82177534D01*
X110337357Y-82229513D01*
X110349500Y-82283029D01*
X110349500Y-83157745D01*
X110329815Y-83224784D01*
X110313181Y-83245426D01*
X110000334Y-83558273D01*
X109939011Y-83591758D01*
X109912653Y-83594592D01*
X109025000Y-83594592D01*
X109021973Y-83594891D01*
X109021947Y-83594893D01*
X108974911Y-83599551D01*
X108928999Y-83618625D01*
X108859537Y-83626167D01*
X108835974Y-83616666D01*
X108725001Y-83594592D01*
X108725000Y-83594592D01*
X107575000Y-83594592D01*
X107574999Y-83594592D01*
X107477261Y-83614033D01*
X107394399Y-83669399D01*
X107339033Y-83752261D01*
X107319592Y-83849999D01*
X107319592Y-84000529D01*
X107299907Y-84067568D01*
X107247103Y-84113323D01*
X107177945Y-84123267D01*
X107165918Y-84120926D01*
X107078986Y-84099500D01*
X107078985Y-84099500D01*
X106921015Y-84099500D01*
X106753016Y-84140907D01*
X106752484Y-84138751D01*
X106704014Y-84148459D01*
X106641269Y-84124707D01*
X106639318Y-84123267D01*
X106637882Y-84122207D01*
X106509699Y-84077354D01*
X106509698Y-84077353D01*
X106509696Y-84077353D01*
X106482151Y-84074770D01*
X106482139Y-84074769D01*
X106479266Y-84074500D01*
X106476373Y-84074500D01*
X106081900Y-84074500D01*
X106014861Y-84054815D01*
X105994219Y-84038181D01*
X105677149Y-83721111D01*
X105661022Y-83701253D01*
X105655083Y-83692162D01*
X105630110Y-83672725D01*
X105618593Y-83662554D01*
X105618519Y-83662480D01*
X105601594Y-83650397D01*
X105597480Y-83647330D01*
X105573298Y-83628508D01*
X105556189Y-83615191D01*
X105556186Y-83615190D01*
X105549963Y-83610346D01*
X105549761Y-83610242D01*
X105542200Y-83607990D01*
X105542199Y-83607990D01*
X105492036Y-83593055D01*
X105487174Y-83591497D01*
X105461812Y-83582791D01*
X105430202Y-83571939D01*
X105429969Y-83571906D01*
X105384910Y-83573769D01*
X105369806Y-83574394D01*
X105364684Y-83574500D01*
X105142997Y-83574500D01*
X105075958Y-83554815D01*
X105030203Y-83502011D01*
X105020259Y-83432853D01*
X105027055Y-83406529D01*
X105029531Y-83400000D01*
X105036237Y-83382318D01*
X105055278Y-83225500D01*
X105036237Y-83068682D01*
X104980220Y-82920977D01*
X104890483Y-82790970D01*
X104890482Y-82790969D01*
X104881930Y-82778579D01*
X104883029Y-82777820D01*
X104855145Y-82733363D01*
X104850500Y-82699740D01*
X104850500Y-81944177D01*
X104870185Y-81877138D01*
X104892911Y-81852895D01*
X104977792Y-81737884D01*
X104977793Y-81737882D01*
X105022646Y-81609699D01*
X105025500Y-81579266D01*
X105025500Y-80920734D01*
X105022646Y-80890301D01*
X104977793Y-80762118D01*
X104977792Y-80762116D01*
X104977792Y-80762115D01*
X104897152Y-80652851D01*
X104850911Y-80618724D01*
X104787882Y-80572207D01*
X104783542Y-80570688D01*
X104726768Y-80529966D01*
X104701022Y-80465012D01*
X104700500Y-80453648D01*
X104700500Y-73412965D01*
X104720185Y-73345926D01*
X104736819Y-73325284D01*
X105050284Y-73011819D01*
X105111607Y-72978334D01*
X105137965Y-72975500D01*
X105426373Y-72975500D01*
X105429266Y-72975500D01*
X105459699Y-72972646D01*
X105587882Y-72927793D01*
X105587882Y-72927792D01*
X105587884Y-72927792D01*
X105697150Y-72847150D01*
X105777792Y-72737884D01*
X105789990Y-72703024D01*
X105822646Y-72609699D01*
X105825500Y-72579266D01*
X106174500Y-72579266D01*
X106174769Y-72582139D01*
X106174770Y-72582151D01*
X106177353Y-72609696D01*
X106222207Y-72737884D01*
X106302849Y-72847150D01*
X106412115Y-72927792D01*
X106412118Y-72927793D01*
X106540301Y-72972646D01*
X106570734Y-72975500D01*
X106731893Y-72975500D01*
X106798932Y-72995185D01*
X106844687Y-73047989D01*
X106854988Y-73084551D01*
X106859755Y-73123806D01*
X106863763Y-73156818D01*
X106919780Y-73304523D01*
X107009515Y-73434528D01*
X107009516Y-73434529D01*
X107009517Y-73434530D01*
X107127760Y-73539283D01*
X107267635Y-73612696D01*
X107421015Y-73650500D01*
X107578985Y-73650500D01*
X107732365Y-73612696D01*
X107868052Y-73541480D01*
X107936555Y-73527756D01*
X108001608Y-73553248D01*
X108028777Y-73582388D01*
X108039033Y-73597738D01*
X108039034Y-73597740D01*
X108094399Y-73680601D01*
X108177260Y-73735966D01*
X108226129Y-73745687D01*
X108274999Y-73755408D01*
X108275000Y-73755408D01*
X109421974Y-73755408D01*
X109425000Y-73755408D01*
X109468972Y-73751099D01*
X109474567Y-73750552D01*
X109521241Y-73731276D01*
X109590718Y-73723879D01*
X109614163Y-73733360D01*
X109627258Y-73735965D01*
X109627260Y-73735966D01*
X109700588Y-73750552D01*
X109724999Y-73755408D01*
X109725000Y-73755408D01*
X110725001Y-73755408D01*
X110766827Y-73747088D01*
X110822740Y-73735966D01*
X110905601Y-73680601D01*
X110960966Y-73597740D01*
X110980408Y-73500000D01*
X110980408Y-73324500D01*
X111000093Y-73257461D01*
X111052897Y-73211706D01*
X111104408Y-73200500D01*
X111382497Y-73200500D01*
X111396381Y-73201280D01*
X111431792Y-73205270D01*
X111431792Y-73205269D01*
X111431794Y-73205270D01*
X111487987Y-73194636D01*
X111492485Y-73193872D01*
X111549046Y-73185348D01*
X111549047Y-73185347D01*
X111555027Y-73184446D01*
X111559887Y-73182846D01*
X111565226Y-73180023D01*
X111565231Y-73180023D01*
X111615804Y-73153292D01*
X111619895Y-73151227D01*
X111671401Y-73126425D01*
X111671403Y-73126422D01*
X111676837Y-73123806D01*
X111681030Y-73120831D01*
X111685292Y-73116568D01*
X111685297Y-73116566D01*
X111725760Y-73076101D01*
X111729018Y-73072962D01*
X111770953Y-73034055D01*
X111770954Y-73034053D01*
X111775372Y-73029954D01*
X111786792Y-73015069D01*
X112076181Y-72725680D01*
X112137502Y-72692197D01*
X112207194Y-72697181D01*
X112208653Y-72697736D01*
X112222303Y-72703024D01*
X112422783Y-72740500D01*
X112422785Y-72740500D01*
X112626733Y-72740500D01*
X112626735Y-72740500D01*
X112827215Y-72703024D01*
X113017396Y-72629348D01*
X113190800Y-72521981D01*
X113341523Y-72384579D01*
X113464432Y-72221821D01*
X113464432Y-72221819D01*
X113464434Y-72221818D01*
X113531921Y-72086284D01*
X113555341Y-72039250D01*
X113611156Y-71843083D01*
X113629974Y-71640000D01*
X113611156Y-71436917D01*
X113555341Y-71240750D01*
X113554968Y-71240001D01*
X113464434Y-71058181D01*
X113341522Y-70895419D01*
X113190800Y-70758018D01*
X113017397Y-70650652D01*
X112827216Y-70576976D01*
X112760388Y-70564484D01*
X112626735Y-70539500D01*
X112422783Y-70539500D01*
X112322543Y-70558238D01*
X112222301Y-70576976D01*
X112032120Y-70650652D01*
X111858717Y-70758018D01*
X111707995Y-70895419D01*
X111585083Y-71058181D01*
X111494177Y-71240748D01*
X111438361Y-71436916D01*
X111420211Y-71632801D01*
X111419544Y-71640000D01*
X111425280Y-71701900D01*
X111438362Y-71843084D01*
X111472956Y-71964669D01*
X111472370Y-72034536D01*
X111441371Y-72086284D01*
X111264475Y-72263181D01*
X111203152Y-72296666D01*
X111176794Y-72299500D01*
X111104408Y-72299500D01*
X111037369Y-72279815D01*
X110991614Y-72227011D01*
X110980408Y-72175500D01*
X110980408Y-71999999D01*
X110960966Y-71902261D01*
X110960966Y-71902260D01*
X110905601Y-71819399D01*
X110822740Y-71764034D01*
X110822739Y-71764033D01*
X110822738Y-71764033D01*
X110725001Y-71744592D01*
X110725000Y-71744592D01*
X109725000Y-71744592D01*
X109721973Y-71744891D01*
X109721947Y-71744893D01*
X109674911Y-71749551D01*
X109628999Y-71768625D01*
X109559537Y-71776167D01*
X109535974Y-71766666D01*
X109425001Y-71744592D01*
X109425000Y-71744592D01*
X108275000Y-71744592D01*
X108274999Y-71744592D01*
X108177261Y-71764033D01*
X108094399Y-71819399D01*
X108039033Y-71902261D01*
X108019592Y-71999999D01*
X108019592Y-72250500D01*
X107999907Y-72317539D01*
X107947103Y-72363294D01*
X107895592Y-72374500D01*
X107801803Y-72374500D01*
X107776357Y-72371861D01*
X107765731Y-72369633D01*
X107734324Y-72373548D01*
X107718987Y-72374500D01*
X107708614Y-72374500D01*
X107708613Y-72373637D01*
X107671103Y-72372204D01*
X107632924Y-72362794D01*
X107569825Y-72347242D01*
X107509445Y-72312086D01*
X107477656Y-72249867D01*
X107475500Y-72226845D01*
X107475500Y-71923626D01*
X107475500Y-71923625D01*
X107475500Y-71920734D01*
X107472646Y-71890301D01*
X107427793Y-71762118D01*
X107427792Y-71762115D01*
X107347150Y-71652849D01*
X107237884Y-71572207D01*
X107109696Y-71527353D01*
X107082151Y-71524770D01*
X107082139Y-71524769D01*
X107079266Y-71524500D01*
X106570734Y-71524500D01*
X106567861Y-71524769D01*
X106567848Y-71524770D01*
X106540303Y-71527353D01*
X106412115Y-71572207D01*
X106302849Y-71652849D01*
X106222207Y-71762115D01*
X106177353Y-71890303D01*
X106174770Y-71917848D01*
X106174769Y-71917861D01*
X106174500Y-71920734D01*
X106174500Y-72579266D01*
X105825500Y-72579266D01*
X105825500Y-71920734D01*
X105822646Y-71890301D01*
X105777793Y-71762118D01*
X105697150Y-71652850D01*
X105697149Y-71652849D01*
X105686052Y-71637813D01*
X105686894Y-71637191D01*
X105658613Y-71599938D01*
X105650500Y-71555822D01*
X105650500Y-69712627D01*
X105670185Y-69645588D01*
X105700863Y-69612859D01*
X105722150Y-69597150D01*
X105802793Y-69487882D01*
X105847646Y-69359699D01*
X105850500Y-69329266D01*
X106199500Y-69329266D01*
X106199769Y-69332139D01*
X106199770Y-69332151D01*
X106202353Y-69359696D01*
X106247207Y-69487884D01*
X106327849Y-69597150D01*
X106437115Y-69677792D01*
X106437118Y-69677793D01*
X106565301Y-69722646D01*
X106595734Y-69725500D01*
X106598627Y-69725500D01*
X107101373Y-69725500D01*
X107104266Y-69725500D01*
X107134699Y-69722646D01*
X107262882Y-69677793D01*
X107283376Y-69662667D01*
X107349006Y-69638695D01*
X107386686Y-69642039D01*
X107419104Y-69650029D01*
X107421015Y-69650500D01*
X107578985Y-69650500D01*
X107732365Y-69612696D01*
X107812966Y-69570392D01*
X107881472Y-69556667D01*
X107946526Y-69582159D01*
X107987470Y-69638774D01*
X107994591Y-69680189D01*
X107994591Y-70250000D01*
X108014033Y-70347738D01*
X108014033Y-70347739D01*
X108014034Y-70347740D01*
X108069399Y-70430601D01*
X108152260Y-70485966D01*
X108174913Y-70490472D01*
X108249999Y-70505408D01*
X108250000Y-70505408D01*
X109396974Y-70505408D01*
X109400000Y-70505408D01*
X109443972Y-70501099D01*
X109449567Y-70500552D01*
X109496241Y-70481276D01*
X109565718Y-70473879D01*
X109589163Y-70483360D01*
X109602258Y-70485965D01*
X109602260Y-70485966D01*
X109675588Y-70500552D01*
X109699999Y-70505408D01*
X109700000Y-70505408D01*
X110700001Y-70505408D01*
X110732579Y-70498927D01*
X110797740Y-70485966D01*
X110880601Y-70430601D01*
X110935966Y-70347740D01*
X110955408Y-70250000D01*
X110955408Y-69674499D01*
X110975093Y-69607461D01*
X111027897Y-69561706D01*
X111079408Y-69550500D01*
X111442919Y-69550500D01*
X111509958Y-69570185D01*
X111553918Y-69619228D01*
X111569490Y-69650500D01*
X111585085Y-69681820D01*
X111707995Y-69844580D01*
X111858717Y-69981981D01*
X112032120Y-70089347D01*
X112032122Y-70089348D01*
X112222303Y-70163024D01*
X112422783Y-70200500D01*
X112422785Y-70200500D01*
X112626733Y-70200500D01*
X112626735Y-70200500D01*
X112827215Y-70163024D01*
X113017396Y-70089348D01*
X113190800Y-69981981D01*
X113252757Y-69925500D01*
X113341522Y-69844580D01*
X113341523Y-69844579D01*
X113464432Y-69681821D01*
X113464432Y-69681819D01*
X113464434Y-69681818D01*
X113526751Y-69556667D01*
X113555341Y-69499250D01*
X113611156Y-69303083D01*
X113629974Y-69100000D01*
X113611156Y-68896917D01*
X113555341Y-68700750D01*
X113520020Y-68629815D01*
X113464434Y-68518181D01*
X113341522Y-68355419D01*
X113190800Y-68218018D01*
X113017397Y-68110652D01*
X112827216Y-68036976D01*
X112747571Y-68022088D01*
X112626735Y-67999500D01*
X112422783Y-67999500D01*
X112322543Y-68018238D01*
X112222301Y-68036976D01*
X112032120Y-68110652D01*
X111858717Y-68218018D01*
X111707995Y-68355419D01*
X111585085Y-68518179D01*
X111581108Y-68526167D01*
X111553918Y-68580771D01*
X111506417Y-68632008D01*
X111442919Y-68649500D01*
X111000402Y-68649500D01*
X110933363Y-68629815D01*
X110897300Y-68594391D01*
X110894722Y-68590534D01*
X110880601Y-68569399D01*
X110797740Y-68514034D01*
X110797739Y-68514033D01*
X110797738Y-68514033D01*
X110700001Y-68494592D01*
X110700000Y-68494592D01*
X109700000Y-68494592D01*
X109696973Y-68494891D01*
X109696947Y-68494893D01*
X109649911Y-68499551D01*
X109603999Y-68518625D01*
X109534537Y-68526167D01*
X109510974Y-68516666D01*
X109400001Y-68494592D01*
X109400000Y-68494592D01*
X108250000Y-68494592D01*
X108249999Y-68494592D01*
X108152259Y-68514034D01*
X108106465Y-68544632D01*
X108039787Y-68565509D01*
X107972407Y-68547023D01*
X107955350Y-68534345D01*
X107872241Y-68460718D01*
X107872240Y-68460717D01*
X107802302Y-68424010D01*
X107732364Y-68387303D01*
X107578985Y-68349500D01*
X107421015Y-68349500D01*
X107386683Y-68357961D01*
X107316881Y-68354890D01*
X107283380Y-68337334D01*
X107262884Y-68322207D01*
X107134696Y-68277353D01*
X107107151Y-68274770D01*
X107107139Y-68274769D01*
X107104266Y-68274500D01*
X106595734Y-68274500D01*
X106592861Y-68274769D01*
X106592848Y-68274770D01*
X106565303Y-68277353D01*
X106437115Y-68322207D01*
X106327849Y-68402849D01*
X106247207Y-68512115D01*
X106202353Y-68640303D01*
X106199770Y-68667848D01*
X106199769Y-68667861D01*
X106199500Y-68670734D01*
X106199500Y-69329266D01*
X105850500Y-69329266D01*
X105850500Y-68670734D01*
X105847646Y-68640301D01*
X105802793Y-68512118D01*
X105802792Y-68512115D01*
X105722151Y-68402850D01*
X105700866Y-68387141D01*
X105658615Y-68331493D01*
X105650500Y-68287371D01*
X105650500Y-67212627D01*
X105670185Y-67145588D01*
X105700863Y-67112859D01*
X105722150Y-67097150D01*
X105802793Y-66987882D01*
X105847646Y-66859699D01*
X105850500Y-66829266D01*
X106199500Y-66829266D01*
X106199769Y-66832139D01*
X106199770Y-66832151D01*
X106202353Y-66859696D01*
X106247207Y-66987884D01*
X106327849Y-67097150D01*
X106437115Y-67177792D01*
X106437118Y-67177793D01*
X106565301Y-67222646D01*
X106595734Y-67225500D01*
X106598627Y-67225500D01*
X107101373Y-67225500D01*
X107104266Y-67225500D01*
X107134699Y-67222646D01*
X107262882Y-67177793D01*
X107283376Y-67162667D01*
X107349006Y-67138695D01*
X107386686Y-67142039D01*
X107419104Y-67150029D01*
X107421015Y-67150500D01*
X107578985Y-67150500D01*
X107732365Y-67112696D01*
X107849541Y-67051196D01*
X107918046Y-67037471D01*
X107983100Y-67062963D01*
X108010268Y-67092103D01*
X108014033Y-67097738D01*
X108014034Y-67097740D01*
X108069399Y-67180601D01*
X108152260Y-67235966D01*
X108201130Y-67245687D01*
X108249999Y-67255408D01*
X108250000Y-67255408D01*
X109396974Y-67255408D01*
X109400000Y-67255408D01*
X109443972Y-67251099D01*
X109449567Y-67250552D01*
X109496241Y-67231276D01*
X109565718Y-67223879D01*
X109589163Y-67233360D01*
X109602258Y-67235965D01*
X109602260Y-67235966D01*
X109675588Y-67250552D01*
X109699999Y-67255408D01*
X109700000Y-67255408D01*
X110700001Y-67255408D01*
X110732579Y-67248927D01*
X110797740Y-67235966D01*
X110880601Y-67180601D01*
X110935966Y-67097740D01*
X110955408Y-67000000D01*
X110955408Y-66824499D01*
X110975093Y-66757461D01*
X111027897Y-66711706D01*
X111079408Y-66700500D01*
X111326915Y-66700500D01*
X111393954Y-66720185D01*
X111439709Y-66772989D01*
X111446181Y-66790565D01*
X111494177Y-66959251D01*
X111585083Y-67141818D01*
X111707995Y-67304580D01*
X111858717Y-67441981D01*
X112028317Y-67546992D01*
X112032122Y-67549348D01*
X112222303Y-67623024D01*
X112422783Y-67660500D01*
X112422785Y-67660500D01*
X112626733Y-67660500D01*
X112626735Y-67660500D01*
X112827215Y-67623024D01*
X113017396Y-67549348D01*
X113190800Y-67441981D01*
X113281059Y-67359699D01*
X113341522Y-67304580D01*
X113378655Y-67255408D01*
X113464432Y-67141821D01*
X113464432Y-67141819D01*
X113464434Y-67141818D01*
X113510072Y-67050161D01*
X113555341Y-66959250D01*
X113611156Y-66763083D01*
X113619348Y-66674674D01*
X117224500Y-66674674D01*
X117239033Y-66747738D01*
X117239033Y-66747739D01*
X117239034Y-66747740D01*
X117294399Y-66830601D01*
X117377260Y-66885966D01*
X117413792Y-66893232D01*
X117450325Y-66900500D01*
X117450326Y-66900500D01*
X119199675Y-66900500D01*
X119224029Y-66895655D01*
X119272740Y-66885966D01*
X119355601Y-66830601D01*
X119410966Y-66747740D01*
X119425500Y-66674674D01*
X119425500Y-65800000D01*
X119759785Y-65800000D01*
X119778602Y-66003083D01*
X119834418Y-66199251D01*
X119925324Y-66381818D01*
X120048236Y-66544580D01*
X120198958Y-66681981D01*
X120329943Y-66763083D01*
X120372363Y-66789348D01*
X120562544Y-66863024D01*
X120763024Y-66900500D01*
X120763026Y-66900500D01*
X120966974Y-66900500D01*
X120966976Y-66900500D01*
X121167456Y-66863024D01*
X121357637Y-66789348D01*
X121531041Y-66681981D01*
X121597394Y-66621492D01*
X121681763Y-66544580D01*
X121706277Y-66512118D01*
X121804673Y-66381821D01*
X121804673Y-66381819D01*
X121804675Y-66381818D01*
X121856691Y-66277354D01*
X121895582Y-66199250D01*
X121951397Y-66003083D01*
X121970215Y-65800000D01*
X121951397Y-65596917D01*
X121895582Y-65400750D01*
X121884506Y-65378507D01*
X121804675Y-65218181D01*
X121681763Y-65055419D01*
X121531041Y-64918018D01*
X121357638Y-64810652D01*
X121167457Y-64736976D01*
X121090797Y-64722646D01*
X120966976Y-64699500D01*
X120763024Y-64699500D01*
X120685279Y-64714033D01*
X120562542Y-64736976D01*
X120372361Y-64810652D01*
X120198958Y-64918018D01*
X120048236Y-65055419D01*
X119925324Y-65218181D01*
X119834418Y-65400748D01*
X119778602Y-65596916D01*
X119759785Y-65800000D01*
X119425500Y-65800000D01*
X119425500Y-64925326D01*
X119410966Y-64852260D01*
X119355601Y-64769399D01*
X119272740Y-64714034D01*
X119272739Y-64714033D01*
X119272738Y-64714033D01*
X119199675Y-64699500D01*
X119199674Y-64699500D01*
X117450326Y-64699500D01*
X117450325Y-64699500D01*
X117377261Y-64714033D01*
X117294399Y-64769399D01*
X117239033Y-64852261D01*
X117224500Y-64925325D01*
X117224500Y-66674674D01*
X113619348Y-66674674D01*
X113629974Y-66560000D01*
X113611156Y-66356917D01*
X113609179Y-66349970D01*
X113567081Y-66202011D01*
X113555341Y-66160750D01*
X113531704Y-66113280D01*
X113464434Y-65978181D01*
X113341522Y-65815419D01*
X113190800Y-65678018D01*
X113017397Y-65570652D01*
X112827216Y-65496976D01*
X112760388Y-65484484D01*
X112626735Y-65459500D01*
X112422783Y-65459500D01*
X112322543Y-65478238D01*
X112222301Y-65496976D01*
X112032120Y-65570652D01*
X111858717Y-65678018D01*
X111760960Y-65767137D01*
X111698156Y-65797754D01*
X111677422Y-65799500D01*
X111079408Y-65799500D01*
X111012369Y-65779815D01*
X110966614Y-65727011D01*
X110955408Y-65675500D01*
X110955408Y-65499999D01*
X110935966Y-65402261D01*
X110935966Y-65402260D01*
X110880601Y-65319399D01*
X110797740Y-65264034D01*
X110797739Y-65264033D01*
X110797738Y-65264033D01*
X110700001Y-65244592D01*
X110700000Y-65244592D01*
X109700000Y-65244592D01*
X109696973Y-65244891D01*
X109696947Y-65244893D01*
X109649911Y-65249551D01*
X109603999Y-65268625D01*
X109534537Y-65276167D01*
X109510974Y-65266666D01*
X109400001Y-65244592D01*
X109400000Y-65244592D01*
X108250000Y-65244592D01*
X108249999Y-65244592D01*
X108152261Y-65264033D01*
X108069399Y-65319399D01*
X108014033Y-65402261D01*
X107994591Y-65499999D01*
X107994591Y-65819810D01*
X107974906Y-65886850D01*
X107922102Y-65932605D01*
X107852944Y-65942548D01*
X107812965Y-65929606D01*
X107732366Y-65887303D01*
X107578985Y-65849500D01*
X107421015Y-65849500D01*
X107386683Y-65857961D01*
X107316881Y-65854890D01*
X107283380Y-65837334D01*
X107262884Y-65822207D01*
X107134696Y-65777353D01*
X107107151Y-65774770D01*
X107107139Y-65774769D01*
X107104266Y-65774500D01*
X106595734Y-65774500D01*
X106592861Y-65774769D01*
X106592848Y-65774770D01*
X106565303Y-65777353D01*
X106437115Y-65822207D01*
X106327849Y-65902849D01*
X106247207Y-66012115D01*
X106202353Y-66140303D01*
X106199770Y-66167848D01*
X106199769Y-66167861D01*
X106199500Y-66170734D01*
X106199500Y-66829266D01*
X105850500Y-66829266D01*
X105850500Y-66170734D01*
X105847646Y-66140301D01*
X105802793Y-66012118D01*
X105802792Y-66012115D01*
X105722151Y-65902850D01*
X105700866Y-65887141D01*
X105658615Y-65831493D01*
X105650500Y-65787371D01*
X105650500Y-63462627D01*
X105670185Y-63395588D01*
X105700863Y-63362859D01*
X105722150Y-63347150D01*
X105802793Y-63237882D01*
X105847646Y-63109699D01*
X105850500Y-63079266D01*
X106199500Y-63079266D01*
X106199769Y-63082139D01*
X106199770Y-63082151D01*
X106202353Y-63109696D01*
X106247207Y-63237884D01*
X106327849Y-63347150D01*
X106437115Y-63427792D01*
X106437118Y-63427793D01*
X106565301Y-63472646D01*
X106595734Y-63475500D01*
X106598627Y-63475500D01*
X107101373Y-63475500D01*
X107104266Y-63475500D01*
X107134699Y-63472646D01*
X107262882Y-63427793D01*
X107283376Y-63412667D01*
X107349006Y-63388695D01*
X107386686Y-63392039D01*
X107418727Y-63399936D01*
X107421015Y-63400500D01*
X107578985Y-63400500D01*
X107732365Y-63362696D01*
X107754651Y-63350999D01*
X107787964Y-63333514D01*
X107856471Y-63319788D01*
X107921525Y-63345279D01*
X107962470Y-63401894D01*
X107969591Y-63443308D01*
X107969591Y-63499999D01*
X107989033Y-63597738D01*
X107989033Y-63597739D01*
X107989034Y-63597740D01*
X108044399Y-63680601D01*
X108127260Y-63735966D01*
X108176130Y-63745687D01*
X108224999Y-63755408D01*
X108225000Y-63755408D01*
X109371974Y-63755408D01*
X109375000Y-63755408D01*
X109418972Y-63751099D01*
X109424567Y-63750552D01*
X109471241Y-63731276D01*
X109540718Y-63723879D01*
X109564163Y-63733360D01*
X109577258Y-63735965D01*
X109577260Y-63735966D01*
X109650588Y-63750552D01*
X109674999Y-63755408D01*
X109675000Y-63755408D01*
X110675001Y-63755408D01*
X110707580Y-63748927D01*
X110772740Y-63735966D01*
X110855601Y-63680601D01*
X110910966Y-63597740D01*
X110930408Y-63500000D01*
X110930408Y-63362115D01*
X110950093Y-63295076D01*
X111002897Y-63249321D01*
X111072055Y-63239377D01*
X111135611Y-63268402D01*
X111142089Y-63274434D01*
X111441371Y-63573716D01*
X111474856Y-63635039D01*
X111472956Y-63695331D01*
X111438362Y-63816915D01*
X111419544Y-64020000D01*
X111438361Y-64223083D01*
X111494177Y-64419251D01*
X111585083Y-64601818D01*
X111707995Y-64764580D01*
X111858717Y-64901981D01*
X112032120Y-65009347D01*
X112032122Y-65009348D01*
X112222303Y-65083024D01*
X112422783Y-65120500D01*
X112422785Y-65120500D01*
X112626733Y-65120500D01*
X112626735Y-65120500D01*
X112827215Y-65083024D01*
X113017396Y-65009348D01*
X113190800Y-64901981D01*
X113295518Y-64806518D01*
X113341522Y-64764580D01*
X113341524Y-64764578D01*
X113464432Y-64601821D01*
X113464432Y-64601819D01*
X113464434Y-64601818D01*
X113519877Y-64490472D01*
X113555341Y-64419250D01*
X113611156Y-64223083D01*
X113629974Y-64020000D01*
X113611156Y-63816917D01*
X113611155Y-63816915D01*
X113572370Y-63680600D01*
X113555341Y-63620750D01*
X113554968Y-63620001D01*
X113464434Y-63438181D01*
X113341522Y-63275419D01*
X113190800Y-63138018D01*
X113017397Y-63030652D01*
X112827216Y-62956976D01*
X112788153Y-62949674D01*
X117274500Y-62949674D01*
X117289033Y-63022738D01*
X117289033Y-63022739D01*
X117289034Y-63022740D01*
X117344399Y-63105601D01*
X117427260Y-63160966D01*
X117463792Y-63168232D01*
X117500325Y-63175500D01*
X117500326Y-63175500D01*
X119249675Y-63175500D01*
X119274029Y-63170655D01*
X119322740Y-63160966D01*
X119405601Y-63105601D01*
X119460966Y-63022740D01*
X119475500Y-62949674D01*
X119475500Y-62074999D01*
X119809785Y-62074999D01*
X119828602Y-62278083D01*
X119884418Y-62474251D01*
X119975324Y-62656818D01*
X120098236Y-62819580D01*
X120248958Y-62956981D01*
X120379462Y-63037785D01*
X120422363Y-63064348D01*
X120612544Y-63138024D01*
X120813024Y-63175500D01*
X120813026Y-63175500D01*
X121016974Y-63175500D01*
X121016976Y-63175500D01*
X121217456Y-63138024D01*
X121407637Y-63064348D01*
X121581041Y-62956981D01*
X121695029Y-62853067D01*
X121731763Y-62819580D01*
X121738926Y-62810095D01*
X121854673Y-62656821D01*
X121854673Y-62656819D01*
X121854675Y-62656818D01*
X121937295Y-62490892D01*
X121945582Y-62474250D01*
X122001397Y-62278083D01*
X122020215Y-62075000D01*
X122006316Y-61924999D01*
X122313972Y-61924999D01*
X122313973Y-61925000D01*
X122977935Y-61925000D01*
X122955000Y-62003111D01*
X122955000Y-62146889D01*
X122977935Y-62225000D01*
X122313973Y-62225000D01*
X122319738Y-62287218D01*
X122378062Y-62492208D01*
X122473058Y-62682988D01*
X122601497Y-62853067D01*
X122759003Y-62996654D01*
X122940201Y-63108846D01*
X123138939Y-63185837D01*
X123305000Y-63216879D01*
X123305000Y-62556170D01*
X123312685Y-62559680D01*
X123419237Y-62575000D01*
X123490763Y-62575000D01*
X123597315Y-62559680D01*
X123605000Y-62556170D01*
X123605000Y-63216879D01*
X123771060Y-63185837D01*
X123969798Y-63108846D01*
X124150996Y-62996654D01*
X124308502Y-62853067D01*
X124436941Y-62682988D01*
X124531937Y-62492208D01*
X124590261Y-62287218D01*
X124596027Y-62225000D01*
X123932065Y-62225000D01*
X123955000Y-62146889D01*
X123955000Y-62003111D01*
X123932065Y-61925000D01*
X124596027Y-61925000D01*
X124596027Y-61924999D01*
X124590261Y-61862781D01*
X124531937Y-61657791D01*
X124436941Y-61467011D01*
X124308502Y-61296932D01*
X124150996Y-61153345D01*
X123969798Y-61041153D01*
X123771061Y-60964162D01*
X123605000Y-60933119D01*
X123605000Y-61593829D01*
X123597315Y-61590320D01*
X123490763Y-61575000D01*
X123419237Y-61575000D01*
X123312685Y-61590320D01*
X123305000Y-61593829D01*
X123305000Y-60933119D01*
X123138938Y-60964162D01*
X122940201Y-61041153D01*
X122759003Y-61153345D01*
X122601497Y-61296932D01*
X122473058Y-61467011D01*
X122378062Y-61657791D01*
X122319738Y-61862781D01*
X122313972Y-61924999D01*
X122006316Y-61924999D01*
X122002077Y-61879251D01*
X122001397Y-61871916D01*
X121973848Y-61775093D01*
X121945582Y-61675750D01*
X121932784Y-61650048D01*
X121854675Y-61493181D01*
X121731763Y-61330419D01*
X121581041Y-61193018D01*
X121407638Y-61085652D01*
X121217457Y-61011976D01*
X121094726Y-60989034D01*
X121016976Y-60974500D01*
X120813024Y-60974500D01*
X120735279Y-60989033D01*
X120612542Y-61011976D01*
X120422361Y-61085652D01*
X120248958Y-61193018D01*
X120098236Y-61330419D01*
X119975324Y-61493181D01*
X119884418Y-61675748D01*
X119828602Y-61871916D01*
X119809785Y-62074999D01*
X119475500Y-62074999D01*
X119475500Y-61200326D01*
X119460966Y-61127260D01*
X119405601Y-61044399D01*
X119322740Y-60989034D01*
X119322739Y-60989033D01*
X119322738Y-60989033D01*
X119249675Y-60974500D01*
X119249674Y-60974500D01*
X117500326Y-60974500D01*
X117500325Y-60974500D01*
X117427261Y-60989033D01*
X117344399Y-61044399D01*
X117289033Y-61127261D01*
X117274500Y-61200325D01*
X117274500Y-62949674D01*
X112788153Y-62949674D01*
X112760388Y-62944484D01*
X112626735Y-62919500D01*
X112422783Y-62919500D01*
X112343519Y-62934317D01*
X112222296Y-62956977D01*
X112208647Y-62962265D01*
X112139023Y-62968123D01*
X112077285Y-62935410D01*
X112076179Y-62934317D01*
X111638420Y-62496558D01*
X111604935Y-62435235D01*
X111606429Y-62414343D01*
X111595920Y-62416676D01*
X111534398Y-62395412D01*
X111526209Y-62389829D01*
X111517397Y-62383821D01*
X111513629Y-62381148D01*
X111462794Y-62343629D01*
X111458183Y-62341302D01*
X111397808Y-62322679D01*
X111393403Y-62321230D01*
X111333782Y-62300368D01*
X111328673Y-62299500D01*
X111322661Y-62299500D01*
X111265497Y-62299500D01*
X111260860Y-62299413D01*
X111197729Y-62297050D01*
X111179124Y-62299500D01*
X111054408Y-62299500D01*
X110987369Y-62279815D01*
X110941614Y-62227011D01*
X110930408Y-62175500D01*
X110930408Y-61999999D01*
X110915489Y-61924999D01*
X110910966Y-61902260D01*
X110855601Y-61819399D01*
X110772740Y-61764034D01*
X110772739Y-61764033D01*
X110772738Y-61764033D01*
X110675001Y-61744592D01*
X110675000Y-61744592D01*
X109675000Y-61744592D01*
X109671973Y-61744891D01*
X109671947Y-61744893D01*
X109624911Y-61749551D01*
X109578999Y-61768625D01*
X109509537Y-61776167D01*
X109485974Y-61766666D01*
X109375001Y-61744592D01*
X109375000Y-61744592D01*
X108225000Y-61744592D01*
X108224999Y-61744592D01*
X108127261Y-61764033D01*
X108044399Y-61819399D01*
X107989033Y-61902261D01*
X107969591Y-62000000D01*
X107969591Y-62056691D01*
X107949905Y-62123730D01*
X107897101Y-62169484D01*
X107827942Y-62179427D01*
X107787964Y-62166485D01*
X107732364Y-62137303D01*
X107578985Y-62099500D01*
X107421015Y-62099500D01*
X107386683Y-62107961D01*
X107316881Y-62104890D01*
X107283380Y-62087334D01*
X107262884Y-62072207D01*
X107134696Y-62027353D01*
X107107151Y-62024770D01*
X107107139Y-62024769D01*
X107104266Y-62024500D01*
X106595734Y-62024500D01*
X106592861Y-62024769D01*
X106592848Y-62024770D01*
X106565303Y-62027353D01*
X106437115Y-62072207D01*
X106327849Y-62152849D01*
X106247207Y-62262115D01*
X106202353Y-62390303D01*
X106199770Y-62417848D01*
X106199769Y-62417861D01*
X106199500Y-62420734D01*
X106199500Y-63079266D01*
X105850500Y-63079266D01*
X105850500Y-62420734D01*
X105847646Y-62390301D01*
X105802793Y-62262118D01*
X105796620Y-62244476D01*
X105800453Y-62243134D01*
X105787916Y-62208796D01*
X105803240Y-62140628D01*
X105823973Y-62113129D01*
X106457103Y-61479999D01*
X111419544Y-61479999D01*
X111438361Y-61683083D01*
X111494177Y-61879251D01*
X111585083Y-62061818D01*
X111653827Y-62152849D01*
X111698969Y-62212627D01*
X111703200Y-62218229D01*
X111727892Y-62283590D01*
X111727094Y-62287333D01*
X111785528Y-62300045D01*
X111809639Y-62317240D01*
X111858717Y-62361981D01*
X112023809Y-62464201D01*
X112032122Y-62469348D01*
X112222303Y-62543024D01*
X112422783Y-62580500D01*
X112422785Y-62580500D01*
X112626733Y-62580500D01*
X112626735Y-62580500D01*
X112827215Y-62543024D01*
X113017396Y-62469348D01*
X113190800Y-62361981D01*
X113258432Y-62300326D01*
X113341522Y-62224580D01*
X113341523Y-62224579D01*
X113464432Y-62061821D01*
X113464432Y-62061819D01*
X113464434Y-62061818D01*
X113544549Y-61900923D01*
X113555341Y-61879250D01*
X113611156Y-61683083D01*
X113629974Y-61480000D01*
X113611156Y-61276917D01*
X113555341Y-61080750D01*
X113554968Y-61080001D01*
X113464434Y-60898181D01*
X113341522Y-60735419D01*
X113190800Y-60598018D01*
X113017397Y-60490652D01*
X112827216Y-60416976D01*
X112760388Y-60404484D01*
X112626735Y-60379500D01*
X112422783Y-60379500D01*
X112322543Y-60398238D01*
X112222301Y-60416976D01*
X112032120Y-60490652D01*
X111858717Y-60598018D01*
X111707995Y-60735419D01*
X111585083Y-60898181D01*
X111494177Y-61080748D01*
X111438361Y-61276916D01*
X111419544Y-61479999D01*
X106457103Y-61479999D01*
X108510284Y-59426819D01*
X108571607Y-59393334D01*
X108597965Y-59390500D01*
X111442919Y-59390500D01*
X111509958Y-59410185D01*
X111553918Y-59459228D01*
X111570526Y-59492581D01*
X111585085Y-59521820D01*
X111707995Y-59684580D01*
X111858717Y-59821981D01*
X112032120Y-59929347D01*
X112032122Y-59929348D01*
X112222303Y-60003024D01*
X112422783Y-60040500D01*
X112422785Y-60040500D01*
X112626733Y-60040500D01*
X112626735Y-60040500D01*
X112827215Y-60003024D01*
X113017396Y-59929348D01*
X113190800Y-59821981D01*
X113341523Y-59684579D01*
X113464432Y-59521821D01*
X113464432Y-59521819D01*
X113464434Y-59521818D01*
X113520020Y-59410185D01*
X113555341Y-59339250D01*
X113611156Y-59143083D01*
X113629974Y-58940000D01*
X113611156Y-58736917D01*
X113555341Y-58540750D01*
X113553324Y-58536699D01*
X113464434Y-58358181D01*
X113341522Y-58195419D01*
X113190800Y-58058018D01*
X113017397Y-57950652D01*
X112827216Y-57876976D01*
X112745928Y-57861781D01*
X112626735Y-57839500D01*
X112422783Y-57839500D01*
X112350650Y-57852984D01*
X112222301Y-57876976D01*
X112157685Y-57902008D01*
X112088062Y-57907868D01*
X112026322Y-57875157D01*
X112025213Y-57874061D01*
X110551152Y-56400000D01*
X111369832Y-56400000D01*
X111389496Y-56612219D01*
X111447821Y-56817208D01*
X111542818Y-57007989D01*
X111612442Y-57100183D01*
X112079943Y-56632681D01*
X112142998Y-56730798D01*
X112251659Y-56824952D01*
X112293039Y-56843850D01*
X111821685Y-57315203D01*
X111828761Y-57321652D01*
X112009961Y-57433846D01*
X112208698Y-57510837D01*
X112418198Y-57550000D01*
X112631320Y-57550000D01*
X112840819Y-57510837D01*
X113039557Y-57433846D01*
X113220755Y-57321654D01*
X113227830Y-57315203D01*
X112756477Y-56843850D01*
X112797859Y-56824952D01*
X112906520Y-56730798D01*
X112969574Y-56632683D01*
X113437075Y-57100184D01*
X113506698Y-57007989D01*
X113601696Y-56817208D01*
X113660021Y-56612219D01*
X113679685Y-56400000D01*
X113660021Y-56187780D01*
X113601696Y-55982791D01*
X113506698Y-55792010D01*
X113437074Y-55699815D01*
X112969573Y-56167315D01*
X112906520Y-56069202D01*
X112797859Y-55975048D01*
X112756476Y-55956149D01*
X113227831Y-55484794D01*
X113220759Y-55478349D01*
X113039556Y-55366153D01*
X112840819Y-55289162D01*
X112641424Y-55251889D01*
X112579143Y-55220221D01*
X112543870Y-55159908D01*
X112546804Y-55090100D01*
X112587013Y-55032960D01*
X112641424Y-55008111D01*
X112840819Y-54970837D01*
X113039557Y-54893846D01*
X113220755Y-54781654D01*
X113227830Y-54775203D01*
X112756477Y-54303850D01*
X112797859Y-54284952D01*
X112906520Y-54190798D01*
X112969574Y-54092683D01*
X113437075Y-54560184D01*
X113506698Y-54467989D01*
X113601696Y-54277208D01*
X113660021Y-54072219D01*
X113679685Y-53859999D01*
X113660021Y-53647780D01*
X113601696Y-53442791D01*
X113506698Y-53252010D01*
X113437074Y-53159815D01*
X112969573Y-53627315D01*
X112906520Y-53529202D01*
X112797859Y-53435048D01*
X112756477Y-53416149D01*
X113227831Y-52944795D01*
X113227831Y-52944794D01*
X113220759Y-52938349D01*
X113039556Y-52826153D01*
X112840819Y-52749162D01*
X112631320Y-52710000D01*
X112418198Y-52710000D01*
X112208698Y-52749162D01*
X112009960Y-52826153D01*
X111828760Y-52938347D01*
X111821685Y-52944794D01*
X111821685Y-52944795D01*
X112293040Y-53416149D01*
X112251659Y-53435048D01*
X112142998Y-53529202D01*
X112079944Y-53627316D01*
X111612442Y-53159814D01*
X111542817Y-53252011D01*
X111447821Y-53442791D01*
X111389496Y-53647780D01*
X111369832Y-53859999D01*
X111389496Y-54072219D01*
X111447821Y-54277208D01*
X111542818Y-54467989D01*
X111612442Y-54560184D01*
X112079943Y-54092683D01*
X112142998Y-54190798D01*
X112251659Y-54284952D01*
X112293039Y-54303850D01*
X111821685Y-54775203D01*
X111828761Y-54781652D01*
X112009961Y-54893846D01*
X112208698Y-54970837D01*
X112408093Y-55008111D01*
X112470374Y-55039779D01*
X112505647Y-55100092D01*
X112502713Y-55169900D01*
X112462504Y-55227040D01*
X112408093Y-55251889D01*
X112208698Y-55289162D01*
X112009960Y-55366153D01*
X111828760Y-55478347D01*
X111821685Y-55484794D01*
X111821685Y-55484796D01*
X112293039Y-55956150D01*
X112251659Y-55975048D01*
X112142998Y-56069202D01*
X112079944Y-56167316D01*
X111612442Y-55699814D01*
X111542817Y-55792011D01*
X111447821Y-55982791D01*
X111389496Y-56187780D01*
X111369832Y-56400000D01*
X110551152Y-56400000D01*
X106239449Y-52088296D01*
X106239434Y-52088283D01*
X106223101Y-52071950D01*
X106223100Y-52071949D01*
X106223098Y-52071947D01*
X106203358Y-52061889D01*
X106186773Y-52051726D01*
X106168849Y-52038704D01*
X106147779Y-52031858D01*
X106129803Y-52024412D01*
X106110061Y-52014353D01*
X106088177Y-52010886D01*
X106069266Y-52006346D01*
X106048194Y-51999500D01*
X106048192Y-51999500D01*
X106016278Y-51999500D01*
X94468481Y-51999500D01*
X94458224Y-51999500D01*
X94458212Y-51999501D01*
X94436567Y-51999501D01*
X94415499Y-52006346D01*
X94396583Y-52010887D01*
X94374695Y-52014354D01*
X94354951Y-52024413D01*
X94336984Y-52031855D01*
X94315910Y-52038703D01*
X94297984Y-52051727D01*
X94281398Y-52061891D01*
X94261658Y-52071949D01*
X94202952Y-52130650D01*
X94202771Y-52130835D01*
X89369516Y-56964091D01*
X89369513Y-56964094D01*
X89346949Y-56986657D01*
X89336892Y-57006396D01*
X89326731Y-57022979D01*
X89313702Y-57040913D01*
X89306854Y-57061987D01*
X89299412Y-57079954D01*
X89289353Y-57099697D01*
X89285886Y-57121582D01*
X89281347Y-57140491D01*
X89274500Y-57161566D01*
X89274500Y-57750469D01*
X89254815Y-57817508D01*
X89224134Y-57850239D01*
X89152848Y-57902850D01*
X89072207Y-58012115D01*
X89027353Y-58140303D01*
X89024770Y-58167848D01*
X89024769Y-58167861D01*
X89024500Y-58170734D01*
X89024500Y-58173626D01*
X89024500Y-58555941D01*
X89017542Y-58596895D01*
X89000369Y-58645973D01*
X88999500Y-58651089D01*
X88999500Y-58714261D01*
X88999413Y-58718898D01*
X88997050Y-58782029D01*
X88999500Y-58800635D01*
X88999500Y-60787371D01*
X88979815Y-60854410D01*
X88949134Y-60887141D01*
X88927848Y-60902850D01*
X88847207Y-61012115D01*
X88802353Y-61140303D01*
X88799770Y-61167848D01*
X88799769Y-61167861D01*
X88799500Y-61170734D01*
X88799500Y-61829266D01*
X88799769Y-61832139D01*
X88799770Y-61832151D01*
X88802353Y-61859696D01*
X88802353Y-61859698D01*
X88802354Y-61859699D01*
X88817247Y-61902260D01*
X88847207Y-61987882D01*
X88927848Y-62097148D01*
X88927849Y-62097148D01*
X88927850Y-62097150D01*
X88949134Y-62112858D01*
X88991384Y-62168502D01*
X88999500Y-62212627D01*
X88999500Y-63268920D01*
X88979815Y-63335959D01*
X88949134Y-63368690D01*
X88902848Y-63402850D01*
X88822207Y-63512115D01*
X88777353Y-63640303D01*
X88774770Y-63667848D01*
X88774769Y-63667861D01*
X88774500Y-63670734D01*
X88774500Y-64329266D01*
X88774769Y-64332139D01*
X88774770Y-64332151D01*
X88777353Y-64359696D01*
X88777353Y-64359698D01*
X88777354Y-64359699D01*
X88822207Y-64487882D01*
X88900270Y-64593655D01*
X88924241Y-64659282D01*
X88924500Y-64667287D01*
X88924500Y-66287371D01*
X88904815Y-66354410D01*
X88874134Y-66387141D01*
X88852848Y-66402850D01*
X88772207Y-66512115D01*
X88727353Y-66640303D01*
X88724770Y-66667848D01*
X88724769Y-66667861D01*
X88724500Y-66670734D01*
X88724500Y-67329266D01*
X88724769Y-67332139D01*
X88724770Y-67332151D01*
X88727353Y-67359696D01*
X88772207Y-67487884D01*
X88852849Y-67597150D01*
X88962115Y-67677792D01*
X88962118Y-67677793D01*
X89090301Y-67722646D01*
X89120734Y-67725500D01*
X89123627Y-67725500D01*
X89408745Y-67725500D01*
X89475784Y-67745185D01*
X89521539Y-67797989D01*
X89531483Y-67867147D01*
X89502458Y-67930703D01*
X89496426Y-67937181D01*
X88116715Y-69316891D01*
X88055392Y-69350376D01*
X87985700Y-69345392D01*
X87929767Y-69303520D01*
X87905350Y-69238056D01*
X87909202Y-69206474D01*
X87908899Y-69206443D01*
X87910260Y-69193485D01*
X87910262Y-69193482D01*
X87930598Y-69000000D01*
X87910262Y-68806518D01*
X87850144Y-68621492D01*
X87807508Y-68547644D01*
X87752870Y-68453007D01*
X87622691Y-68308429D01*
X87465300Y-68194078D01*
X87283822Y-68113280D01*
X87230585Y-68068030D01*
X87210263Y-68001181D01*
X87229308Y-67933957D01*
X87281674Y-67887701D01*
X87283822Y-67886720D01*
X87287571Y-67885051D01*
X87465299Y-67805922D01*
X87622692Y-67691569D01*
X87752870Y-67546992D01*
X87850144Y-67378508D01*
X87910262Y-67193482D01*
X87930598Y-67000000D01*
X87910262Y-66806518D01*
X87850144Y-66621492D01*
X87805739Y-66544580D01*
X87752870Y-66453007D01*
X87622691Y-66308429D01*
X87465300Y-66194078D01*
X87283822Y-66113280D01*
X87230585Y-66068030D01*
X87210263Y-66001181D01*
X87229308Y-65933957D01*
X87281674Y-65887701D01*
X87283822Y-65886720D01*
X87287571Y-65885051D01*
X87465299Y-65805922D01*
X87543995Y-65748745D01*
X87622691Y-65691570D01*
X87634893Y-65678019D01*
X87752870Y-65546992D01*
X87850144Y-65378508D01*
X87910262Y-65193482D01*
X87930598Y-65000000D01*
X87910262Y-64806518D01*
X87850144Y-64621492D01*
X87831984Y-64590037D01*
X87752870Y-64453007D01*
X87622691Y-64308429D01*
X87465300Y-64194078D01*
X87395002Y-64162780D01*
X87341765Y-64117530D01*
X87321443Y-64050681D01*
X87340488Y-63983457D01*
X87392854Y-63937201D01*
X87445437Y-63925500D01*
X87699675Y-63925500D01*
X87724029Y-63920655D01*
X87772740Y-63910966D01*
X87855601Y-63855601D01*
X87910966Y-63772740D01*
X87925500Y-63699674D01*
X87925500Y-62300326D01*
X87925318Y-62299413D01*
X87917840Y-62261819D01*
X87910966Y-62227260D01*
X87855601Y-62144399D01*
X87772740Y-62089034D01*
X87772739Y-62089033D01*
X87772738Y-62089033D01*
X87699675Y-62074500D01*
X87699674Y-62074500D01*
X86300326Y-62074500D01*
X86300325Y-62074500D01*
X86227261Y-62089033D01*
X86144399Y-62144399D01*
X86089033Y-62227261D01*
X86074500Y-62300325D01*
X86074500Y-63307745D01*
X86054815Y-63374784D01*
X86038181Y-63395426D01*
X85519513Y-63914094D01*
X85496949Y-63936657D01*
X85486892Y-63956396D01*
X85476731Y-63972979D01*
X85463702Y-63990913D01*
X85456854Y-64011987D01*
X85449412Y-64029954D01*
X85439353Y-64049697D01*
X85435886Y-64071582D01*
X85431347Y-64090491D01*
X85424500Y-64111566D01*
X85424500Y-95779425D01*
X85000500Y-95779425D01*
X85000500Y-52551568D01*
X85020185Y-52484529D01*
X85036814Y-52463892D01*
X85963888Y-51536818D01*
X86025211Y-51503334D01*
X86051569Y-51500500D01*
X123948430Y-51500500D01*
X124015469Y-51520185D01*
G37*
%TD.AperFunction*%
%TD*%
M02*
