%TF.GenerationSoftware,KiCad,Pcbnew,7.0.2*%
%TF.CreationDate,2023-07-25T22:56:35+09:00*%
%TF.ProjectId,bluepill_yoke,626c7565-7069-46c6-9c5f-796f6b652e6b,rev?*%
%TF.SameCoordinates,Original*%
%TF.FileFunction,Legend,Top*%
%TF.FilePolarity,Positive*%
%FSLAX46Y46*%
G04 Gerber Fmt 4.6, Leading zero omitted, Abs format (unit mm)*
G04 Created by KiCad (PCBNEW 7.0.2) date 2023-07-25 22:56:35*
%MOMM*%
%LPD*%
G01*
G04 APERTURE LIST*
%ADD10C,0.100000*%
%ADD11C,0.060000*%
%ADD12C,0.120000*%
G04 APERTURE END LIST*
D10*
X118142857Y-68126571D02*
X118142857Y-67526571D01*
X118142857Y-67526571D02*
X118285714Y-67526571D01*
X118285714Y-67526571D02*
X118371428Y-67555142D01*
X118371428Y-67555142D02*
X118428571Y-67612285D01*
X118428571Y-67612285D02*
X118457142Y-67669428D01*
X118457142Y-67669428D02*
X118485714Y-67783714D01*
X118485714Y-67783714D02*
X118485714Y-67869428D01*
X118485714Y-67869428D02*
X118457142Y-67983714D01*
X118457142Y-67983714D02*
X118428571Y-68040857D01*
X118428571Y-68040857D02*
X118371428Y-68098000D01*
X118371428Y-68098000D02*
X118285714Y-68126571D01*
X118285714Y-68126571D02*
X118142857Y-68126571D01*
X118742857Y-68126571D02*
X118742857Y-67526571D01*
X119142856Y-67526571D02*
X119257142Y-67526571D01*
X119257142Y-67526571D02*
X119314285Y-67555142D01*
X119314285Y-67555142D02*
X119371428Y-67612285D01*
X119371428Y-67612285D02*
X119399999Y-67726571D01*
X119399999Y-67726571D02*
X119399999Y-67926571D01*
X119399999Y-67926571D02*
X119371428Y-68040857D01*
X119371428Y-68040857D02*
X119314285Y-68098000D01*
X119314285Y-68098000D02*
X119257142Y-68126571D01*
X119257142Y-68126571D02*
X119142856Y-68126571D01*
X119142856Y-68126571D02*
X119085714Y-68098000D01*
X119085714Y-68098000D02*
X119028571Y-68040857D01*
X119028571Y-68040857D02*
X118999999Y-67926571D01*
X118999999Y-67926571D02*
X118999999Y-67726571D01*
X118999999Y-67726571D02*
X119028571Y-67612285D01*
X119028571Y-67612285D02*
X119085714Y-67555142D01*
X119085714Y-67555142D02*
X119142856Y-67526571D01*
X120457142Y-68069428D02*
X120428570Y-68098000D01*
X120428570Y-68098000D02*
X120342856Y-68126571D01*
X120342856Y-68126571D02*
X120285713Y-68126571D01*
X120285713Y-68126571D02*
X120199999Y-68098000D01*
X120199999Y-68098000D02*
X120142856Y-68040857D01*
X120142856Y-68040857D02*
X120114285Y-67983714D01*
X120114285Y-67983714D02*
X120085713Y-67869428D01*
X120085713Y-67869428D02*
X120085713Y-67783714D01*
X120085713Y-67783714D02*
X120114285Y-67669428D01*
X120114285Y-67669428D02*
X120142856Y-67612285D01*
X120142856Y-67612285D02*
X120199999Y-67555142D01*
X120199999Y-67555142D02*
X120285713Y-67526571D01*
X120285713Y-67526571D02*
X120342856Y-67526571D01*
X120342856Y-67526571D02*
X120428570Y-67555142D01*
X120428570Y-67555142D02*
X120457142Y-67583714D01*
X120999999Y-68126571D02*
X120714285Y-68126571D01*
X120714285Y-68126571D02*
X120714285Y-67526571D01*
X121199999Y-68126571D02*
X121199999Y-67526571D01*
X121542856Y-68126571D02*
X121285713Y-67783714D01*
X121542856Y-67526571D02*
X121199999Y-67869428D01*
X122571427Y-67555142D02*
X122514285Y-67526571D01*
X122514285Y-67526571D02*
X122428570Y-67526571D01*
X122428570Y-67526571D02*
X122342856Y-67555142D01*
X122342856Y-67555142D02*
X122285713Y-67612285D01*
X122285713Y-67612285D02*
X122257142Y-67669428D01*
X122257142Y-67669428D02*
X122228570Y-67783714D01*
X122228570Y-67783714D02*
X122228570Y-67869428D01*
X122228570Y-67869428D02*
X122257142Y-67983714D01*
X122257142Y-67983714D02*
X122285713Y-68040857D01*
X122285713Y-68040857D02*
X122342856Y-68098000D01*
X122342856Y-68098000D02*
X122428570Y-68126571D01*
X122428570Y-68126571D02*
X122485713Y-68126571D01*
X122485713Y-68126571D02*
X122571427Y-68098000D01*
X122571427Y-68098000D02*
X122599999Y-68069428D01*
X122599999Y-68069428D02*
X122599999Y-67869428D01*
X122599999Y-67869428D02*
X122485713Y-67869428D01*
X122857142Y-68126571D02*
X122857142Y-67526571D01*
X122857142Y-67526571D02*
X123199999Y-68126571D01*
X123199999Y-68126571D02*
X123199999Y-67526571D01*
X123485713Y-68126571D02*
X123485713Y-67526571D01*
X123485713Y-67526571D02*
X123628570Y-67526571D01*
X123628570Y-67526571D02*
X123714284Y-67555142D01*
X123714284Y-67555142D02*
X123771427Y-67612285D01*
X123771427Y-67612285D02*
X123799998Y-67669428D01*
X123799998Y-67669428D02*
X123828570Y-67783714D01*
X123828570Y-67783714D02*
X123828570Y-67869428D01*
X123828570Y-67869428D02*
X123799998Y-67983714D01*
X123799998Y-67983714D02*
X123771427Y-68040857D01*
X123771427Y-68040857D02*
X123714284Y-68098000D01*
X123714284Y-68098000D02*
X123628570Y-68126571D01*
X123628570Y-68126571D02*
X123485713Y-68126571D01*
X118378571Y-92926571D02*
X118719047Y-92926571D01*
X118719047Y-92926571D02*
X118535714Y-93155142D01*
X118535714Y-93155142D02*
X118614285Y-93155142D01*
X118614285Y-93155142D02*
X118666666Y-93183714D01*
X118666666Y-93183714D02*
X118692857Y-93212285D01*
X118692857Y-93212285D02*
X118719047Y-93269428D01*
X118719047Y-93269428D02*
X118719047Y-93412285D01*
X118719047Y-93412285D02*
X118692857Y-93469428D01*
X118692857Y-93469428D02*
X118666666Y-93498000D01*
X118666666Y-93498000D02*
X118614285Y-93526571D01*
X118614285Y-93526571D02*
X118457142Y-93526571D01*
X118457142Y-93526571D02*
X118404761Y-93498000D01*
X118404761Y-93498000D02*
X118378571Y-93469428D01*
X118876190Y-92926571D02*
X119059524Y-93526571D01*
X119059524Y-93526571D02*
X119242857Y-92926571D01*
X119373810Y-92926571D02*
X119714286Y-92926571D01*
X119714286Y-92926571D02*
X119530953Y-93155142D01*
X119530953Y-93155142D02*
X119609524Y-93155142D01*
X119609524Y-93155142D02*
X119661905Y-93183714D01*
X119661905Y-93183714D02*
X119688096Y-93212285D01*
X119688096Y-93212285D02*
X119714286Y-93269428D01*
X119714286Y-93269428D02*
X119714286Y-93412285D01*
X119714286Y-93412285D02*
X119688096Y-93469428D01*
X119688096Y-93469428D02*
X119661905Y-93498000D01*
X119661905Y-93498000D02*
X119609524Y-93526571D01*
X119609524Y-93526571D02*
X119452381Y-93526571D01*
X119452381Y-93526571D02*
X119400000Y-93498000D01*
X119400000Y-93498000D02*
X119373810Y-93469428D01*
X120369049Y-93526571D02*
X120369049Y-92926571D01*
X120369049Y-92926571D02*
X120578573Y-92926571D01*
X120578573Y-92926571D02*
X120630954Y-92955142D01*
X120630954Y-92955142D02*
X120657144Y-92983714D01*
X120657144Y-92983714D02*
X120683335Y-93040857D01*
X120683335Y-93040857D02*
X120683335Y-93126571D01*
X120683335Y-93126571D02*
X120657144Y-93183714D01*
X120657144Y-93183714D02*
X120630954Y-93212285D01*
X120630954Y-93212285D02*
X120578573Y-93240857D01*
X120578573Y-93240857D02*
X120369049Y-93240857D01*
X120892858Y-93355142D02*
X121154763Y-93355142D01*
X120840477Y-93526571D02*
X121023811Y-92926571D01*
X121023811Y-92926571D02*
X121207144Y-93526571D01*
X121495240Y-92926571D02*
X121547621Y-92926571D01*
X121547621Y-92926571D02*
X121600002Y-92955142D01*
X121600002Y-92955142D02*
X121626192Y-92983714D01*
X121626192Y-92983714D02*
X121652383Y-93040857D01*
X121652383Y-93040857D02*
X121678573Y-93155142D01*
X121678573Y-93155142D02*
X121678573Y-93298000D01*
X121678573Y-93298000D02*
X121652383Y-93412285D01*
X121652383Y-93412285D02*
X121626192Y-93469428D01*
X121626192Y-93469428D02*
X121600002Y-93498000D01*
X121600002Y-93498000D02*
X121547621Y-93526571D01*
X121547621Y-93526571D02*
X121495240Y-93526571D01*
X121495240Y-93526571D02*
X121442859Y-93498000D01*
X121442859Y-93498000D02*
X121416668Y-93469428D01*
X121416668Y-93469428D02*
X121390478Y-93412285D01*
X121390478Y-93412285D02*
X121364287Y-93298000D01*
X121364287Y-93298000D02*
X121364287Y-93155142D01*
X121364287Y-93155142D02*
X121390478Y-93040857D01*
X121390478Y-93040857D02*
X121416668Y-92983714D01*
X121416668Y-92983714D02*
X121442859Y-92955142D01*
X121442859Y-92955142D02*
X121495240Y-92926571D01*
X122621431Y-92955142D02*
X122569050Y-92926571D01*
X122569050Y-92926571D02*
X122490479Y-92926571D01*
X122490479Y-92926571D02*
X122411907Y-92955142D01*
X122411907Y-92955142D02*
X122359526Y-93012285D01*
X122359526Y-93012285D02*
X122333336Y-93069428D01*
X122333336Y-93069428D02*
X122307145Y-93183714D01*
X122307145Y-93183714D02*
X122307145Y-93269428D01*
X122307145Y-93269428D02*
X122333336Y-93383714D01*
X122333336Y-93383714D02*
X122359526Y-93440857D01*
X122359526Y-93440857D02*
X122411907Y-93498000D01*
X122411907Y-93498000D02*
X122490479Y-93526571D01*
X122490479Y-93526571D02*
X122542860Y-93526571D01*
X122542860Y-93526571D02*
X122621431Y-93498000D01*
X122621431Y-93498000D02*
X122647622Y-93469428D01*
X122647622Y-93469428D02*
X122647622Y-93269428D01*
X122647622Y-93269428D02*
X122542860Y-93269428D01*
X122883336Y-93526571D02*
X122883336Y-92926571D01*
X122883336Y-92926571D02*
X123197622Y-93526571D01*
X123197622Y-93526571D02*
X123197622Y-92926571D01*
X123459526Y-93526571D02*
X123459526Y-92926571D01*
X123459526Y-92926571D02*
X123590478Y-92926571D01*
X123590478Y-92926571D02*
X123669050Y-92955142D01*
X123669050Y-92955142D02*
X123721431Y-93012285D01*
X123721431Y-93012285D02*
X123747621Y-93069428D01*
X123747621Y-93069428D02*
X123773812Y-93183714D01*
X123773812Y-93183714D02*
X123773812Y-93269428D01*
X123773812Y-93269428D02*
X123747621Y-93383714D01*
X123747621Y-93383714D02*
X123721431Y-93440857D01*
X123721431Y-93440857D02*
X123669050Y-93498000D01*
X123669050Y-93498000D02*
X123590478Y-93526571D01*
X123590478Y-93526571D02*
X123459526Y-93526571D01*
X118278571Y-87426571D02*
X118619047Y-87426571D01*
X118619047Y-87426571D02*
X118435714Y-87655142D01*
X118435714Y-87655142D02*
X118514285Y-87655142D01*
X118514285Y-87655142D02*
X118566666Y-87683714D01*
X118566666Y-87683714D02*
X118592857Y-87712285D01*
X118592857Y-87712285D02*
X118619047Y-87769428D01*
X118619047Y-87769428D02*
X118619047Y-87912285D01*
X118619047Y-87912285D02*
X118592857Y-87969428D01*
X118592857Y-87969428D02*
X118566666Y-87998000D01*
X118566666Y-87998000D02*
X118514285Y-88026571D01*
X118514285Y-88026571D02*
X118357142Y-88026571D01*
X118357142Y-88026571D02*
X118304761Y-87998000D01*
X118304761Y-87998000D02*
X118278571Y-87969428D01*
X118776190Y-87426571D02*
X118959524Y-88026571D01*
X118959524Y-88026571D02*
X119142857Y-87426571D01*
X119273810Y-87426571D02*
X119614286Y-87426571D01*
X119614286Y-87426571D02*
X119430953Y-87655142D01*
X119430953Y-87655142D02*
X119509524Y-87655142D01*
X119509524Y-87655142D02*
X119561905Y-87683714D01*
X119561905Y-87683714D02*
X119588096Y-87712285D01*
X119588096Y-87712285D02*
X119614286Y-87769428D01*
X119614286Y-87769428D02*
X119614286Y-87912285D01*
X119614286Y-87912285D02*
X119588096Y-87969428D01*
X119588096Y-87969428D02*
X119561905Y-87998000D01*
X119561905Y-87998000D02*
X119509524Y-88026571D01*
X119509524Y-88026571D02*
X119352381Y-88026571D01*
X119352381Y-88026571D02*
X119300000Y-87998000D01*
X119300000Y-87998000D02*
X119273810Y-87969428D01*
X120269049Y-88026571D02*
X120269049Y-87426571D01*
X120269049Y-87426571D02*
X120478573Y-87426571D01*
X120478573Y-87426571D02*
X120530954Y-87455142D01*
X120530954Y-87455142D02*
X120557144Y-87483714D01*
X120557144Y-87483714D02*
X120583335Y-87540857D01*
X120583335Y-87540857D02*
X120583335Y-87626571D01*
X120583335Y-87626571D02*
X120557144Y-87683714D01*
X120557144Y-87683714D02*
X120530954Y-87712285D01*
X120530954Y-87712285D02*
X120478573Y-87740857D01*
X120478573Y-87740857D02*
X120269049Y-87740857D01*
X120792858Y-87855142D02*
X121054763Y-87855142D01*
X120740477Y-88026571D02*
X120923811Y-87426571D01*
X120923811Y-87426571D02*
X121107144Y-88026571D01*
X121578573Y-88026571D02*
X121264287Y-88026571D01*
X121421430Y-88026571D02*
X121421430Y-87426571D01*
X121421430Y-87426571D02*
X121369049Y-87512285D01*
X121369049Y-87512285D02*
X121316668Y-87569428D01*
X121316668Y-87569428D02*
X121264287Y-87598000D01*
X122521431Y-87455142D02*
X122469050Y-87426571D01*
X122469050Y-87426571D02*
X122390479Y-87426571D01*
X122390479Y-87426571D02*
X122311907Y-87455142D01*
X122311907Y-87455142D02*
X122259526Y-87512285D01*
X122259526Y-87512285D02*
X122233336Y-87569428D01*
X122233336Y-87569428D02*
X122207145Y-87683714D01*
X122207145Y-87683714D02*
X122207145Y-87769428D01*
X122207145Y-87769428D02*
X122233336Y-87883714D01*
X122233336Y-87883714D02*
X122259526Y-87940857D01*
X122259526Y-87940857D02*
X122311907Y-87998000D01*
X122311907Y-87998000D02*
X122390479Y-88026571D01*
X122390479Y-88026571D02*
X122442860Y-88026571D01*
X122442860Y-88026571D02*
X122521431Y-87998000D01*
X122521431Y-87998000D02*
X122547622Y-87969428D01*
X122547622Y-87969428D02*
X122547622Y-87769428D01*
X122547622Y-87769428D02*
X122442860Y-87769428D01*
X122783336Y-88026571D02*
X122783336Y-87426571D01*
X122783336Y-87426571D02*
X123097622Y-88026571D01*
X123097622Y-88026571D02*
X123097622Y-87426571D01*
X123359526Y-88026571D02*
X123359526Y-87426571D01*
X123359526Y-87426571D02*
X123490478Y-87426571D01*
X123490478Y-87426571D02*
X123569050Y-87455142D01*
X123569050Y-87455142D02*
X123621431Y-87512285D01*
X123621431Y-87512285D02*
X123647621Y-87569428D01*
X123647621Y-87569428D02*
X123673812Y-87683714D01*
X123673812Y-87683714D02*
X123673812Y-87769428D01*
X123673812Y-87769428D02*
X123647621Y-87883714D01*
X123647621Y-87883714D02*
X123621431Y-87940857D01*
X123621431Y-87940857D02*
X123569050Y-87998000D01*
X123569050Y-87998000D02*
X123490478Y-88026571D01*
X123490478Y-88026571D02*
X123359526Y-88026571D01*
X118178571Y-81726571D02*
X118519047Y-81726571D01*
X118519047Y-81726571D02*
X118335714Y-81955142D01*
X118335714Y-81955142D02*
X118414285Y-81955142D01*
X118414285Y-81955142D02*
X118466666Y-81983714D01*
X118466666Y-81983714D02*
X118492857Y-82012285D01*
X118492857Y-82012285D02*
X118519047Y-82069428D01*
X118519047Y-82069428D02*
X118519047Y-82212285D01*
X118519047Y-82212285D02*
X118492857Y-82269428D01*
X118492857Y-82269428D02*
X118466666Y-82298000D01*
X118466666Y-82298000D02*
X118414285Y-82326571D01*
X118414285Y-82326571D02*
X118257142Y-82326571D01*
X118257142Y-82326571D02*
X118204761Y-82298000D01*
X118204761Y-82298000D02*
X118178571Y-82269428D01*
X118676190Y-81726571D02*
X118859524Y-82326571D01*
X118859524Y-82326571D02*
X119042857Y-81726571D01*
X119173810Y-81726571D02*
X119514286Y-81726571D01*
X119514286Y-81726571D02*
X119330953Y-81955142D01*
X119330953Y-81955142D02*
X119409524Y-81955142D01*
X119409524Y-81955142D02*
X119461905Y-81983714D01*
X119461905Y-81983714D02*
X119488096Y-82012285D01*
X119488096Y-82012285D02*
X119514286Y-82069428D01*
X119514286Y-82069428D02*
X119514286Y-82212285D01*
X119514286Y-82212285D02*
X119488096Y-82269428D01*
X119488096Y-82269428D02*
X119461905Y-82298000D01*
X119461905Y-82298000D02*
X119409524Y-82326571D01*
X119409524Y-82326571D02*
X119252381Y-82326571D01*
X119252381Y-82326571D02*
X119200000Y-82298000D01*
X119200000Y-82298000D02*
X119173810Y-82269428D01*
X120169049Y-82326571D02*
X120169049Y-81726571D01*
X120169049Y-81726571D02*
X120378573Y-81726571D01*
X120378573Y-81726571D02*
X120430954Y-81755142D01*
X120430954Y-81755142D02*
X120457144Y-81783714D01*
X120457144Y-81783714D02*
X120483335Y-81840857D01*
X120483335Y-81840857D02*
X120483335Y-81926571D01*
X120483335Y-81926571D02*
X120457144Y-81983714D01*
X120457144Y-81983714D02*
X120430954Y-82012285D01*
X120430954Y-82012285D02*
X120378573Y-82040857D01*
X120378573Y-82040857D02*
X120169049Y-82040857D01*
X120692858Y-82155142D02*
X120954763Y-82155142D01*
X120640477Y-82326571D02*
X120823811Y-81726571D01*
X120823811Y-81726571D02*
X121007144Y-82326571D01*
X121164287Y-81783714D02*
X121190478Y-81755142D01*
X121190478Y-81755142D02*
X121242859Y-81726571D01*
X121242859Y-81726571D02*
X121373811Y-81726571D01*
X121373811Y-81726571D02*
X121426192Y-81755142D01*
X121426192Y-81755142D02*
X121452383Y-81783714D01*
X121452383Y-81783714D02*
X121478573Y-81840857D01*
X121478573Y-81840857D02*
X121478573Y-81898000D01*
X121478573Y-81898000D02*
X121452383Y-81983714D01*
X121452383Y-81983714D02*
X121138097Y-82326571D01*
X121138097Y-82326571D02*
X121478573Y-82326571D01*
X122421431Y-81755142D02*
X122369050Y-81726571D01*
X122369050Y-81726571D02*
X122290479Y-81726571D01*
X122290479Y-81726571D02*
X122211907Y-81755142D01*
X122211907Y-81755142D02*
X122159526Y-81812285D01*
X122159526Y-81812285D02*
X122133336Y-81869428D01*
X122133336Y-81869428D02*
X122107145Y-81983714D01*
X122107145Y-81983714D02*
X122107145Y-82069428D01*
X122107145Y-82069428D02*
X122133336Y-82183714D01*
X122133336Y-82183714D02*
X122159526Y-82240857D01*
X122159526Y-82240857D02*
X122211907Y-82298000D01*
X122211907Y-82298000D02*
X122290479Y-82326571D01*
X122290479Y-82326571D02*
X122342860Y-82326571D01*
X122342860Y-82326571D02*
X122421431Y-82298000D01*
X122421431Y-82298000D02*
X122447622Y-82269428D01*
X122447622Y-82269428D02*
X122447622Y-82069428D01*
X122447622Y-82069428D02*
X122342860Y-82069428D01*
X122683336Y-82326571D02*
X122683336Y-81726571D01*
X122683336Y-81726571D02*
X122997622Y-82326571D01*
X122997622Y-82326571D02*
X122997622Y-81726571D01*
X123259526Y-82326571D02*
X123259526Y-81726571D01*
X123259526Y-81726571D02*
X123390478Y-81726571D01*
X123390478Y-81726571D02*
X123469050Y-81755142D01*
X123469050Y-81755142D02*
X123521431Y-81812285D01*
X123521431Y-81812285D02*
X123547621Y-81869428D01*
X123547621Y-81869428D02*
X123573812Y-81983714D01*
X123573812Y-81983714D02*
X123573812Y-82069428D01*
X123573812Y-82069428D02*
X123547621Y-82183714D01*
X123547621Y-82183714D02*
X123521431Y-82240857D01*
X123521431Y-82240857D02*
X123469050Y-82298000D01*
X123469050Y-82298000D02*
X123390478Y-82326571D01*
X123390478Y-82326571D02*
X123259526Y-82326571D01*
X118178571Y-75626571D02*
X118519047Y-75626571D01*
X118519047Y-75626571D02*
X118335714Y-75855142D01*
X118335714Y-75855142D02*
X118414285Y-75855142D01*
X118414285Y-75855142D02*
X118466666Y-75883714D01*
X118466666Y-75883714D02*
X118492857Y-75912285D01*
X118492857Y-75912285D02*
X118519047Y-75969428D01*
X118519047Y-75969428D02*
X118519047Y-76112285D01*
X118519047Y-76112285D02*
X118492857Y-76169428D01*
X118492857Y-76169428D02*
X118466666Y-76198000D01*
X118466666Y-76198000D02*
X118414285Y-76226571D01*
X118414285Y-76226571D02*
X118257142Y-76226571D01*
X118257142Y-76226571D02*
X118204761Y-76198000D01*
X118204761Y-76198000D02*
X118178571Y-76169428D01*
X118676190Y-75626571D02*
X118859524Y-76226571D01*
X118859524Y-76226571D02*
X119042857Y-75626571D01*
X119173810Y-75626571D02*
X119514286Y-75626571D01*
X119514286Y-75626571D02*
X119330953Y-75855142D01*
X119330953Y-75855142D02*
X119409524Y-75855142D01*
X119409524Y-75855142D02*
X119461905Y-75883714D01*
X119461905Y-75883714D02*
X119488096Y-75912285D01*
X119488096Y-75912285D02*
X119514286Y-75969428D01*
X119514286Y-75969428D02*
X119514286Y-76112285D01*
X119514286Y-76112285D02*
X119488096Y-76169428D01*
X119488096Y-76169428D02*
X119461905Y-76198000D01*
X119461905Y-76198000D02*
X119409524Y-76226571D01*
X119409524Y-76226571D02*
X119252381Y-76226571D01*
X119252381Y-76226571D02*
X119200000Y-76198000D01*
X119200000Y-76198000D02*
X119173810Y-76169428D01*
X120169049Y-76226571D02*
X120169049Y-75626571D01*
X120169049Y-75626571D02*
X120378573Y-75626571D01*
X120378573Y-75626571D02*
X120430954Y-75655142D01*
X120430954Y-75655142D02*
X120457144Y-75683714D01*
X120457144Y-75683714D02*
X120483335Y-75740857D01*
X120483335Y-75740857D02*
X120483335Y-75826571D01*
X120483335Y-75826571D02*
X120457144Y-75883714D01*
X120457144Y-75883714D02*
X120430954Y-75912285D01*
X120430954Y-75912285D02*
X120378573Y-75940857D01*
X120378573Y-75940857D02*
X120169049Y-75940857D01*
X120692858Y-76055142D02*
X120954763Y-76055142D01*
X120640477Y-76226571D02*
X120823811Y-75626571D01*
X120823811Y-75626571D02*
X121007144Y-76226571D01*
X121138097Y-75626571D02*
X121478573Y-75626571D01*
X121478573Y-75626571D02*
X121295240Y-75855142D01*
X121295240Y-75855142D02*
X121373811Y-75855142D01*
X121373811Y-75855142D02*
X121426192Y-75883714D01*
X121426192Y-75883714D02*
X121452383Y-75912285D01*
X121452383Y-75912285D02*
X121478573Y-75969428D01*
X121478573Y-75969428D02*
X121478573Y-76112285D01*
X121478573Y-76112285D02*
X121452383Y-76169428D01*
X121452383Y-76169428D02*
X121426192Y-76198000D01*
X121426192Y-76198000D02*
X121373811Y-76226571D01*
X121373811Y-76226571D02*
X121216668Y-76226571D01*
X121216668Y-76226571D02*
X121164287Y-76198000D01*
X121164287Y-76198000D02*
X121138097Y-76169428D01*
X122421431Y-75655142D02*
X122369050Y-75626571D01*
X122369050Y-75626571D02*
X122290479Y-75626571D01*
X122290479Y-75626571D02*
X122211907Y-75655142D01*
X122211907Y-75655142D02*
X122159526Y-75712285D01*
X122159526Y-75712285D02*
X122133336Y-75769428D01*
X122133336Y-75769428D02*
X122107145Y-75883714D01*
X122107145Y-75883714D02*
X122107145Y-75969428D01*
X122107145Y-75969428D02*
X122133336Y-76083714D01*
X122133336Y-76083714D02*
X122159526Y-76140857D01*
X122159526Y-76140857D02*
X122211907Y-76198000D01*
X122211907Y-76198000D02*
X122290479Y-76226571D01*
X122290479Y-76226571D02*
X122342860Y-76226571D01*
X122342860Y-76226571D02*
X122421431Y-76198000D01*
X122421431Y-76198000D02*
X122447622Y-76169428D01*
X122447622Y-76169428D02*
X122447622Y-75969428D01*
X122447622Y-75969428D02*
X122342860Y-75969428D01*
X122683336Y-76226571D02*
X122683336Y-75626571D01*
X122683336Y-75626571D02*
X122997622Y-76226571D01*
X122997622Y-76226571D02*
X122997622Y-75626571D01*
X123259526Y-76226571D02*
X123259526Y-75626571D01*
X123259526Y-75626571D02*
X123390478Y-75626571D01*
X123390478Y-75626571D02*
X123469050Y-75655142D01*
X123469050Y-75655142D02*
X123521431Y-75712285D01*
X123521431Y-75712285D02*
X123547621Y-75769428D01*
X123547621Y-75769428D02*
X123573812Y-75883714D01*
X123573812Y-75883714D02*
X123573812Y-75969428D01*
X123573812Y-75969428D02*
X123547621Y-76083714D01*
X123547621Y-76083714D02*
X123521431Y-76140857D01*
X123521431Y-76140857D02*
X123469050Y-76198000D01*
X123469050Y-76198000D02*
X123390478Y-76226571D01*
X123390478Y-76226571D02*
X123259526Y-76226571D01*
X88773428Y-78835714D02*
X88773428Y-78940476D01*
X88773428Y-78940476D02*
X88744857Y-78992857D01*
X88744857Y-78992857D02*
X88687714Y-79045238D01*
X88687714Y-79045238D02*
X88573428Y-79071428D01*
X88573428Y-79071428D02*
X88373428Y-79071428D01*
X88373428Y-79071428D02*
X88259142Y-79045238D01*
X88259142Y-79045238D02*
X88202000Y-78992857D01*
X88202000Y-78992857D02*
X88173428Y-78940476D01*
X88173428Y-78940476D02*
X88173428Y-78835714D01*
X88173428Y-78835714D02*
X88202000Y-78783333D01*
X88202000Y-78783333D02*
X88259142Y-78730952D01*
X88259142Y-78730952D02*
X88373428Y-78704761D01*
X88373428Y-78704761D02*
X88573428Y-78704761D01*
X88573428Y-78704761D02*
X88687714Y-78730952D01*
X88687714Y-78730952D02*
X88744857Y-78783333D01*
X88744857Y-78783333D02*
X88773428Y-78835714D01*
X88173428Y-79621428D02*
X88459142Y-79438094D01*
X88173428Y-79307142D02*
X88773428Y-79307142D01*
X88773428Y-79307142D02*
X88773428Y-79516666D01*
X88773428Y-79516666D02*
X88744857Y-79569047D01*
X88744857Y-79569047D02*
X88716285Y-79595237D01*
X88716285Y-79595237D02*
X88659142Y-79621428D01*
X88659142Y-79621428D02*
X88573428Y-79621428D01*
X88573428Y-79621428D02*
X88516285Y-79595237D01*
X88516285Y-79595237D02*
X88487714Y-79569047D01*
X88487714Y-79569047D02*
X88459142Y-79516666D01*
X88459142Y-79516666D02*
X88459142Y-79307142D01*
X88744857Y-80145237D02*
X88773428Y-80092856D01*
X88773428Y-80092856D02*
X88773428Y-80014285D01*
X88773428Y-80014285D02*
X88744857Y-79935713D01*
X88744857Y-79935713D02*
X88687714Y-79883332D01*
X88687714Y-79883332D02*
X88630571Y-79857142D01*
X88630571Y-79857142D02*
X88516285Y-79830951D01*
X88516285Y-79830951D02*
X88430571Y-79830951D01*
X88430571Y-79830951D02*
X88316285Y-79857142D01*
X88316285Y-79857142D02*
X88259142Y-79883332D01*
X88259142Y-79883332D02*
X88202000Y-79935713D01*
X88202000Y-79935713D02*
X88173428Y-80014285D01*
X88173428Y-80014285D02*
X88173428Y-80066666D01*
X88173428Y-80066666D02*
X88202000Y-80145237D01*
X88202000Y-80145237D02*
X88230571Y-80171428D01*
X88230571Y-80171428D02*
X88430571Y-80171428D01*
X88430571Y-80171428D02*
X88430571Y-80066666D01*
X88173428Y-80826190D02*
X88773428Y-80826190D01*
X88773428Y-80826190D02*
X88773428Y-81035714D01*
X88773428Y-81035714D02*
X88744857Y-81088095D01*
X88744857Y-81088095D02*
X88716285Y-81114285D01*
X88716285Y-81114285D02*
X88659142Y-81140476D01*
X88659142Y-81140476D02*
X88573428Y-81140476D01*
X88573428Y-81140476D02*
X88516285Y-81114285D01*
X88516285Y-81114285D02*
X88487714Y-81088095D01*
X88487714Y-81088095D02*
X88459142Y-81035714D01*
X88459142Y-81035714D02*
X88459142Y-80826190D01*
X88173428Y-81376190D02*
X88773428Y-81376190D01*
X88773428Y-81376190D02*
X88773428Y-81585714D01*
X88773428Y-81585714D02*
X88744857Y-81638095D01*
X88744857Y-81638095D02*
X88716285Y-81664285D01*
X88716285Y-81664285D02*
X88659142Y-81690476D01*
X88659142Y-81690476D02*
X88573428Y-81690476D01*
X88573428Y-81690476D02*
X88516285Y-81664285D01*
X88516285Y-81664285D02*
X88487714Y-81638095D01*
X88487714Y-81638095D02*
X88459142Y-81585714D01*
X88459142Y-81585714D02*
X88459142Y-81376190D01*
X88173428Y-82188095D02*
X88173428Y-81926190D01*
X88173428Y-81926190D02*
X88773428Y-81926190D01*
X88773428Y-82738095D02*
X88173428Y-82869047D01*
X88173428Y-82869047D02*
X88602000Y-82973809D01*
X88602000Y-82973809D02*
X88173428Y-83078571D01*
X88173428Y-83078571D02*
X88773428Y-83209524D01*
X88173428Y-83419047D02*
X88773428Y-83419047D01*
X88487714Y-83419047D02*
X88487714Y-83733333D01*
X88173428Y-83733333D02*
X88773428Y-83733333D01*
X88773428Y-83916665D02*
X88773428Y-84230951D01*
X88173428Y-84073808D02*
X88773428Y-84073808D01*
X88744857Y-85121428D02*
X88773428Y-85069047D01*
X88773428Y-85069047D02*
X88773428Y-84990476D01*
X88773428Y-84990476D02*
X88744857Y-84911904D01*
X88744857Y-84911904D02*
X88687714Y-84859523D01*
X88687714Y-84859523D02*
X88630571Y-84833333D01*
X88630571Y-84833333D02*
X88516285Y-84807142D01*
X88516285Y-84807142D02*
X88430571Y-84807142D01*
X88430571Y-84807142D02*
X88316285Y-84833333D01*
X88316285Y-84833333D02*
X88259142Y-84859523D01*
X88259142Y-84859523D02*
X88202000Y-84911904D01*
X88202000Y-84911904D02*
X88173428Y-84990476D01*
X88173428Y-84990476D02*
X88173428Y-85042857D01*
X88173428Y-85042857D02*
X88202000Y-85121428D01*
X88202000Y-85121428D02*
X88230571Y-85147619D01*
X88230571Y-85147619D02*
X88430571Y-85147619D01*
X88430571Y-85147619D02*
X88430571Y-85042857D01*
X88173428Y-85697619D02*
X88459142Y-85514285D01*
X88173428Y-85383333D02*
X88773428Y-85383333D01*
X88773428Y-85383333D02*
X88773428Y-85592857D01*
X88773428Y-85592857D02*
X88744857Y-85645238D01*
X88744857Y-85645238D02*
X88716285Y-85671428D01*
X88716285Y-85671428D02*
X88659142Y-85697619D01*
X88659142Y-85697619D02*
X88573428Y-85697619D01*
X88573428Y-85697619D02*
X88516285Y-85671428D01*
X88516285Y-85671428D02*
X88487714Y-85645238D01*
X88487714Y-85645238D02*
X88459142Y-85592857D01*
X88459142Y-85592857D02*
X88459142Y-85383333D01*
X88459142Y-86038095D02*
X88173428Y-86038095D01*
X88773428Y-85854761D02*
X88459142Y-86038095D01*
X88459142Y-86038095D02*
X88773428Y-86221428D01*
X88487714Y-87007143D02*
X88459142Y-87085715D01*
X88459142Y-87085715D02*
X88430571Y-87111905D01*
X88430571Y-87111905D02*
X88373428Y-87138096D01*
X88373428Y-87138096D02*
X88287714Y-87138096D01*
X88287714Y-87138096D02*
X88230571Y-87111905D01*
X88230571Y-87111905D02*
X88202000Y-87085715D01*
X88202000Y-87085715D02*
X88173428Y-87033334D01*
X88173428Y-87033334D02*
X88173428Y-86823810D01*
X88173428Y-86823810D02*
X88773428Y-86823810D01*
X88773428Y-86823810D02*
X88773428Y-87007143D01*
X88773428Y-87007143D02*
X88744857Y-87059524D01*
X88744857Y-87059524D02*
X88716285Y-87085715D01*
X88716285Y-87085715D02*
X88659142Y-87111905D01*
X88659142Y-87111905D02*
X88602000Y-87111905D01*
X88602000Y-87111905D02*
X88544857Y-87085715D01*
X88544857Y-87085715D02*
X88516285Y-87059524D01*
X88516285Y-87059524D02*
X88487714Y-87007143D01*
X88487714Y-87007143D02*
X88487714Y-86823810D01*
X88173428Y-87635715D02*
X88173428Y-87373810D01*
X88173428Y-87373810D02*
X88773428Y-87373810D01*
X88173428Y-87819048D02*
X88773428Y-87819048D01*
X88173428Y-88133334D02*
X88516285Y-87897619D01*
X88773428Y-88133334D02*
X88430571Y-87819048D01*
X88487714Y-88971429D02*
X88459142Y-89050001D01*
X88459142Y-89050001D02*
X88430571Y-89076191D01*
X88430571Y-89076191D02*
X88373428Y-89102382D01*
X88373428Y-89102382D02*
X88287714Y-89102382D01*
X88287714Y-89102382D02*
X88230571Y-89076191D01*
X88230571Y-89076191D02*
X88202000Y-89050001D01*
X88202000Y-89050001D02*
X88173428Y-88997620D01*
X88173428Y-88997620D02*
X88173428Y-88788096D01*
X88173428Y-88788096D02*
X88773428Y-88788096D01*
X88773428Y-88788096D02*
X88773428Y-88971429D01*
X88773428Y-88971429D02*
X88744857Y-89023810D01*
X88744857Y-89023810D02*
X88716285Y-89050001D01*
X88716285Y-89050001D02*
X88659142Y-89076191D01*
X88659142Y-89076191D02*
X88602000Y-89076191D01*
X88602000Y-89076191D02*
X88544857Y-89050001D01*
X88544857Y-89050001D02*
X88516285Y-89023810D01*
X88516285Y-89023810D02*
X88487714Y-88971429D01*
X88487714Y-88971429D02*
X88487714Y-88788096D01*
X88173428Y-89600001D02*
X88173428Y-89338096D01*
X88173428Y-89338096D02*
X88773428Y-89338096D01*
X88773428Y-89783334D02*
X88287714Y-89783334D01*
X88287714Y-89783334D02*
X88230571Y-89809524D01*
X88230571Y-89809524D02*
X88202000Y-89835715D01*
X88202000Y-89835715D02*
X88173428Y-89888096D01*
X88173428Y-89888096D02*
X88173428Y-89992858D01*
X88173428Y-89992858D02*
X88202000Y-90045239D01*
X88202000Y-90045239D02*
X88230571Y-90071429D01*
X88230571Y-90071429D02*
X88287714Y-90097620D01*
X88287714Y-90097620D02*
X88773428Y-90097620D01*
X88487714Y-90961905D02*
X88459142Y-91040477D01*
X88459142Y-91040477D02*
X88430571Y-91066667D01*
X88430571Y-91066667D02*
X88373428Y-91092858D01*
X88373428Y-91092858D02*
X88287714Y-91092858D01*
X88287714Y-91092858D02*
X88230571Y-91066667D01*
X88230571Y-91066667D02*
X88202000Y-91040477D01*
X88202000Y-91040477D02*
X88173428Y-90988096D01*
X88173428Y-90988096D02*
X88173428Y-90778572D01*
X88173428Y-90778572D02*
X88773428Y-90778572D01*
X88773428Y-90778572D02*
X88773428Y-90961905D01*
X88773428Y-90961905D02*
X88744857Y-91014286D01*
X88744857Y-91014286D02*
X88716285Y-91040477D01*
X88716285Y-91040477D02*
X88659142Y-91066667D01*
X88659142Y-91066667D02*
X88602000Y-91066667D01*
X88602000Y-91066667D02*
X88544857Y-91040477D01*
X88544857Y-91040477D02*
X88516285Y-91014286D01*
X88516285Y-91014286D02*
X88487714Y-90961905D01*
X88487714Y-90961905D02*
X88487714Y-90778572D01*
X88173428Y-91642858D02*
X88459142Y-91459524D01*
X88173428Y-91328572D02*
X88773428Y-91328572D01*
X88773428Y-91328572D02*
X88773428Y-91538096D01*
X88773428Y-91538096D02*
X88744857Y-91590477D01*
X88744857Y-91590477D02*
X88716285Y-91616667D01*
X88716285Y-91616667D02*
X88659142Y-91642858D01*
X88659142Y-91642858D02*
X88573428Y-91642858D01*
X88573428Y-91642858D02*
X88516285Y-91616667D01*
X88516285Y-91616667D02*
X88487714Y-91590477D01*
X88487714Y-91590477D02*
X88459142Y-91538096D01*
X88459142Y-91538096D02*
X88459142Y-91328572D01*
X88173428Y-91878572D02*
X88773428Y-91878572D01*
X88773428Y-91878572D02*
X88173428Y-92192858D01*
X88173428Y-92192858D02*
X88773428Y-92192858D01*
X88459142Y-92978572D02*
X88173428Y-92978572D01*
X88773428Y-92795238D02*
X88459142Y-92978572D01*
X88459142Y-92978572D02*
X88773428Y-93161905D01*
X88487714Y-93345239D02*
X88487714Y-93528572D01*
X88173428Y-93607144D02*
X88173428Y-93345239D01*
X88173428Y-93345239D02*
X88773428Y-93345239D01*
X88773428Y-93345239D02*
X88773428Y-93607144D01*
X88173428Y-94104763D02*
X88173428Y-93842858D01*
X88173428Y-93842858D02*
X88773428Y-93842858D01*
X88744857Y-94995239D02*
X88773428Y-94942858D01*
X88773428Y-94942858D02*
X88773428Y-94864287D01*
X88773428Y-94864287D02*
X88744857Y-94785715D01*
X88744857Y-94785715D02*
X88687714Y-94733334D01*
X88687714Y-94733334D02*
X88630571Y-94707144D01*
X88630571Y-94707144D02*
X88516285Y-94680953D01*
X88516285Y-94680953D02*
X88430571Y-94680953D01*
X88430571Y-94680953D02*
X88316285Y-94707144D01*
X88316285Y-94707144D02*
X88259142Y-94733334D01*
X88259142Y-94733334D02*
X88202000Y-94785715D01*
X88202000Y-94785715D02*
X88173428Y-94864287D01*
X88173428Y-94864287D02*
X88173428Y-94916668D01*
X88173428Y-94916668D02*
X88202000Y-94995239D01*
X88202000Y-94995239D02*
X88230571Y-95021430D01*
X88230571Y-95021430D02*
X88430571Y-95021430D01*
X88430571Y-95021430D02*
X88430571Y-94916668D01*
X88173428Y-95257144D02*
X88773428Y-95257144D01*
X88773428Y-95257144D02*
X88173428Y-95571430D01*
X88173428Y-95571430D02*
X88773428Y-95571430D01*
X88173428Y-95833334D02*
X88773428Y-95833334D01*
X88773428Y-95833334D02*
X88773428Y-95964286D01*
X88773428Y-95964286D02*
X88744857Y-96042858D01*
X88744857Y-96042858D02*
X88687714Y-96095239D01*
X88687714Y-96095239D02*
X88630571Y-96121429D01*
X88630571Y-96121429D02*
X88516285Y-96147620D01*
X88516285Y-96147620D02*
X88430571Y-96147620D01*
X88430571Y-96147620D02*
X88316285Y-96121429D01*
X88316285Y-96121429D02*
X88259142Y-96095239D01*
X88259142Y-96095239D02*
X88202000Y-96042858D01*
X88202000Y-96042858D02*
X88173428Y-95964286D01*
X88173428Y-95964286D02*
X88173428Y-95833334D01*
X88487714Y-62614285D02*
X88459142Y-62692857D01*
X88459142Y-62692857D02*
X88430571Y-62719047D01*
X88430571Y-62719047D02*
X88373428Y-62745238D01*
X88373428Y-62745238D02*
X88287714Y-62745238D01*
X88287714Y-62745238D02*
X88230571Y-62719047D01*
X88230571Y-62719047D02*
X88202000Y-62692857D01*
X88202000Y-62692857D02*
X88173428Y-62640476D01*
X88173428Y-62640476D02*
X88173428Y-62430952D01*
X88173428Y-62430952D02*
X88773428Y-62430952D01*
X88773428Y-62430952D02*
X88773428Y-62614285D01*
X88773428Y-62614285D02*
X88744857Y-62666666D01*
X88744857Y-62666666D02*
X88716285Y-62692857D01*
X88716285Y-62692857D02*
X88659142Y-62719047D01*
X88659142Y-62719047D02*
X88602000Y-62719047D01*
X88602000Y-62719047D02*
X88544857Y-62692857D01*
X88544857Y-62692857D02*
X88516285Y-62666666D01*
X88516285Y-62666666D02*
X88487714Y-62614285D01*
X88487714Y-62614285D02*
X88487714Y-62430952D01*
X88173428Y-63242857D02*
X88173428Y-62980952D01*
X88173428Y-62980952D02*
X88773428Y-62980952D01*
X88773428Y-63426190D02*
X88287714Y-63426190D01*
X88287714Y-63426190D02*
X88230571Y-63452380D01*
X88230571Y-63452380D02*
X88202000Y-63478571D01*
X88202000Y-63478571D02*
X88173428Y-63530952D01*
X88173428Y-63530952D02*
X88173428Y-63635714D01*
X88173428Y-63635714D02*
X88202000Y-63688095D01*
X88202000Y-63688095D02*
X88230571Y-63714285D01*
X88230571Y-63714285D02*
X88287714Y-63740476D01*
X88287714Y-63740476D02*
X88773428Y-63740476D01*
X88744857Y-64709523D02*
X88773428Y-64657142D01*
X88773428Y-64657142D02*
X88773428Y-64578571D01*
X88773428Y-64578571D02*
X88744857Y-64499999D01*
X88744857Y-64499999D02*
X88687714Y-64447618D01*
X88687714Y-64447618D02*
X88630571Y-64421428D01*
X88630571Y-64421428D02*
X88516285Y-64395237D01*
X88516285Y-64395237D02*
X88430571Y-64395237D01*
X88430571Y-64395237D02*
X88316285Y-64421428D01*
X88316285Y-64421428D02*
X88259142Y-64447618D01*
X88259142Y-64447618D02*
X88202000Y-64499999D01*
X88202000Y-64499999D02*
X88173428Y-64578571D01*
X88173428Y-64578571D02*
X88173428Y-64630952D01*
X88173428Y-64630952D02*
X88202000Y-64709523D01*
X88202000Y-64709523D02*
X88230571Y-64735714D01*
X88230571Y-64735714D02*
X88430571Y-64735714D01*
X88430571Y-64735714D02*
X88430571Y-64630952D01*
X88173428Y-65285714D02*
X88459142Y-65102380D01*
X88173428Y-64971428D02*
X88773428Y-64971428D01*
X88773428Y-64971428D02*
X88773428Y-65180952D01*
X88773428Y-65180952D02*
X88744857Y-65233333D01*
X88744857Y-65233333D02*
X88716285Y-65259523D01*
X88716285Y-65259523D02*
X88659142Y-65285714D01*
X88659142Y-65285714D02*
X88573428Y-65285714D01*
X88573428Y-65285714D02*
X88516285Y-65259523D01*
X88516285Y-65259523D02*
X88487714Y-65233333D01*
X88487714Y-65233333D02*
X88459142Y-65180952D01*
X88459142Y-65180952D02*
X88459142Y-64971428D01*
X88459142Y-65626190D02*
X88173428Y-65626190D01*
X88773428Y-65442856D02*
X88459142Y-65626190D01*
X88459142Y-65626190D02*
X88773428Y-65809523D01*
X88773428Y-66359524D02*
X88173428Y-66490476D01*
X88173428Y-66490476D02*
X88602000Y-66595238D01*
X88602000Y-66595238D02*
X88173428Y-66700000D01*
X88173428Y-66700000D02*
X88773428Y-66830953D01*
X88173428Y-67040476D02*
X88773428Y-67040476D01*
X88487714Y-67040476D02*
X88487714Y-67354762D01*
X88173428Y-67354762D02*
X88773428Y-67354762D01*
X88773428Y-67538094D02*
X88773428Y-67852380D01*
X88173428Y-67695237D02*
X88773428Y-67695237D01*
X88173428Y-68454762D02*
X88773428Y-68454762D01*
X88773428Y-68454762D02*
X88773428Y-68664286D01*
X88773428Y-68664286D02*
X88744857Y-68716667D01*
X88744857Y-68716667D02*
X88716285Y-68742857D01*
X88716285Y-68742857D02*
X88659142Y-68769048D01*
X88659142Y-68769048D02*
X88573428Y-68769048D01*
X88573428Y-68769048D02*
X88516285Y-68742857D01*
X88516285Y-68742857D02*
X88487714Y-68716667D01*
X88487714Y-68716667D02*
X88459142Y-68664286D01*
X88459142Y-68664286D02*
X88459142Y-68454762D01*
X88173428Y-69004762D02*
X88773428Y-69004762D01*
X88773428Y-69004762D02*
X88773428Y-69214286D01*
X88773428Y-69214286D02*
X88744857Y-69266667D01*
X88744857Y-69266667D02*
X88716285Y-69292857D01*
X88716285Y-69292857D02*
X88659142Y-69319048D01*
X88659142Y-69319048D02*
X88573428Y-69319048D01*
X88573428Y-69319048D02*
X88516285Y-69292857D01*
X88516285Y-69292857D02*
X88487714Y-69266667D01*
X88487714Y-69266667D02*
X88459142Y-69214286D01*
X88459142Y-69214286D02*
X88459142Y-69004762D01*
X88173428Y-69816667D02*
X88173428Y-69554762D01*
X88173428Y-69554762D02*
X88773428Y-69554762D01*
X88773428Y-70523810D02*
X88773428Y-70628572D01*
X88773428Y-70628572D02*
X88744857Y-70680953D01*
X88744857Y-70680953D02*
X88687714Y-70733334D01*
X88687714Y-70733334D02*
X88573428Y-70759524D01*
X88573428Y-70759524D02*
X88373428Y-70759524D01*
X88373428Y-70759524D02*
X88259142Y-70733334D01*
X88259142Y-70733334D02*
X88202000Y-70680953D01*
X88202000Y-70680953D02*
X88173428Y-70628572D01*
X88173428Y-70628572D02*
X88173428Y-70523810D01*
X88173428Y-70523810D02*
X88202000Y-70471429D01*
X88202000Y-70471429D02*
X88259142Y-70419048D01*
X88259142Y-70419048D02*
X88373428Y-70392857D01*
X88373428Y-70392857D02*
X88573428Y-70392857D01*
X88573428Y-70392857D02*
X88687714Y-70419048D01*
X88687714Y-70419048D02*
X88744857Y-70471429D01*
X88744857Y-70471429D02*
X88773428Y-70523810D01*
X88173428Y-71309524D02*
X88459142Y-71126190D01*
X88173428Y-70995238D02*
X88773428Y-70995238D01*
X88773428Y-70995238D02*
X88773428Y-71204762D01*
X88773428Y-71204762D02*
X88744857Y-71257143D01*
X88744857Y-71257143D02*
X88716285Y-71283333D01*
X88716285Y-71283333D02*
X88659142Y-71309524D01*
X88659142Y-71309524D02*
X88573428Y-71309524D01*
X88573428Y-71309524D02*
X88516285Y-71283333D01*
X88516285Y-71283333D02*
X88487714Y-71257143D01*
X88487714Y-71257143D02*
X88459142Y-71204762D01*
X88459142Y-71204762D02*
X88459142Y-70995238D01*
X88744857Y-71833333D02*
X88773428Y-71780952D01*
X88773428Y-71780952D02*
X88773428Y-71702381D01*
X88773428Y-71702381D02*
X88744857Y-71623809D01*
X88744857Y-71623809D02*
X88687714Y-71571428D01*
X88687714Y-71571428D02*
X88630571Y-71545238D01*
X88630571Y-71545238D02*
X88516285Y-71519047D01*
X88516285Y-71519047D02*
X88430571Y-71519047D01*
X88430571Y-71519047D02*
X88316285Y-71545238D01*
X88316285Y-71545238D02*
X88259142Y-71571428D01*
X88259142Y-71571428D02*
X88202000Y-71623809D01*
X88202000Y-71623809D02*
X88173428Y-71702381D01*
X88173428Y-71702381D02*
X88173428Y-71754762D01*
X88173428Y-71754762D02*
X88202000Y-71833333D01*
X88202000Y-71833333D02*
X88230571Y-71859524D01*
X88230571Y-71859524D02*
X88430571Y-71859524D01*
X88430571Y-71859524D02*
X88430571Y-71754762D01*
X88744857Y-72802381D02*
X88773428Y-72750000D01*
X88773428Y-72750000D02*
X88773428Y-72671429D01*
X88773428Y-72671429D02*
X88744857Y-72592857D01*
X88744857Y-72592857D02*
X88687714Y-72540476D01*
X88687714Y-72540476D02*
X88630571Y-72514286D01*
X88630571Y-72514286D02*
X88516285Y-72488095D01*
X88516285Y-72488095D02*
X88430571Y-72488095D01*
X88430571Y-72488095D02*
X88316285Y-72514286D01*
X88316285Y-72514286D02*
X88259142Y-72540476D01*
X88259142Y-72540476D02*
X88202000Y-72592857D01*
X88202000Y-72592857D02*
X88173428Y-72671429D01*
X88173428Y-72671429D02*
X88173428Y-72723810D01*
X88173428Y-72723810D02*
X88202000Y-72802381D01*
X88202000Y-72802381D02*
X88230571Y-72828572D01*
X88230571Y-72828572D02*
X88430571Y-72828572D01*
X88430571Y-72828572D02*
X88430571Y-72723810D01*
X88173428Y-73378572D02*
X88459142Y-73195238D01*
X88173428Y-73064286D02*
X88773428Y-73064286D01*
X88773428Y-73064286D02*
X88773428Y-73273810D01*
X88773428Y-73273810D02*
X88744857Y-73326191D01*
X88744857Y-73326191D02*
X88716285Y-73352381D01*
X88716285Y-73352381D02*
X88659142Y-73378572D01*
X88659142Y-73378572D02*
X88573428Y-73378572D01*
X88573428Y-73378572D02*
X88516285Y-73352381D01*
X88516285Y-73352381D02*
X88487714Y-73326191D01*
X88487714Y-73326191D02*
X88459142Y-73273810D01*
X88459142Y-73273810D02*
X88459142Y-73064286D01*
X88173428Y-73614286D02*
X88773428Y-73614286D01*
X88773428Y-73614286D02*
X88173428Y-73928572D01*
X88173428Y-73928572D02*
X88773428Y-73928572D01*
X88459142Y-74714286D02*
X88173428Y-74714286D01*
X88773428Y-74530952D02*
X88459142Y-74714286D01*
X88459142Y-74714286D02*
X88773428Y-74897619D01*
X88487714Y-75080953D02*
X88487714Y-75264286D01*
X88173428Y-75342858D02*
X88173428Y-75080953D01*
X88173428Y-75080953D02*
X88773428Y-75080953D01*
X88773428Y-75080953D02*
X88773428Y-75342858D01*
X88173428Y-75840477D02*
X88173428Y-75578572D01*
X88173428Y-75578572D02*
X88773428Y-75578572D01*
X93059142Y-70335714D02*
X92773428Y-70335714D01*
X93373428Y-70152380D02*
X93059142Y-70335714D01*
X93059142Y-70335714D02*
X93373428Y-70519047D01*
X93087714Y-70702381D02*
X93087714Y-70885714D01*
X92773428Y-70964286D02*
X92773428Y-70702381D01*
X92773428Y-70702381D02*
X93373428Y-70702381D01*
X93373428Y-70702381D02*
X93373428Y-70964286D01*
X92773428Y-71461905D02*
X92773428Y-71200000D01*
X92773428Y-71200000D02*
X93373428Y-71200000D01*
X93087714Y-72247619D02*
X93059142Y-72326191D01*
X93059142Y-72326191D02*
X93030571Y-72352381D01*
X93030571Y-72352381D02*
X92973428Y-72378572D01*
X92973428Y-72378572D02*
X92887714Y-72378572D01*
X92887714Y-72378572D02*
X92830571Y-72352381D01*
X92830571Y-72352381D02*
X92802000Y-72326191D01*
X92802000Y-72326191D02*
X92773428Y-72273810D01*
X92773428Y-72273810D02*
X92773428Y-72064286D01*
X92773428Y-72064286D02*
X93373428Y-72064286D01*
X93373428Y-72064286D02*
X93373428Y-72247619D01*
X93373428Y-72247619D02*
X93344857Y-72300000D01*
X93344857Y-72300000D02*
X93316285Y-72326191D01*
X93316285Y-72326191D02*
X93259142Y-72352381D01*
X93259142Y-72352381D02*
X93202000Y-72352381D01*
X93202000Y-72352381D02*
X93144857Y-72326191D01*
X93144857Y-72326191D02*
X93116285Y-72300000D01*
X93116285Y-72300000D02*
X93087714Y-72247619D01*
X93087714Y-72247619D02*
X93087714Y-72064286D01*
X92773428Y-72876191D02*
X92773428Y-72614286D01*
X92773428Y-72614286D02*
X93373428Y-72614286D01*
X93373428Y-73059524D02*
X92887714Y-73059524D01*
X92887714Y-73059524D02*
X92830571Y-73085714D01*
X92830571Y-73085714D02*
X92802000Y-73111905D01*
X92802000Y-73111905D02*
X92773428Y-73164286D01*
X92773428Y-73164286D02*
X92773428Y-73269048D01*
X92773428Y-73269048D02*
X92802000Y-73321429D01*
X92802000Y-73321429D02*
X92830571Y-73347619D01*
X92830571Y-73347619D02*
X92887714Y-73373810D01*
X92887714Y-73373810D02*
X93373428Y-73373810D01*
X93344857Y-74342857D02*
X93373428Y-74290476D01*
X93373428Y-74290476D02*
X93373428Y-74211905D01*
X93373428Y-74211905D02*
X93344857Y-74133333D01*
X93344857Y-74133333D02*
X93287714Y-74080952D01*
X93287714Y-74080952D02*
X93230571Y-74054762D01*
X93230571Y-74054762D02*
X93116285Y-74028571D01*
X93116285Y-74028571D02*
X93030571Y-74028571D01*
X93030571Y-74028571D02*
X92916285Y-74054762D01*
X92916285Y-74054762D02*
X92859142Y-74080952D01*
X92859142Y-74080952D02*
X92802000Y-74133333D01*
X92802000Y-74133333D02*
X92773428Y-74211905D01*
X92773428Y-74211905D02*
X92773428Y-74264286D01*
X92773428Y-74264286D02*
X92802000Y-74342857D01*
X92802000Y-74342857D02*
X92830571Y-74369048D01*
X92830571Y-74369048D02*
X93030571Y-74369048D01*
X93030571Y-74369048D02*
X93030571Y-74264286D01*
X92773428Y-74919048D02*
X93059142Y-74735714D01*
X92773428Y-74604762D02*
X93373428Y-74604762D01*
X93373428Y-74604762D02*
X93373428Y-74814286D01*
X93373428Y-74814286D02*
X93344857Y-74866667D01*
X93344857Y-74866667D02*
X93316285Y-74892857D01*
X93316285Y-74892857D02*
X93259142Y-74919048D01*
X93259142Y-74919048D02*
X93173428Y-74919048D01*
X93173428Y-74919048D02*
X93116285Y-74892857D01*
X93116285Y-74892857D02*
X93087714Y-74866667D01*
X93087714Y-74866667D02*
X93059142Y-74814286D01*
X93059142Y-74814286D02*
X93059142Y-74604762D01*
X93059142Y-75259524D02*
X92773428Y-75259524D01*
X93373428Y-75076190D02*
X93059142Y-75259524D01*
X93059142Y-75259524D02*
X93373428Y-75442857D01*
D11*
%TO.C,J9*%
X123299999Y-64077571D02*
X123299999Y-64506142D01*
X123299999Y-64506142D02*
X123271428Y-64591857D01*
X123271428Y-64591857D02*
X123214285Y-64649000D01*
X123214285Y-64649000D02*
X123128571Y-64677571D01*
X123128571Y-64677571D02*
X123071428Y-64677571D01*
X123614285Y-64677571D02*
X123728571Y-64677571D01*
X123728571Y-64677571D02*
X123785714Y-64649000D01*
X123785714Y-64649000D02*
X123814285Y-64620428D01*
X123814285Y-64620428D02*
X123871428Y-64534714D01*
X123871428Y-64534714D02*
X123899999Y-64420428D01*
X123899999Y-64420428D02*
X123899999Y-64191857D01*
X123899999Y-64191857D02*
X123871428Y-64134714D01*
X123871428Y-64134714D02*
X123842857Y-64106142D01*
X123842857Y-64106142D02*
X123785714Y-64077571D01*
X123785714Y-64077571D02*
X123671428Y-64077571D01*
X123671428Y-64077571D02*
X123614285Y-64106142D01*
X123614285Y-64106142D02*
X123585714Y-64134714D01*
X123585714Y-64134714D02*
X123557142Y-64191857D01*
X123557142Y-64191857D02*
X123557142Y-64334714D01*
X123557142Y-64334714D02*
X123585714Y-64391857D01*
X123585714Y-64391857D02*
X123614285Y-64420428D01*
X123614285Y-64420428D02*
X123671428Y-64449000D01*
X123671428Y-64449000D02*
X123785714Y-64449000D01*
X123785714Y-64449000D02*
X123842857Y-64420428D01*
X123842857Y-64420428D02*
X123871428Y-64391857D01*
X123871428Y-64391857D02*
X123899999Y-64334714D01*
%TO.C,J8*%
X122999999Y-65477571D02*
X122999999Y-65906142D01*
X122999999Y-65906142D02*
X122971428Y-65991857D01*
X122971428Y-65991857D02*
X122914285Y-66049000D01*
X122914285Y-66049000D02*
X122828571Y-66077571D01*
X122828571Y-66077571D02*
X122771428Y-66077571D01*
X123371428Y-65734714D02*
X123314285Y-65706142D01*
X123314285Y-65706142D02*
X123285714Y-65677571D01*
X123285714Y-65677571D02*
X123257142Y-65620428D01*
X123257142Y-65620428D02*
X123257142Y-65591857D01*
X123257142Y-65591857D02*
X123285714Y-65534714D01*
X123285714Y-65534714D02*
X123314285Y-65506142D01*
X123314285Y-65506142D02*
X123371428Y-65477571D01*
X123371428Y-65477571D02*
X123485714Y-65477571D01*
X123485714Y-65477571D02*
X123542857Y-65506142D01*
X123542857Y-65506142D02*
X123571428Y-65534714D01*
X123571428Y-65534714D02*
X123599999Y-65591857D01*
X123599999Y-65591857D02*
X123599999Y-65620428D01*
X123599999Y-65620428D02*
X123571428Y-65677571D01*
X123571428Y-65677571D02*
X123542857Y-65706142D01*
X123542857Y-65706142D02*
X123485714Y-65734714D01*
X123485714Y-65734714D02*
X123371428Y-65734714D01*
X123371428Y-65734714D02*
X123314285Y-65763285D01*
X123314285Y-65763285D02*
X123285714Y-65791857D01*
X123285714Y-65791857D02*
X123257142Y-65849000D01*
X123257142Y-65849000D02*
X123257142Y-65963285D01*
X123257142Y-65963285D02*
X123285714Y-66020428D01*
X123285714Y-66020428D02*
X123314285Y-66049000D01*
X123314285Y-66049000D02*
X123371428Y-66077571D01*
X123371428Y-66077571D02*
X123485714Y-66077571D01*
X123485714Y-66077571D02*
X123542857Y-66049000D01*
X123542857Y-66049000D02*
X123571428Y-66020428D01*
X123571428Y-66020428D02*
X123599999Y-65963285D01*
X123599999Y-65963285D02*
X123599999Y-65849000D01*
X123599999Y-65849000D02*
X123571428Y-65791857D01*
X123571428Y-65791857D02*
X123542857Y-65763285D01*
X123542857Y-65763285D02*
X123485714Y-65734714D01*
%TO.C,C9*%
X90200000Y-86120428D02*
X90171428Y-86149000D01*
X90171428Y-86149000D02*
X90085714Y-86177571D01*
X90085714Y-86177571D02*
X90028571Y-86177571D01*
X90028571Y-86177571D02*
X89942857Y-86149000D01*
X89942857Y-86149000D02*
X89885714Y-86091857D01*
X89885714Y-86091857D02*
X89857143Y-86034714D01*
X89857143Y-86034714D02*
X89828571Y-85920428D01*
X89828571Y-85920428D02*
X89828571Y-85834714D01*
X89828571Y-85834714D02*
X89857143Y-85720428D01*
X89857143Y-85720428D02*
X89885714Y-85663285D01*
X89885714Y-85663285D02*
X89942857Y-85606142D01*
X89942857Y-85606142D02*
X90028571Y-85577571D01*
X90028571Y-85577571D02*
X90085714Y-85577571D01*
X90085714Y-85577571D02*
X90171428Y-85606142D01*
X90171428Y-85606142D02*
X90200000Y-85634714D01*
X90485714Y-86177571D02*
X90600000Y-86177571D01*
X90600000Y-86177571D02*
X90657143Y-86149000D01*
X90657143Y-86149000D02*
X90685714Y-86120428D01*
X90685714Y-86120428D02*
X90742857Y-86034714D01*
X90742857Y-86034714D02*
X90771428Y-85920428D01*
X90771428Y-85920428D02*
X90771428Y-85691857D01*
X90771428Y-85691857D02*
X90742857Y-85634714D01*
X90742857Y-85634714D02*
X90714286Y-85606142D01*
X90714286Y-85606142D02*
X90657143Y-85577571D01*
X90657143Y-85577571D02*
X90542857Y-85577571D01*
X90542857Y-85577571D02*
X90485714Y-85606142D01*
X90485714Y-85606142D02*
X90457143Y-85634714D01*
X90457143Y-85634714D02*
X90428571Y-85691857D01*
X90428571Y-85691857D02*
X90428571Y-85834714D01*
X90428571Y-85834714D02*
X90457143Y-85891857D01*
X90457143Y-85891857D02*
X90485714Y-85920428D01*
X90485714Y-85920428D02*
X90542857Y-85949000D01*
X90542857Y-85949000D02*
X90657143Y-85949000D01*
X90657143Y-85949000D02*
X90714286Y-85920428D01*
X90714286Y-85920428D02*
X90742857Y-85891857D01*
X90742857Y-85891857D02*
X90771428Y-85834714D01*
%TO.C,C4*%
X123800000Y-80820428D02*
X123771428Y-80849000D01*
X123771428Y-80849000D02*
X123685714Y-80877571D01*
X123685714Y-80877571D02*
X123628571Y-80877571D01*
X123628571Y-80877571D02*
X123542857Y-80849000D01*
X123542857Y-80849000D02*
X123485714Y-80791857D01*
X123485714Y-80791857D02*
X123457143Y-80734714D01*
X123457143Y-80734714D02*
X123428571Y-80620428D01*
X123428571Y-80620428D02*
X123428571Y-80534714D01*
X123428571Y-80534714D02*
X123457143Y-80420428D01*
X123457143Y-80420428D02*
X123485714Y-80363285D01*
X123485714Y-80363285D02*
X123542857Y-80306142D01*
X123542857Y-80306142D02*
X123628571Y-80277571D01*
X123628571Y-80277571D02*
X123685714Y-80277571D01*
X123685714Y-80277571D02*
X123771428Y-80306142D01*
X123771428Y-80306142D02*
X123800000Y-80334714D01*
X124314286Y-80477571D02*
X124314286Y-80877571D01*
X124171428Y-80249000D02*
X124028571Y-80677571D01*
X124028571Y-80677571D02*
X124400000Y-80677571D01*
%TO.C,U1*%
X92042857Y-53477571D02*
X92042857Y-53963285D01*
X92042857Y-53963285D02*
X92071428Y-54020428D01*
X92071428Y-54020428D02*
X92100000Y-54049000D01*
X92100000Y-54049000D02*
X92157142Y-54077571D01*
X92157142Y-54077571D02*
X92271428Y-54077571D01*
X92271428Y-54077571D02*
X92328571Y-54049000D01*
X92328571Y-54049000D02*
X92357142Y-54020428D01*
X92357142Y-54020428D02*
X92385714Y-53963285D01*
X92385714Y-53963285D02*
X92385714Y-53477571D01*
X92985713Y-54077571D02*
X92642856Y-54077571D01*
X92814285Y-54077571D02*
X92814285Y-53477571D01*
X92814285Y-53477571D02*
X92757142Y-53563285D01*
X92757142Y-53563285D02*
X92699999Y-53620428D01*
X92699999Y-53620428D02*
X92642856Y-53649000D01*
%TO.C,C8*%
X90400000Y-83550428D02*
X90371428Y-83579000D01*
X90371428Y-83579000D02*
X90285714Y-83607571D01*
X90285714Y-83607571D02*
X90228571Y-83607571D01*
X90228571Y-83607571D02*
X90142857Y-83579000D01*
X90142857Y-83579000D02*
X90085714Y-83521857D01*
X90085714Y-83521857D02*
X90057143Y-83464714D01*
X90057143Y-83464714D02*
X90028571Y-83350428D01*
X90028571Y-83350428D02*
X90028571Y-83264714D01*
X90028571Y-83264714D02*
X90057143Y-83150428D01*
X90057143Y-83150428D02*
X90085714Y-83093285D01*
X90085714Y-83093285D02*
X90142857Y-83036142D01*
X90142857Y-83036142D02*
X90228571Y-83007571D01*
X90228571Y-83007571D02*
X90285714Y-83007571D01*
X90285714Y-83007571D02*
X90371428Y-83036142D01*
X90371428Y-83036142D02*
X90400000Y-83064714D01*
X90742857Y-83264714D02*
X90685714Y-83236142D01*
X90685714Y-83236142D02*
X90657143Y-83207571D01*
X90657143Y-83207571D02*
X90628571Y-83150428D01*
X90628571Y-83150428D02*
X90628571Y-83121857D01*
X90628571Y-83121857D02*
X90657143Y-83064714D01*
X90657143Y-83064714D02*
X90685714Y-83036142D01*
X90685714Y-83036142D02*
X90742857Y-83007571D01*
X90742857Y-83007571D02*
X90857143Y-83007571D01*
X90857143Y-83007571D02*
X90914286Y-83036142D01*
X90914286Y-83036142D02*
X90942857Y-83064714D01*
X90942857Y-83064714D02*
X90971428Y-83121857D01*
X90971428Y-83121857D02*
X90971428Y-83150428D01*
X90971428Y-83150428D02*
X90942857Y-83207571D01*
X90942857Y-83207571D02*
X90914286Y-83236142D01*
X90914286Y-83236142D02*
X90857143Y-83264714D01*
X90857143Y-83264714D02*
X90742857Y-83264714D01*
X90742857Y-83264714D02*
X90685714Y-83293285D01*
X90685714Y-83293285D02*
X90657143Y-83321857D01*
X90657143Y-83321857D02*
X90628571Y-83379000D01*
X90628571Y-83379000D02*
X90628571Y-83493285D01*
X90628571Y-83493285D02*
X90657143Y-83550428D01*
X90657143Y-83550428D02*
X90685714Y-83579000D01*
X90685714Y-83579000D02*
X90742857Y-83607571D01*
X90742857Y-83607571D02*
X90857143Y-83607571D01*
X90857143Y-83607571D02*
X90914286Y-83579000D01*
X90914286Y-83579000D02*
X90942857Y-83550428D01*
X90942857Y-83550428D02*
X90971428Y-83493285D01*
X90971428Y-83493285D02*
X90971428Y-83379000D01*
X90971428Y-83379000D02*
X90942857Y-83321857D01*
X90942857Y-83321857D02*
X90914286Y-83293285D01*
X90914286Y-83293285D02*
X90857143Y-83264714D01*
%TO.C,C19*%
X89339285Y-66220428D02*
X89310713Y-66249000D01*
X89310713Y-66249000D02*
X89224999Y-66277571D01*
X89224999Y-66277571D02*
X89167856Y-66277571D01*
X89167856Y-66277571D02*
X89082142Y-66249000D01*
X89082142Y-66249000D02*
X89024999Y-66191857D01*
X89024999Y-66191857D02*
X88996428Y-66134714D01*
X88996428Y-66134714D02*
X88967856Y-66020428D01*
X88967856Y-66020428D02*
X88967856Y-65934714D01*
X88967856Y-65934714D02*
X88996428Y-65820428D01*
X88996428Y-65820428D02*
X89024999Y-65763285D01*
X89024999Y-65763285D02*
X89082142Y-65706142D01*
X89082142Y-65706142D02*
X89167856Y-65677571D01*
X89167856Y-65677571D02*
X89224999Y-65677571D01*
X89224999Y-65677571D02*
X89310713Y-65706142D01*
X89310713Y-65706142D02*
X89339285Y-65734714D01*
X89910713Y-66277571D02*
X89567856Y-66277571D01*
X89739285Y-66277571D02*
X89739285Y-65677571D01*
X89739285Y-65677571D02*
X89682142Y-65763285D01*
X89682142Y-65763285D02*
X89624999Y-65820428D01*
X89624999Y-65820428D02*
X89567856Y-65849000D01*
X90196428Y-66277571D02*
X90310714Y-66277571D01*
X90310714Y-66277571D02*
X90367857Y-66249000D01*
X90367857Y-66249000D02*
X90396428Y-66220428D01*
X90396428Y-66220428D02*
X90453571Y-66134714D01*
X90453571Y-66134714D02*
X90482142Y-66020428D01*
X90482142Y-66020428D02*
X90482142Y-65791857D01*
X90482142Y-65791857D02*
X90453571Y-65734714D01*
X90453571Y-65734714D02*
X90425000Y-65706142D01*
X90425000Y-65706142D02*
X90367857Y-65677571D01*
X90367857Y-65677571D02*
X90253571Y-65677571D01*
X90253571Y-65677571D02*
X90196428Y-65706142D01*
X90196428Y-65706142D02*
X90167857Y-65734714D01*
X90167857Y-65734714D02*
X90139285Y-65791857D01*
X90139285Y-65791857D02*
X90139285Y-65934714D01*
X90139285Y-65934714D02*
X90167857Y-65991857D01*
X90167857Y-65991857D02*
X90196428Y-66020428D01*
X90196428Y-66020428D02*
X90253571Y-66049000D01*
X90253571Y-66049000D02*
X90367857Y-66049000D01*
X90367857Y-66049000D02*
X90425000Y-66020428D01*
X90425000Y-66020428D02*
X90453571Y-65991857D01*
X90453571Y-65991857D02*
X90482142Y-65934714D01*
%TO.C,C22*%
X108414285Y-79990428D02*
X108385713Y-80019000D01*
X108385713Y-80019000D02*
X108299999Y-80047571D01*
X108299999Y-80047571D02*
X108242856Y-80047571D01*
X108242856Y-80047571D02*
X108157142Y-80019000D01*
X108157142Y-80019000D02*
X108099999Y-79961857D01*
X108099999Y-79961857D02*
X108071428Y-79904714D01*
X108071428Y-79904714D02*
X108042856Y-79790428D01*
X108042856Y-79790428D02*
X108042856Y-79704714D01*
X108042856Y-79704714D02*
X108071428Y-79590428D01*
X108071428Y-79590428D02*
X108099999Y-79533285D01*
X108099999Y-79533285D02*
X108157142Y-79476142D01*
X108157142Y-79476142D02*
X108242856Y-79447571D01*
X108242856Y-79447571D02*
X108299999Y-79447571D01*
X108299999Y-79447571D02*
X108385713Y-79476142D01*
X108385713Y-79476142D02*
X108414285Y-79504714D01*
X108642856Y-79504714D02*
X108671428Y-79476142D01*
X108671428Y-79476142D02*
X108728571Y-79447571D01*
X108728571Y-79447571D02*
X108871428Y-79447571D01*
X108871428Y-79447571D02*
X108928571Y-79476142D01*
X108928571Y-79476142D02*
X108957142Y-79504714D01*
X108957142Y-79504714D02*
X108985713Y-79561857D01*
X108985713Y-79561857D02*
X108985713Y-79619000D01*
X108985713Y-79619000D02*
X108957142Y-79704714D01*
X108957142Y-79704714D02*
X108614285Y-80047571D01*
X108614285Y-80047571D02*
X108985713Y-80047571D01*
X109214285Y-79504714D02*
X109242857Y-79476142D01*
X109242857Y-79476142D02*
X109300000Y-79447571D01*
X109300000Y-79447571D02*
X109442857Y-79447571D01*
X109442857Y-79447571D02*
X109500000Y-79476142D01*
X109500000Y-79476142D02*
X109528571Y-79504714D01*
X109528571Y-79504714D02*
X109557142Y-79561857D01*
X109557142Y-79561857D02*
X109557142Y-79619000D01*
X109557142Y-79619000D02*
X109528571Y-79704714D01*
X109528571Y-79704714D02*
X109185714Y-80047571D01*
X109185714Y-80047571D02*
X109557142Y-80047571D01*
%TO.C,C6*%
X108850000Y-67790428D02*
X108821428Y-67819000D01*
X108821428Y-67819000D02*
X108735714Y-67847571D01*
X108735714Y-67847571D02*
X108678571Y-67847571D01*
X108678571Y-67847571D02*
X108592857Y-67819000D01*
X108592857Y-67819000D02*
X108535714Y-67761857D01*
X108535714Y-67761857D02*
X108507143Y-67704714D01*
X108507143Y-67704714D02*
X108478571Y-67590428D01*
X108478571Y-67590428D02*
X108478571Y-67504714D01*
X108478571Y-67504714D02*
X108507143Y-67390428D01*
X108507143Y-67390428D02*
X108535714Y-67333285D01*
X108535714Y-67333285D02*
X108592857Y-67276142D01*
X108592857Y-67276142D02*
X108678571Y-67247571D01*
X108678571Y-67247571D02*
X108735714Y-67247571D01*
X108735714Y-67247571D02*
X108821428Y-67276142D01*
X108821428Y-67276142D02*
X108850000Y-67304714D01*
X109364286Y-67247571D02*
X109250000Y-67247571D01*
X109250000Y-67247571D02*
X109192857Y-67276142D01*
X109192857Y-67276142D02*
X109164286Y-67304714D01*
X109164286Y-67304714D02*
X109107143Y-67390428D01*
X109107143Y-67390428D02*
X109078571Y-67504714D01*
X109078571Y-67504714D02*
X109078571Y-67733285D01*
X109078571Y-67733285D02*
X109107143Y-67790428D01*
X109107143Y-67790428D02*
X109135714Y-67819000D01*
X109135714Y-67819000D02*
X109192857Y-67847571D01*
X109192857Y-67847571D02*
X109307143Y-67847571D01*
X109307143Y-67847571D02*
X109364286Y-67819000D01*
X109364286Y-67819000D02*
X109392857Y-67790428D01*
X109392857Y-67790428D02*
X109421428Y-67733285D01*
X109421428Y-67733285D02*
X109421428Y-67590428D01*
X109421428Y-67590428D02*
X109392857Y-67533285D01*
X109392857Y-67533285D02*
X109364286Y-67504714D01*
X109364286Y-67504714D02*
X109307143Y-67476142D01*
X109307143Y-67476142D02*
X109192857Y-67476142D01*
X109192857Y-67476142D02*
X109135714Y-67504714D01*
X109135714Y-67504714D02*
X109107143Y-67533285D01*
X109107143Y-67533285D02*
X109078571Y-67590428D01*
%TO.C,C21*%
X108564285Y-83720428D02*
X108535713Y-83749000D01*
X108535713Y-83749000D02*
X108449999Y-83777571D01*
X108449999Y-83777571D02*
X108392856Y-83777571D01*
X108392856Y-83777571D02*
X108307142Y-83749000D01*
X108307142Y-83749000D02*
X108249999Y-83691857D01*
X108249999Y-83691857D02*
X108221428Y-83634714D01*
X108221428Y-83634714D02*
X108192856Y-83520428D01*
X108192856Y-83520428D02*
X108192856Y-83434714D01*
X108192856Y-83434714D02*
X108221428Y-83320428D01*
X108221428Y-83320428D02*
X108249999Y-83263285D01*
X108249999Y-83263285D02*
X108307142Y-83206142D01*
X108307142Y-83206142D02*
X108392856Y-83177571D01*
X108392856Y-83177571D02*
X108449999Y-83177571D01*
X108449999Y-83177571D02*
X108535713Y-83206142D01*
X108535713Y-83206142D02*
X108564285Y-83234714D01*
X108792856Y-83234714D02*
X108821428Y-83206142D01*
X108821428Y-83206142D02*
X108878571Y-83177571D01*
X108878571Y-83177571D02*
X109021428Y-83177571D01*
X109021428Y-83177571D02*
X109078571Y-83206142D01*
X109078571Y-83206142D02*
X109107142Y-83234714D01*
X109107142Y-83234714D02*
X109135713Y-83291857D01*
X109135713Y-83291857D02*
X109135713Y-83349000D01*
X109135713Y-83349000D02*
X109107142Y-83434714D01*
X109107142Y-83434714D02*
X108764285Y-83777571D01*
X108764285Y-83777571D02*
X109135713Y-83777571D01*
X109707142Y-83777571D02*
X109364285Y-83777571D01*
X109535714Y-83777571D02*
X109535714Y-83177571D01*
X109535714Y-83177571D02*
X109478571Y-83263285D01*
X109478571Y-83263285D02*
X109421428Y-83320428D01*
X109421428Y-83320428D02*
X109364285Y-83349000D01*
%TO.C,C16*%
X89364285Y-57720428D02*
X89335713Y-57749000D01*
X89335713Y-57749000D02*
X89249999Y-57777571D01*
X89249999Y-57777571D02*
X89192856Y-57777571D01*
X89192856Y-57777571D02*
X89107142Y-57749000D01*
X89107142Y-57749000D02*
X89049999Y-57691857D01*
X89049999Y-57691857D02*
X89021428Y-57634714D01*
X89021428Y-57634714D02*
X88992856Y-57520428D01*
X88992856Y-57520428D02*
X88992856Y-57434714D01*
X88992856Y-57434714D02*
X89021428Y-57320428D01*
X89021428Y-57320428D02*
X89049999Y-57263285D01*
X89049999Y-57263285D02*
X89107142Y-57206142D01*
X89107142Y-57206142D02*
X89192856Y-57177571D01*
X89192856Y-57177571D02*
X89249999Y-57177571D01*
X89249999Y-57177571D02*
X89335713Y-57206142D01*
X89335713Y-57206142D02*
X89364285Y-57234714D01*
X89935713Y-57777571D02*
X89592856Y-57777571D01*
X89764285Y-57777571D02*
X89764285Y-57177571D01*
X89764285Y-57177571D02*
X89707142Y-57263285D01*
X89707142Y-57263285D02*
X89649999Y-57320428D01*
X89649999Y-57320428D02*
X89592856Y-57349000D01*
X90450000Y-57177571D02*
X90335714Y-57177571D01*
X90335714Y-57177571D02*
X90278571Y-57206142D01*
X90278571Y-57206142D02*
X90250000Y-57234714D01*
X90250000Y-57234714D02*
X90192857Y-57320428D01*
X90192857Y-57320428D02*
X90164285Y-57434714D01*
X90164285Y-57434714D02*
X90164285Y-57663285D01*
X90164285Y-57663285D02*
X90192857Y-57720428D01*
X90192857Y-57720428D02*
X90221428Y-57749000D01*
X90221428Y-57749000D02*
X90278571Y-57777571D01*
X90278571Y-57777571D02*
X90392857Y-57777571D01*
X90392857Y-57777571D02*
X90450000Y-57749000D01*
X90450000Y-57749000D02*
X90478571Y-57720428D01*
X90478571Y-57720428D02*
X90507142Y-57663285D01*
X90507142Y-57663285D02*
X90507142Y-57520428D01*
X90507142Y-57520428D02*
X90478571Y-57463285D01*
X90478571Y-57463285D02*
X90450000Y-57434714D01*
X90450000Y-57434714D02*
X90392857Y-57406142D01*
X90392857Y-57406142D02*
X90278571Y-57406142D01*
X90278571Y-57406142D02*
X90221428Y-57434714D01*
X90221428Y-57434714D02*
X90192857Y-57463285D01*
X90192857Y-57463285D02*
X90164285Y-57520428D01*
%TO.C,C13*%
X90114285Y-97150428D02*
X90085713Y-97179000D01*
X90085713Y-97179000D02*
X89999999Y-97207571D01*
X89999999Y-97207571D02*
X89942856Y-97207571D01*
X89942856Y-97207571D02*
X89857142Y-97179000D01*
X89857142Y-97179000D02*
X89799999Y-97121857D01*
X89799999Y-97121857D02*
X89771428Y-97064714D01*
X89771428Y-97064714D02*
X89742856Y-96950428D01*
X89742856Y-96950428D02*
X89742856Y-96864714D01*
X89742856Y-96864714D02*
X89771428Y-96750428D01*
X89771428Y-96750428D02*
X89799999Y-96693285D01*
X89799999Y-96693285D02*
X89857142Y-96636142D01*
X89857142Y-96636142D02*
X89942856Y-96607571D01*
X89942856Y-96607571D02*
X89999999Y-96607571D01*
X89999999Y-96607571D02*
X90085713Y-96636142D01*
X90085713Y-96636142D02*
X90114285Y-96664714D01*
X90685713Y-97207571D02*
X90342856Y-97207571D01*
X90514285Y-97207571D02*
X90514285Y-96607571D01*
X90514285Y-96607571D02*
X90457142Y-96693285D01*
X90457142Y-96693285D02*
X90399999Y-96750428D01*
X90399999Y-96750428D02*
X90342856Y-96779000D01*
X90885714Y-96607571D02*
X91257142Y-96607571D01*
X91257142Y-96607571D02*
X91057142Y-96836142D01*
X91057142Y-96836142D02*
X91142857Y-96836142D01*
X91142857Y-96836142D02*
X91200000Y-96864714D01*
X91200000Y-96864714D02*
X91228571Y-96893285D01*
X91228571Y-96893285D02*
X91257142Y-96950428D01*
X91257142Y-96950428D02*
X91257142Y-97093285D01*
X91257142Y-97093285D02*
X91228571Y-97150428D01*
X91228571Y-97150428D02*
X91200000Y-97179000D01*
X91200000Y-97179000D02*
X91142857Y-97207571D01*
X91142857Y-97207571D02*
X90971428Y-97207571D01*
X90971428Y-97207571D02*
X90914285Y-97179000D01*
X90914285Y-97179000D02*
X90885714Y-97150428D01*
%TO.C,C23*%
X85714285Y-103720428D02*
X85685713Y-103749000D01*
X85685713Y-103749000D02*
X85599999Y-103777571D01*
X85599999Y-103777571D02*
X85542856Y-103777571D01*
X85542856Y-103777571D02*
X85457142Y-103749000D01*
X85457142Y-103749000D02*
X85399999Y-103691857D01*
X85399999Y-103691857D02*
X85371428Y-103634714D01*
X85371428Y-103634714D02*
X85342856Y-103520428D01*
X85342856Y-103520428D02*
X85342856Y-103434714D01*
X85342856Y-103434714D02*
X85371428Y-103320428D01*
X85371428Y-103320428D02*
X85399999Y-103263285D01*
X85399999Y-103263285D02*
X85457142Y-103206142D01*
X85457142Y-103206142D02*
X85542856Y-103177571D01*
X85542856Y-103177571D02*
X85599999Y-103177571D01*
X85599999Y-103177571D02*
X85685713Y-103206142D01*
X85685713Y-103206142D02*
X85714285Y-103234714D01*
X85942856Y-103234714D02*
X85971428Y-103206142D01*
X85971428Y-103206142D02*
X86028571Y-103177571D01*
X86028571Y-103177571D02*
X86171428Y-103177571D01*
X86171428Y-103177571D02*
X86228571Y-103206142D01*
X86228571Y-103206142D02*
X86257142Y-103234714D01*
X86257142Y-103234714D02*
X86285713Y-103291857D01*
X86285713Y-103291857D02*
X86285713Y-103349000D01*
X86285713Y-103349000D02*
X86257142Y-103434714D01*
X86257142Y-103434714D02*
X85914285Y-103777571D01*
X85914285Y-103777571D02*
X86285713Y-103777571D01*
X86485714Y-103177571D02*
X86857142Y-103177571D01*
X86857142Y-103177571D02*
X86657142Y-103406142D01*
X86657142Y-103406142D02*
X86742857Y-103406142D01*
X86742857Y-103406142D02*
X86800000Y-103434714D01*
X86800000Y-103434714D02*
X86828571Y-103463285D01*
X86828571Y-103463285D02*
X86857142Y-103520428D01*
X86857142Y-103520428D02*
X86857142Y-103663285D01*
X86857142Y-103663285D02*
X86828571Y-103720428D01*
X86828571Y-103720428D02*
X86800000Y-103749000D01*
X86800000Y-103749000D02*
X86742857Y-103777571D01*
X86742857Y-103777571D02*
X86571428Y-103777571D01*
X86571428Y-103777571D02*
X86514285Y-103749000D01*
X86514285Y-103749000D02*
X86485714Y-103720428D01*
%TO.C,C20*%
X108514285Y-86320428D02*
X108485713Y-86349000D01*
X108485713Y-86349000D02*
X108399999Y-86377571D01*
X108399999Y-86377571D02*
X108342856Y-86377571D01*
X108342856Y-86377571D02*
X108257142Y-86349000D01*
X108257142Y-86349000D02*
X108199999Y-86291857D01*
X108199999Y-86291857D02*
X108171428Y-86234714D01*
X108171428Y-86234714D02*
X108142856Y-86120428D01*
X108142856Y-86120428D02*
X108142856Y-86034714D01*
X108142856Y-86034714D02*
X108171428Y-85920428D01*
X108171428Y-85920428D02*
X108199999Y-85863285D01*
X108199999Y-85863285D02*
X108257142Y-85806142D01*
X108257142Y-85806142D02*
X108342856Y-85777571D01*
X108342856Y-85777571D02*
X108399999Y-85777571D01*
X108399999Y-85777571D02*
X108485713Y-85806142D01*
X108485713Y-85806142D02*
X108514285Y-85834714D01*
X108742856Y-85834714D02*
X108771428Y-85806142D01*
X108771428Y-85806142D02*
X108828571Y-85777571D01*
X108828571Y-85777571D02*
X108971428Y-85777571D01*
X108971428Y-85777571D02*
X109028571Y-85806142D01*
X109028571Y-85806142D02*
X109057142Y-85834714D01*
X109057142Y-85834714D02*
X109085713Y-85891857D01*
X109085713Y-85891857D02*
X109085713Y-85949000D01*
X109085713Y-85949000D02*
X109057142Y-86034714D01*
X109057142Y-86034714D02*
X108714285Y-86377571D01*
X108714285Y-86377571D02*
X109085713Y-86377571D01*
X109457142Y-85777571D02*
X109514285Y-85777571D01*
X109514285Y-85777571D02*
X109571428Y-85806142D01*
X109571428Y-85806142D02*
X109600000Y-85834714D01*
X109600000Y-85834714D02*
X109628571Y-85891857D01*
X109628571Y-85891857D02*
X109657142Y-86006142D01*
X109657142Y-86006142D02*
X109657142Y-86149000D01*
X109657142Y-86149000D02*
X109628571Y-86263285D01*
X109628571Y-86263285D02*
X109600000Y-86320428D01*
X109600000Y-86320428D02*
X109571428Y-86349000D01*
X109571428Y-86349000D02*
X109514285Y-86377571D01*
X109514285Y-86377571D02*
X109457142Y-86377571D01*
X109457142Y-86377571D02*
X109400000Y-86349000D01*
X109400000Y-86349000D02*
X109371428Y-86320428D01*
X109371428Y-86320428D02*
X109342857Y-86263285D01*
X109342857Y-86263285D02*
X109314285Y-86149000D01*
X109314285Y-86149000D02*
X109314285Y-86006142D01*
X109314285Y-86006142D02*
X109342857Y-85891857D01*
X109342857Y-85891857D02*
X109371428Y-85834714D01*
X109371428Y-85834714D02*
X109400000Y-85806142D01*
X109400000Y-85806142D02*
X109457142Y-85777571D01*
%TO.C,C14*%
X108589285Y-65290428D02*
X108560713Y-65319000D01*
X108560713Y-65319000D02*
X108474999Y-65347571D01*
X108474999Y-65347571D02*
X108417856Y-65347571D01*
X108417856Y-65347571D02*
X108332142Y-65319000D01*
X108332142Y-65319000D02*
X108274999Y-65261857D01*
X108274999Y-65261857D02*
X108246428Y-65204714D01*
X108246428Y-65204714D02*
X108217856Y-65090428D01*
X108217856Y-65090428D02*
X108217856Y-65004714D01*
X108217856Y-65004714D02*
X108246428Y-64890428D01*
X108246428Y-64890428D02*
X108274999Y-64833285D01*
X108274999Y-64833285D02*
X108332142Y-64776142D01*
X108332142Y-64776142D02*
X108417856Y-64747571D01*
X108417856Y-64747571D02*
X108474999Y-64747571D01*
X108474999Y-64747571D02*
X108560713Y-64776142D01*
X108560713Y-64776142D02*
X108589285Y-64804714D01*
X109160713Y-65347571D02*
X108817856Y-65347571D01*
X108989285Y-65347571D02*
X108989285Y-64747571D01*
X108989285Y-64747571D02*
X108932142Y-64833285D01*
X108932142Y-64833285D02*
X108874999Y-64890428D01*
X108874999Y-64890428D02*
X108817856Y-64919000D01*
X109675000Y-64947571D02*
X109675000Y-65347571D01*
X109532142Y-64719000D02*
X109389285Y-65147571D01*
X109389285Y-65147571D02*
X109760714Y-65147571D01*
%TO.C,J7*%
X91299999Y-68617571D02*
X91299999Y-69046142D01*
X91299999Y-69046142D02*
X91271428Y-69131857D01*
X91271428Y-69131857D02*
X91214285Y-69189000D01*
X91214285Y-69189000D02*
X91128571Y-69217571D01*
X91128571Y-69217571D02*
X91071428Y-69217571D01*
X91528571Y-68617571D02*
X91928571Y-68617571D01*
X91928571Y-68617571D02*
X91671428Y-69217571D01*
%TO.C,C10*%
X90014285Y-89020428D02*
X89985713Y-89049000D01*
X89985713Y-89049000D02*
X89899999Y-89077571D01*
X89899999Y-89077571D02*
X89842856Y-89077571D01*
X89842856Y-89077571D02*
X89757142Y-89049000D01*
X89757142Y-89049000D02*
X89699999Y-88991857D01*
X89699999Y-88991857D02*
X89671428Y-88934714D01*
X89671428Y-88934714D02*
X89642856Y-88820428D01*
X89642856Y-88820428D02*
X89642856Y-88734714D01*
X89642856Y-88734714D02*
X89671428Y-88620428D01*
X89671428Y-88620428D02*
X89699999Y-88563285D01*
X89699999Y-88563285D02*
X89757142Y-88506142D01*
X89757142Y-88506142D02*
X89842856Y-88477571D01*
X89842856Y-88477571D02*
X89899999Y-88477571D01*
X89899999Y-88477571D02*
X89985713Y-88506142D01*
X89985713Y-88506142D02*
X90014285Y-88534714D01*
X90585713Y-89077571D02*
X90242856Y-89077571D01*
X90414285Y-89077571D02*
X90414285Y-88477571D01*
X90414285Y-88477571D02*
X90357142Y-88563285D01*
X90357142Y-88563285D02*
X90299999Y-88620428D01*
X90299999Y-88620428D02*
X90242856Y-88649000D01*
X90957142Y-88477571D02*
X91014285Y-88477571D01*
X91014285Y-88477571D02*
X91071428Y-88506142D01*
X91071428Y-88506142D02*
X91100000Y-88534714D01*
X91100000Y-88534714D02*
X91128571Y-88591857D01*
X91128571Y-88591857D02*
X91157142Y-88706142D01*
X91157142Y-88706142D02*
X91157142Y-88849000D01*
X91157142Y-88849000D02*
X91128571Y-88963285D01*
X91128571Y-88963285D02*
X91100000Y-89020428D01*
X91100000Y-89020428D02*
X91071428Y-89049000D01*
X91071428Y-89049000D02*
X91014285Y-89077571D01*
X91014285Y-89077571D02*
X90957142Y-89077571D01*
X90957142Y-89077571D02*
X90900000Y-89049000D01*
X90900000Y-89049000D02*
X90871428Y-89020428D01*
X90871428Y-89020428D02*
X90842857Y-88963285D01*
X90842857Y-88963285D02*
X90814285Y-88849000D01*
X90814285Y-88849000D02*
X90814285Y-88706142D01*
X90814285Y-88706142D02*
X90842857Y-88591857D01*
X90842857Y-88591857D02*
X90871428Y-88534714D01*
X90871428Y-88534714D02*
X90900000Y-88506142D01*
X90900000Y-88506142D02*
X90957142Y-88477571D01*
%TO.C,J2*%
X116699999Y-87077571D02*
X116699999Y-87506142D01*
X116699999Y-87506142D02*
X116671428Y-87591857D01*
X116671428Y-87591857D02*
X116614285Y-87649000D01*
X116614285Y-87649000D02*
X116528571Y-87677571D01*
X116528571Y-87677571D02*
X116471428Y-87677571D01*
X116957142Y-87134714D02*
X116985714Y-87106142D01*
X116985714Y-87106142D02*
X117042857Y-87077571D01*
X117042857Y-87077571D02*
X117185714Y-87077571D01*
X117185714Y-87077571D02*
X117242857Y-87106142D01*
X117242857Y-87106142D02*
X117271428Y-87134714D01*
X117271428Y-87134714D02*
X117299999Y-87191857D01*
X117299999Y-87191857D02*
X117299999Y-87249000D01*
X117299999Y-87249000D02*
X117271428Y-87334714D01*
X117271428Y-87334714D02*
X116928571Y-87677571D01*
X116928571Y-87677571D02*
X117299999Y-87677571D01*
%TO.C,C7*%
X90200000Y-80150428D02*
X90171428Y-80179000D01*
X90171428Y-80179000D02*
X90085714Y-80207571D01*
X90085714Y-80207571D02*
X90028571Y-80207571D01*
X90028571Y-80207571D02*
X89942857Y-80179000D01*
X89942857Y-80179000D02*
X89885714Y-80121857D01*
X89885714Y-80121857D02*
X89857143Y-80064714D01*
X89857143Y-80064714D02*
X89828571Y-79950428D01*
X89828571Y-79950428D02*
X89828571Y-79864714D01*
X89828571Y-79864714D02*
X89857143Y-79750428D01*
X89857143Y-79750428D02*
X89885714Y-79693285D01*
X89885714Y-79693285D02*
X89942857Y-79636142D01*
X89942857Y-79636142D02*
X90028571Y-79607571D01*
X90028571Y-79607571D02*
X90085714Y-79607571D01*
X90085714Y-79607571D02*
X90171428Y-79636142D01*
X90171428Y-79636142D02*
X90200000Y-79664714D01*
X90400000Y-79607571D02*
X90800000Y-79607571D01*
X90800000Y-79607571D02*
X90542857Y-80207571D01*
%TO.C,C18*%
X89389285Y-63220428D02*
X89360713Y-63249000D01*
X89360713Y-63249000D02*
X89274999Y-63277571D01*
X89274999Y-63277571D02*
X89217856Y-63277571D01*
X89217856Y-63277571D02*
X89132142Y-63249000D01*
X89132142Y-63249000D02*
X89074999Y-63191857D01*
X89074999Y-63191857D02*
X89046428Y-63134714D01*
X89046428Y-63134714D02*
X89017856Y-63020428D01*
X89017856Y-63020428D02*
X89017856Y-62934714D01*
X89017856Y-62934714D02*
X89046428Y-62820428D01*
X89046428Y-62820428D02*
X89074999Y-62763285D01*
X89074999Y-62763285D02*
X89132142Y-62706142D01*
X89132142Y-62706142D02*
X89217856Y-62677571D01*
X89217856Y-62677571D02*
X89274999Y-62677571D01*
X89274999Y-62677571D02*
X89360713Y-62706142D01*
X89360713Y-62706142D02*
X89389285Y-62734714D01*
X89960713Y-63277571D02*
X89617856Y-63277571D01*
X89789285Y-63277571D02*
X89789285Y-62677571D01*
X89789285Y-62677571D02*
X89732142Y-62763285D01*
X89732142Y-62763285D02*
X89674999Y-62820428D01*
X89674999Y-62820428D02*
X89617856Y-62849000D01*
X90303571Y-62934714D02*
X90246428Y-62906142D01*
X90246428Y-62906142D02*
X90217857Y-62877571D01*
X90217857Y-62877571D02*
X90189285Y-62820428D01*
X90189285Y-62820428D02*
X90189285Y-62791857D01*
X90189285Y-62791857D02*
X90217857Y-62734714D01*
X90217857Y-62734714D02*
X90246428Y-62706142D01*
X90246428Y-62706142D02*
X90303571Y-62677571D01*
X90303571Y-62677571D02*
X90417857Y-62677571D01*
X90417857Y-62677571D02*
X90475000Y-62706142D01*
X90475000Y-62706142D02*
X90503571Y-62734714D01*
X90503571Y-62734714D02*
X90532142Y-62791857D01*
X90532142Y-62791857D02*
X90532142Y-62820428D01*
X90532142Y-62820428D02*
X90503571Y-62877571D01*
X90503571Y-62877571D02*
X90475000Y-62906142D01*
X90475000Y-62906142D02*
X90417857Y-62934714D01*
X90417857Y-62934714D02*
X90303571Y-62934714D01*
X90303571Y-62934714D02*
X90246428Y-62963285D01*
X90246428Y-62963285D02*
X90217857Y-62991857D01*
X90217857Y-62991857D02*
X90189285Y-63049000D01*
X90189285Y-63049000D02*
X90189285Y-63163285D01*
X90189285Y-63163285D02*
X90217857Y-63220428D01*
X90217857Y-63220428D02*
X90246428Y-63249000D01*
X90246428Y-63249000D02*
X90303571Y-63277571D01*
X90303571Y-63277571D02*
X90417857Y-63277571D01*
X90417857Y-63277571D02*
X90475000Y-63249000D01*
X90475000Y-63249000D02*
X90503571Y-63220428D01*
X90503571Y-63220428D02*
X90532142Y-63163285D01*
X90532142Y-63163285D02*
X90532142Y-63049000D01*
X90532142Y-63049000D02*
X90503571Y-62991857D01*
X90503571Y-62991857D02*
X90475000Y-62963285D01*
X90475000Y-62963285D02*
X90417857Y-62934714D01*
%TO.C,C3*%
X123700000Y-86820428D02*
X123671428Y-86849000D01*
X123671428Y-86849000D02*
X123585714Y-86877571D01*
X123585714Y-86877571D02*
X123528571Y-86877571D01*
X123528571Y-86877571D02*
X123442857Y-86849000D01*
X123442857Y-86849000D02*
X123385714Y-86791857D01*
X123385714Y-86791857D02*
X123357143Y-86734714D01*
X123357143Y-86734714D02*
X123328571Y-86620428D01*
X123328571Y-86620428D02*
X123328571Y-86534714D01*
X123328571Y-86534714D02*
X123357143Y-86420428D01*
X123357143Y-86420428D02*
X123385714Y-86363285D01*
X123385714Y-86363285D02*
X123442857Y-86306142D01*
X123442857Y-86306142D02*
X123528571Y-86277571D01*
X123528571Y-86277571D02*
X123585714Y-86277571D01*
X123585714Y-86277571D02*
X123671428Y-86306142D01*
X123671428Y-86306142D02*
X123700000Y-86334714D01*
X123900000Y-86277571D02*
X124271428Y-86277571D01*
X124271428Y-86277571D02*
X124071428Y-86506142D01*
X124071428Y-86506142D02*
X124157143Y-86506142D01*
X124157143Y-86506142D02*
X124214286Y-86534714D01*
X124214286Y-86534714D02*
X124242857Y-86563285D01*
X124242857Y-86563285D02*
X124271428Y-86620428D01*
X124271428Y-86620428D02*
X124271428Y-86763285D01*
X124271428Y-86763285D02*
X124242857Y-86820428D01*
X124242857Y-86820428D02*
X124214286Y-86849000D01*
X124214286Y-86849000D02*
X124157143Y-86877571D01*
X124157143Y-86877571D02*
X123985714Y-86877571D01*
X123985714Y-86877571D02*
X123928571Y-86849000D01*
X123928571Y-86849000D02*
X123900000Y-86820428D01*
%TO.C,C11*%
X90014285Y-91520428D02*
X89985713Y-91549000D01*
X89985713Y-91549000D02*
X89899999Y-91577571D01*
X89899999Y-91577571D02*
X89842856Y-91577571D01*
X89842856Y-91577571D02*
X89757142Y-91549000D01*
X89757142Y-91549000D02*
X89699999Y-91491857D01*
X89699999Y-91491857D02*
X89671428Y-91434714D01*
X89671428Y-91434714D02*
X89642856Y-91320428D01*
X89642856Y-91320428D02*
X89642856Y-91234714D01*
X89642856Y-91234714D02*
X89671428Y-91120428D01*
X89671428Y-91120428D02*
X89699999Y-91063285D01*
X89699999Y-91063285D02*
X89757142Y-91006142D01*
X89757142Y-91006142D02*
X89842856Y-90977571D01*
X89842856Y-90977571D02*
X89899999Y-90977571D01*
X89899999Y-90977571D02*
X89985713Y-91006142D01*
X89985713Y-91006142D02*
X90014285Y-91034714D01*
X90585713Y-91577571D02*
X90242856Y-91577571D01*
X90414285Y-91577571D02*
X90414285Y-90977571D01*
X90414285Y-90977571D02*
X90357142Y-91063285D01*
X90357142Y-91063285D02*
X90299999Y-91120428D01*
X90299999Y-91120428D02*
X90242856Y-91149000D01*
X91157142Y-91577571D02*
X90814285Y-91577571D01*
X90985714Y-91577571D02*
X90985714Y-90977571D01*
X90985714Y-90977571D02*
X90928571Y-91063285D01*
X90928571Y-91063285D02*
X90871428Y-91120428D01*
X90871428Y-91120428D02*
X90814285Y-91149000D01*
%TO.C,J4*%
X116949999Y-75277571D02*
X116949999Y-75706142D01*
X116949999Y-75706142D02*
X116921428Y-75791857D01*
X116921428Y-75791857D02*
X116864285Y-75849000D01*
X116864285Y-75849000D02*
X116778571Y-75877571D01*
X116778571Y-75877571D02*
X116721428Y-75877571D01*
X117492857Y-75477571D02*
X117492857Y-75877571D01*
X117349999Y-75249000D02*
X117207142Y-75677571D01*
X117207142Y-75677571D02*
X117578571Y-75677571D01*
%TO.C,C5*%
X108850000Y-71790428D02*
X108821428Y-71819000D01*
X108821428Y-71819000D02*
X108735714Y-71847571D01*
X108735714Y-71847571D02*
X108678571Y-71847571D01*
X108678571Y-71847571D02*
X108592857Y-71819000D01*
X108592857Y-71819000D02*
X108535714Y-71761857D01*
X108535714Y-71761857D02*
X108507143Y-71704714D01*
X108507143Y-71704714D02*
X108478571Y-71590428D01*
X108478571Y-71590428D02*
X108478571Y-71504714D01*
X108478571Y-71504714D02*
X108507143Y-71390428D01*
X108507143Y-71390428D02*
X108535714Y-71333285D01*
X108535714Y-71333285D02*
X108592857Y-71276142D01*
X108592857Y-71276142D02*
X108678571Y-71247571D01*
X108678571Y-71247571D02*
X108735714Y-71247571D01*
X108735714Y-71247571D02*
X108821428Y-71276142D01*
X108821428Y-71276142D02*
X108850000Y-71304714D01*
X109392857Y-71247571D02*
X109107143Y-71247571D01*
X109107143Y-71247571D02*
X109078571Y-71533285D01*
X109078571Y-71533285D02*
X109107143Y-71504714D01*
X109107143Y-71504714D02*
X109164286Y-71476142D01*
X109164286Y-71476142D02*
X109307143Y-71476142D01*
X109307143Y-71476142D02*
X109364286Y-71504714D01*
X109364286Y-71504714D02*
X109392857Y-71533285D01*
X109392857Y-71533285D02*
X109421428Y-71590428D01*
X109421428Y-71590428D02*
X109421428Y-71733285D01*
X109421428Y-71733285D02*
X109392857Y-71790428D01*
X109392857Y-71790428D02*
X109364286Y-71819000D01*
X109364286Y-71819000D02*
X109307143Y-71847571D01*
X109307143Y-71847571D02*
X109164286Y-71847571D01*
X109164286Y-71847571D02*
X109107143Y-71819000D01*
X109107143Y-71819000D02*
X109078571Y-71790428D01*
%TO.C,C17*%
X89364285Y-60220428D02*
X89335713Y-60249000D01*
X89335713Y-60249000D02*
X89249999Y-60277571D01*
X89249999Y-60277571D02*
X89192856Y-60277571D01*
X89192856Y-60277571D02*
X89107142Y-60249000D01*
X89107142Y-60249000D02*
X89049999Y-60191857D01*
X89049999Y-60191857D02*
X89021428Y-60134714D01*
X89021428Y-60134714D02*
X88992856Y-60020428D01*
X88992856Y-60020428D02*
X88992856Y-59934714D01*
X88992856Y-59934714D02*
X89021428Y-59820428D01*
X89021428Y-59820428D02*
X89049999Y-59763285D01*
X89049999Y-59763285D02*
X89107142Y-59706142D01*
X89107142Y-59706142D02*
X89192856Y-59677571D01*
X89192856Y-59677571D02*
X89249999Y-59677571D01*
X89249999Y-59677571D02*
X89335713Y-59706142D01*
X89335713Y-59706142D02*
X89364285Y-59734714D01*
X89935713Y-60277571D02*
X89592856Y-60277571D01*
X89764285Y-60277571D02*
X89764285Y-59677571D01*
X89764285Y-59677571D02*
X89707142Y-59763285D01*
X89707142Y-59763285D02*
X89649999Y-59820428D01*
X89649999Y-59820428D02*
X89592856Y-59849000D01*
X90135714Y-59677571D02*
X90535714Y-59677571D01*
X90535714Y-59677571D02*
X90278571Y-60277571D01*
%TO.C,J3*%
X116699999Y-81577571D02*
X116699999Y-82006142D01*
X116699999Y-82006142D02*
X116671428Y-82091857D01*
X116671428Y-82091857D02*
X116614285Y-82149000D01*
X116614285Y-82149000D02*
X116528571Y-82177571D01*
X116528571Y-82177571D02*
X116471428Y-82177571D01*
X116928571Y-81577571D02*
X117299999Y-81577571D01*
X117299999Y-81577571D02*
X117099999Y-81806142D01*
X117099999Y-81806142D02*
X117185714Y-81806142D01*
X117185714Y-81806142D02*
X117242857Y-81834714D01*
X117242857Y-81834714D02*
X117271428Y-81863285D01*
X117271428Y-81863285D02*
X117299999Y-81920428D01*
X117299999Y-81920428D02*
X117299999Y-82063285D01*
X117299999Y-82063285D02*
X117271428Y-82120428D01*
X117271428Y-82120428D02*
X117242857Y-82149000D01*
X117242857Y-82149000D02*
X117185714Y-82177571D01*
X117185714Y-82177571D02*
X117014285Y-82177571D01*
X117014285Y-82177571D02*
X116957142Y-82149000D01*
X116957142Y-82149000D02*
X116928571Y-82120428D01*
%TO.C,C1*%
X124000000Y-98020428D02*
X123971428Y-98049000D01*
X123971428Y-98049000D02*
X123885714Y-98077571D01*
X123885714Y-98077571D02*
X123828571Y-98077571D01*
X123828571Y-98077571D02*
X123742857Y-98049000D01*
X123742857Y-98049000D02*
X123685714Y-97991857D01*
X123685714Y-97991857D02*
X123657143Y-97934714D01*
X123657143Y-97934714D02*
X123628571Y-97820428D01*
X123628571Y-97820428D02*
X123628571Y-97734714D01*
X123628571Y-97734714D02*
X123657143Y-97620428D01*
X123657143Y-97620428D02*
X123685714Y-97563285D01*
X123685714Y-97563285D02*
X123742857Y-97506142D01*
X123742857Y-97506142D02*
X123828571Y-97477571D01*
X123828571Y-97477571D02*
X123885714Y-97477571D01*
X123885714Y-97477571D02*
X123971428Y-97506142D01*
X123971428Y-97506142D02*
X124000000Y-97534714D01*
X124571428Y-98077571D02*
X124228571Y-98077571D01*
X124400000Y-98077571D02*
X124400000Y-97477571D01*
X124400000Y-97477571D02*
X124342857Y-97563285D01*
X124342857Y-97563285D02*
X124285714Y-97620428D01*
X124285714Y-97620428D02*
X124228571Y-97649000D01*
%TO.C,J6*%
X87299999Y-60927571D02*
X87299999Y-61356142D01*
X87299999Y-61356142D02*
X87271428Y-61441857D01*
X87271428Y-61441857D02*
X87214285Y-61499000D01*
X87214285Y-61499000D02*
X87128571Y-61527571D01*
X87128571Y-61527571D02*
X87071428Y-61527571D01*
X87842857Y-60927571D02*
X87728571Y-60927571D01*
X87728571Y-60927571D02*
X87671428Y-60956142D01*
X87671428Y-60956142D02*
X87642857Y-60984714D01*
X87642857Y-60984714D02*
X87585714Y-61070428D01*
X87585714Y-61070428D02*
X87557142Y-61184714D01*
X87557142Y-61184714D02*
X87557142Y-61413285D01*
X87557142Y-61413285D02*
X87585714Y-61470428D01*
X87585714Y-61470428D02*
X87614285Y-61499000D01*
X87614285Y-61499000D02*
X87671428Y-61527571D01*
X87671428Y-61527571D02*
X87785714Y-61527571D01*
X87785714Y-61527571D02*
X87842857Y-61499000D01*
X87842857Y-61499000D02*
X87871428Y-61470428D01*
X87871428Y-61470428D02*
X87899999Y-61413285D01*
X87899999Y-61413285D02*
X87899999Y-61270428D01*
X87899999Y-61270428D02*
X87871428Y-61213285D01*
X87871428Y-61213285D02*
X87842857Y-61184714D01*
X87842857Y-61184714D02*
X87785714Y-61156142D01*
X87785714Y-61156142D02*
X87671428Y-61156142D01*
X87671428Y-61156142D02*
X87614285Y-61184714D01*
X87614285Y-61184714D02*
X87585714Y-61213285D01*
X87585714Y-61213285D02*
X87557142Y-61270428D01*
%TO.C,C15*%
X108564285Y-61540428D02*
X108535713Y-61569000D01*
X108535713Y-61569000D02*
X108449999Y-61597571D01*
X108449999Y-61597571D02*
X108392856Y-61597571D01*
X108392856Y-61597571D02*
X108307142Y-61569000D01*
X108307142Y-61569000D02*
X108249999Y-61511857D01*
X108249999Y-61511857D02*
X108221428Y-61454714D01*
X108221428Y-61454714D02*
X108192856Y-61340428D01*
X108192856Y-61340428D02*
X108192856Y-61254714D01*
X108192856Y-61254714D02*
X108221428Y-61140428D01*
X108221428Y-61140428D02*
X108249999Y-61083285D01*
X108249999Y-61083285D02*
X108307142Y-61026142D01*
X108307142Y-61026142D02*
X108392856Y-60997571D01*
X108392856Y-60997571D02*
X108449999Y-60997571D01*
X108449999Y-60997571D02*
X108535713Y-61026142D01*
X108535713Y-61026142D02*
X108564285Y-61054714D01*
X109135713Y-61597571D02*
X108792856Y-61597571D01*
X108964285Y-61597571D02*
X108964285Y-60997571D01*
X108964285Y-60997571D02*
X108907142Y-61083285D01*
X108907142Y-61083285D02*
X108849999Y-61140428D01*
X108849999Y-61140428D02*
X108792856Y-61169000D01*
X109678571Y-60997571D02*
X109392857Y-60997571D01*
X109392857Y-60997571D02*
X109364285Y-61283285D01*
X109364285Y-61283285D02*
X109392857Y-61254714D01*
X109392857Y-61254714D02*
X109450000Y-61226142D01*
X109450000Y-61226142D02*
X109592857Y-61226142D01*
X109592857Y-61226142D02*
X109650000Y-61254714D01*
X109650000Y-61254714D02*
X109678571Y-61283285D01*
X109678571Y-61283285D02*
X109707142Y-61340428D01*
X109707142Y-61340428D02*
X109707142Y-61483285D01*
X109707142Y-61483285D02*
X109678571Y-61540428D01*
X109678571Y-61540428D02*
X109650000Y-61569000D01*
X109650000Y-61569000D02*
X109592857Y-61597571D01*
X109592857Y-61597571D02*
X109450000Y-61597571D01*
X109450000Y-61597571D02*
X109392857Y-61569000D01*
X109392857Y-61569000D02*
X109364285Y-61540428D01*
%TO.C,J1*%
X116899999Y-92477571D02*
X116899999Y-92906142D01*
X116899999Y-92906142D02*
X116871428Y-92991857D01*
X116871428Y-92991857D02*
X116814285Y-93049000D01*
X116814285Y-93049000D02*
X116728571Y-93077571D01*
X116728571Y-93077571D02*
X116671428Y-93077571D01*
X117499999Y-93077571D02*
X117157142Y-93077571D01*
X117328571Y-93077571D02*
X117328571Y-92477571D01*
X117328571Y-92477571D02*
X117271428Y-92563285D01*
X117271428Y-92563285D02*
X117214285Y-92620428D01*
X117214285Y-92620428D02*
X117157142Y-92649000D01*
%TO.C,J5*%
X86749999Y-76867571D02*
X86749999Y-77296142D01*
X86749999Y-77296142D02*
X86721428Y-77381857D01*
X86721428Y-77381857D02*
X86664285Y-77439000D01*
X86664285Y-77439000D02*
X86578571Y-77467571D01*
X86578571Y-77467571D02*
X86521428Y-77467571D01*
X87321428Y-76867571D02*
X87035714Y-76867571D01*
X87035714Y-76867571D02*
X87007142Y-77153285D01*
X87007142Y-77153285D02*
X87035714Y-77124714D01*
X87035714Y-77124714D02*
X87092857Y-77096142D01*
X87092857Y-77096142D02*
X87235714Y-77096142D01*
X87235714Y-77096142D02*
X87292857Y-77124714D01*
X87292857Y-77124714D02*
X87321428Y-77153285D01*
X87321428Y-77153285D02*
X87349999Y-77210428D01*
X87349999Y-77210428D02*
X87349999Y-77353285D01*
X87349999Y-77353285D02*
X87321428Y-77410428D01*
X87321428Y-77410428D02*
X87292857Y-77439000D01*
X87292857Y-77439000D02*
X87235714Y-77467571D01*
X87235714Y-77467571D02*
X87092857Y-77467571D01*
X87092857Y-77467571D02*
X87035714Y-77439000D01*
X87035714Y-77439000D02*
X87007142Y-77410428D01*
%TO.C,C2*%
X123925000Y-92320428D02*
X123896428Y-92349000D01*
X123896428Y-92349000D02*
X123810714Y-92377571D01*
X123810714Y-92377571D02*
X123753571Y-92377571D01*
X123753571Y-92377571D02*
X123667857Y-92349000D01*
X123667857Y-92349000D02*
X123610714Y-92291857D01*
X123610714Y-92291857D02*
X123582143Y-92234714D01*
X123582143Y-92234714D02*
X123553571Y-92120428D01*
X123553571Y-92120428D02*
X123553571Y-92034714D01*
X123553571Y-92034714D02*
X123582143Y-91920428D01*
X123582143Y-91920428D02*
X123610714Y-91863285D01*
X123610714Y-91863285D02*
X123667857Y-91806142D01*
X123667857Y-91806142D02*
X123753571Y-91777571D01*
X123753571Y-91777571D02*
X123810714Y-91777571D01*
X123810714Y-91777571D02*
X123896428Y-91806142D01*
X123896428Y-91806142D02*
X123925000Y-91834714D01*
X124153571Y-91834714D02*
X124182143Y-91806142D01*
X124182143Y-91806142D02*
X124239286Y-91777571D01*
X124239286Y-91777571D02*
X124382143Y-91777571D01*
X124382143Y-91777571D02*
X124439286Y-91806142D01*
X124439286Y-91806142D02*
X124467857Y-91834714D01*
X124467857Y-91834714D02*
X124496428Y-91891857D01*
X124496428Y-91891857D02*
X124496428Y-91949000D01*
X124496428Y-91949000D02*
X124467857Y-92034714D01*
X124467857Y-92034714D02*
X124125000Y-92377571D01*
X124125000Y-92377571D02*
X124496428Y-92377571D01*
%TO.C,C12*%
X90114285Y-94650428D02*
X90085713Y-94679000D01*
X90085713Y-94679000D02*
X89999999Y-94707571D01*
X89999999Y-94707571D02*
X89942856Y-94707571D01*
X89942856Y-94707571D02*
X89857142Y-94679000D01*
X89857142Y-94679000D02*
X89799999Y-94621857D01*
X89799999Y-94621857D02*
X89771428Y-94564714D01*
X89771428Y-94564714D02*
X89742856Y-94450428D01*
X89742856Y-94450428D02*
X89742856Y-94364714D01*
X89742856Y-94364714D02*
X89771428Y-94250428D01*
X89771428Y-94250428D02*
X89799999Y-94193285D01*
X89799999Y-94193285D02*
X89857142Y-94136142D01*
X89857142Y-94136142D02*
X89942856Y-94107571D01*
X89942856Y-94107571D02*
X89999999Y-94107571D01*
X89999999Y-94107571D02*
X90085713Y-94136142D01*
X90085713Y-94136142D02*
X90114285Y-94164714D01*
X90685713Y-94707571D02*
X90342856Y-94707571D01*
X90514285Y-94707571D02*
X90514285Y-94107571D01*
X90514285Y-94107571D02*
X90457142Y-94193285D01*
X90457142Y-94193285D02*
X90399999Y-94250428D01*
X90399999Y-94250428D02*
X90342856Y-94279000D01*
X90914285Y-94164714D02*
X90942857Y-94136142D01*
X90942857Y-94136142D02*
X91000000Y-94107571D01*
X91000000Y-94107571D02*
X91142857Y-94107571D01*
X91142857Y-94107571D02*
X91200000Y-94136142D01*
X91200000Y-94136142D02*
X91228571Y-94164714D01*
X91228571Y-94164714D02*
X91257142Y-94221857D01*
X91257142Y-94221857D02*
X91257142Y-94279000D01*
X91257142Y-94279000D02*
X91228571Y-94364714D01*
X91228571Y-94364714D02*
X90885714Y-94707571D01*
X90885714Y-94707571D02*
X91257142Y-94707571D01*
D12*
%TO.C,J9*%
X124785000Y-60635000D02*
X124785000Y-57975000D01*
X121295000Y-61032071D02*
X121295000Y-60635000D01*
X118535000Y-57975000D02*
X118535000Y-51975000D01*
X119645000Y-60635000D02*
X119645000Y-57975000D01*
X118755000Y-51975000D02*
X118755000Y-57975000D01*
X117105000Y-63345000D02*
X117105000Y-62075000D01*
X123835000Y-51975000D02*
X123835000Y-57975000D01*
X118055000Y-57975000D02*
X118055000Y-51975000D01*
X122185000Y-60635000D02*
X122185000Y-57975000D01*
X118295000Y-57975000D02*
X118295000Y-51975000D01*
X117045000Y-60635000D02*
X124785000Y-60635000D01*
X123835000Y-61032071D02*
X123835000Y-60635000D01*
X118375000Y-63345000D02*
X117105000Y-63345000D01*
X118655000Y-57975000D02*
X118655000Y-51975000D01*
X120535000Y-61032071D02*
X120535000Y-60635000D01*
X123075000Y-51975000D02*
X123835000Y-51975000D01*
X117045000Y-57975000D02*
X117045000Y-60635000D01*
X117995000Y-51975000D02*
X118755000Y-51975000D01*
X123075000Y-57975000D02*
X123075000Y-51975000D01*
X120535000Y-57975000D02*
X120535000Y-51975000D01*
X118755000Y-60965000D02*
X118755000Y-60635000D01*
X120535000Y-51975000D02*
X121295000Y-51975000D01*
X124785000Y-57975000D02*
X117045000Y-57975000D01*
X117995000Y-57975000D02*
X117995000Y-51975000D01*
X118415000Y-57975000D02*
X118415000Y-51975000D01*
X123075000Y-61032071D02*
X123075000Y-60635000D01*
X121295000Y-51975000D02*
X121295000Y-57975000D01*
X117995000Y-60965000D02*
X117995000Y-60635000D01*
X118175000Y-57975000D02*
X118175000Y-51975000D01*
%TO.C,J8*%
X119595000Y-64470000D02*
X122195000Y-64470000D01*
X116995000Y-67130000D02*
X116995000Y-65800000D01*
X119595000Y-67130000D02*
X119595000Y-64470000D01*
X119595000Y-67130000D02*
X122195000Y-67130000D01*
X122195000Y-67130000D02*
X122195000Y-64470000D01*
X118325000Y-67130000D02*
X116995000Y-67130000D01*
%TO.C,C9*%
X90440580Y-84240000D02*
X90159420Y-84240000D01*
X90440580Y-85260000D02*
X90159420Y-85260000D01*
%TO.C,C4*%
X121759420Y-81110000D02*
X122040580Y-81110000D01*
X121759420Y-80090000D02*
X122040580Y-80090000D01*
%TO.C,U1*%
X116279759Y-104565000D02*
X93529759Y-104565000D01*
X116279759Y-51415000D02*
X116279759Y-104565000D01*
X113794759Y-103390000D02*
X111254759Y-103390000D01*
X113794759Y-52590000D02*
X113794759Y-103390000D01*
X111254759Y-103390000D02*
X111254759Y-52590000D01*
X111254759Y-52590000D02*
X113794759Y-52590000D01*
X98614759Y-103450000D02*
X95954759Y-103450000D01*
X98614759Y-55130000D02*
X98614759Y-103450000D01*
X95954759Y-103450000D02*
X95954759Y-55130000D01*
X95954759Y-55130000D02*
X98614759Y-55130000D01*
X95954759Y-53860000D02*
X95954759Y-52530000D01*
X95954759Y-52530000D02*
X97284759Y-52530000D01*
X93529759Y-104565000D02*
X93529759Y-51415000D01*
X93529759Y-51415000D02*
X116279759Y-51415000D01*
%TO.C,C8*%
X90640580Y-81390000D02*
X90359420Y-81390000D01*
X90640580Y-82410000D02*
X90359420Y-82410000D01*
%TO.C,C19*%
X90665580Y-66740000D02*
X90384420Y-66740000D01*
X90665580Y-67760000D02*
X90384420Y-67760000D01*
%TO.C,C22*%
X108659420Y-81710000D02*
X108940580Y-81710000D01*
X108659420Y-80690000D02*
X108940580Y-80690000D01*
%TO.C,C6*%
X108809420Y-69510000D02*
X109090580Y-69510000D01*
X108809420Y-68490000D02*
X109090580Y-68490000D01*
%TO.C,C21*%
X108809420Y-85260000D02*
X109090580Y-85260000D01*
X108809420Y-84240000D02*
X109090580Y-84240000D01*
%TO.C,C16*%
X90665580Y-58240000D02*
X90384420Y-58240000D01*
X90665580Y-59260000D02*
X90384420Y-59260000D01*
%TO.C,C13*%
X90640580Y-94990000D02*
X90359420Y-94990000D01*
X90640580Y-96010000D02*
X90359420Y-96010000D01*
%TO.C,C23*%
X92720000Y-100750000D02*
G75*
G03*
X92720000Y-100750000I-3270000J0D01*
G01*
X89048000Y-97509000D02*
X89852000Y-97509000D01*
X88817000Y-97549000D02*
X90083000Y-97549000D01*
X88648000Y-97589000D02*
X90252000Y-97589000D01*
X88510000Y-97629000D02*
X90390000Y-97629000D01*
X88391000Y-97669000D02*
X90509000Y-97669000D01*
X88285000Y-97709000D02*
X90615000Y-97709000D01*
X88188000Y-97749000D02*
X90712000Y-97749000D01*
X88100000Y-97789000D02*
X90800000Y-97789000D01*
X88018000Y-97829000D02*
X90882000Y-97829000D01*
X87941000Y-97869000D02*
X90959000Y-97869000D01*
X87869000Y-97909000D02*
X91031000Y-97909000D01*
X87800000Y-97949000D02*
X91100000Y-97949000D01*
X87736000Y-97989000D02*
X91164000Y-97989000D01*
X87674000Y-98029000D02*
X91226000Y-98029000D01*
X87616000Y-98069000D02*
X91284000Y-98069000D01*
X87560000Y-98109000D02*
X91340000Y-98109000D01*
X87506000Y-98149000D02*
X91394000Y-98149000D01*
X87455000Y-98189000D02*
X91445000Y-98189000D01*
X87406000Y-98229000D02*
X91494000Y-98229000D01*
X87358000Y-98269000D02*
X91542000Y-98269000D01*
X87313000Y-98309000D02*
X91587000Y-98309000D01*
X87268000Y-98349000D02*
X91632000Y-98349000D01*
X87226000Y-98389000D02*
X91674000Y-98389000D01*
X87185000Y-98429000D02*
X91715000Y-98429000D01*
X90490000Y-98469000D02*
X91755000Y-98469000D01*
X87145000Y-98469000D02*
X88410000Y-98469000D01*
X90490000Y-98509000D02*
X91793000Y-98509000D01*
X87107000Y-98509000D02*
X88410000Y-98509000D01*
X90490000Y-98549000D02*
X91830000Y-98549000D01*
X87070000Y-98549000D02*
X88410000Y-98549000D01*
X90490000Y-98589000D02*
X91866000Y-98589000D01*
X87034000Y-98589000D02*
X88410000Y-98589000D01*
X90490000Y-98629000D02*
X91900000Y-98629000D01*
X87000000Y-98629000D02*
X88410000Y-98629000D01*
X90490000Y-98669000D02*
X91934000Y-98669000D01*
X86966000Y-98669000D02*
X88410000Y-98669000D01*
X90490000Y-98709000D02*
X91966000Y-98709000D01*
X86934000Y-98709000D02*
X88410000Y-98709000D01*
X90490000Y-98749000D02*
X91998000Y-98749000D01*
X86902000Y-98749000D02*
X88410000Y-98749000D01*
X90490000Y-98789000D02*
X92028000Y-98789000D01*
X86872000Y-98789000D02*
X88410000Y-98789000D01*
X90490000Y-98829000D02*
X92057000Y-98829000D01*
X86843000Y-98829000D02*
X88410000Y-98829000D01*
X90490000Y-98869000D02*
X92086000Y-98869000D01*
X86814000Y-98869000D02*
X88410000Y-98869000D01*
X90490000Y-98909000D02*
X92114000Y-98909000D01*
X86786000Y-98909000D02*
X88410000Y-98909000D01*
X90490000Y-98949000D02*
X92140000Y-98949000D01*
X86760000Y-98949000D02*
X88410000Y-98949000D01*
X90490000Y-98989000D02*
X92166000Y-98989000D01*
X86734000Y-98989000D02*
X88410000Y-98989000D01*
X90490000Y-99029000D02*
X92192000Y-99029000D01*
X86708000Y-99029000D02*
X88410000Y-99029000D01*
X90490000Y-99069000D02*
X92216000Y-99069000D01*
X86684000Y-99069000D02*
X88410000Y-99069000D01*
X90490000Y-99109000D02*
X92240000Y-99109000D01*
X86660000Y-99109000D02*
X88410000Y-99109000D01*
X90490000Y-99149000D02*
X92262000Y-99149000D01*
X86638000Y-99149000D02*
X88410000Y-99149000D01*
X90490000Y-99189000D02*
X92284000Y-99189000D01*
X86616000Y-99189000D02*
X88410000Y-99189000D01*
X90490000Y-99229000D02*
X92306000Y-99229000D01*
X86594000Y-99229000D02*
X88410000Y-99229000D01*
X90490000Y-99269000D02*
X92326000Y-99269000D01*
X86574000Y-99269000D02*
X88410000Y-99269000D01*
X90490000Y-99309000D02*
X92346000Y-99309000D01*
X86554000Y-99309000D02*
X88410000Y-99309000D01*
X90490000Y-99349000D02*
X92366000Y-99349000D01*
X86534000Y-99349000D02*
X88410000Y-99349000D01*
X90490000Y-99389000D02*
X92384000Y-99389000D01*
X86516000Y-99389000D02*
X88410000Y-99389000D01*
X90490000Y-99429000D02*
X92402000Y-99429000D01*
X86498000Y-99429000D02*
X88410000Y-99429000D01*
X90490000Y-99469000D02*
X92420000Y-99469000D01*
X86480000Y-99469000D02*
X88410000Y-99469000D01*
X90490000Y-99509000D02*
X92436000Y-99509000D01*
X86464000Y-99509000D02*
X88410000Y-99509000D01*
X90490000Y-99549000D02*
X92452000Y-99549000D01*
X86448000Y-99549000D02*
X88410000Y-99549000D01*
X90490000Y-99589000D02*
X92468000Y-99589000D01*
X86432000Y-99589000D02*
X88410000Y-99589000D01*
X90490000Y-99629000D02*
X92483000Y-99629000D01*
X86417000Y-99629000D02*
X88410000Y-99629000D01*
X90490000Y-99669000D02*
X92497000Y-99669000D01*
X86403000Y-99669000D02*
X88410000Y-99669000D01*
X90490000Y-99709000D02*
X92511000Y-99709000D01*
X86389000Y-99709000D02*
X88410000Y-99709000D01*
X90490000Y-99749000D02*
X92524000Y-99749000D01*
X86376000Y-99749000D02*
X88410000Y-99749000D01*
X90490000Y-99789000D02*
X92536000Y-99789000D01*
X86364000Y-99789000D02*
X88410000Y-99789000D01*
X90490000Y-99829000D02*
X92548000Y-99829000D01*
X86352000Y-99829000D02*
X88410000Y-99829000D01*
X90490000Y-99869000D02*
X92560000Y-99869000D01*
X86340000Y-99869000D02*
X88410000Y-99869000D01*
X90490000Y-99909000D02*
X92571000Y-99909000D01*
X86329000Y-99909000D02*
X88410000Y-99909000D01*
X90490000Y-99949000D02*
X92581000Y-99949000D01*
X86319000Y-99949000D02*
X88410000Y-99949000D01*
X90490000Y-99989000D02*
X92591000Y-99989000D01*
X86309000Y-99989000D02*
X88410000Y-99989000D01*
X90490000Y-100029000D02*
X92600000Y-100029000D01*
X86300000Y-100029000D02*
X88410000Y-100029000D01*
X90490000Y-100070000D02*
X92609000Y-100070000D01*
X86291000Y-100070000D02*
X88410000Y-100070000D01*
X90490000Y-100110000D02*
X92617000Y-100110000D01*
X86283000Y-100110000D02*
X88410000Y-100110000D01*
X90490000Y-100150000D02*
X92625000Y-100150000D01*
X86275000Y-100150000D02*
X88410000Y-100150000D01*
X90490000Y-100190000D02*
X92632000Y-100190000D01*
X86268000Y-100190000D02*
X88410000Y-100190000D01*
X90490000Y-100230000D02*
X92639000Y-100230000D01*
X86261000Y-100230000D02*
X88410000Y-100230000D01*
X90490000Y-100270000D02*
X92645000Y-100270000D01*
X86255000Y-100270000D02*
X88410000Y-100270000D01*
X90490000Y-100310000D02*
X92651000Y-100310000D01*
X86249000Y-100310000D02*
X88410000Y-100310000D01*
X90490000Y-100350000D02*
X92656000Y-100350000D01*
X86244000Y-100350000D02*
X88410000Y-100350000D01*
X90490000Y-100390000D02*
X92661000Y-100390000D01*
X86239000Y-100390000D02*
X88410000Y-100390000D01*
X90490000Y-100430000D02*
X92665000Y-100430000D01*
X86235000Y-100430000D02*
X88410000Y-100430000D01*
X90490000Y-100470000D02*
X92668000Y-100470000D01*
X86232000Y-100470000D02*
X88410000Y-100470000D01*
X90490000Y-100510000D02*
X92672000Y-100510000D01*
X86228000Y-100510000D02*
X88410000Y-100510000D01*
X86226000Y-100550000D02*
X92674000Y-100550000D01*
X86223000Y-100590000D02*
X92677000Y-100590000D01*
X86222000Y-100630000D02*
X92678000Y-100630000D01*
X86220000Y-100670000D02*
X92680000Y-100670000D01*
X86220000Y-100710000D02*
X92680000Y-100710000D01*
X86220000Y-100750000D02*
X92680000Y-100750000D01*
X87296000Y-103935241D02*
X87926000Y-103935241D01*
X87611000Y-104250241D02*
X87611000Y-103620241D01*
%TO.C,C20*%
X108809420Y-87760000D02*
X109090580Y-87760000D01*
X108809420Y-86740000D02*
X109090580Y-86740000D01*
%TO.C,C14*%
X108834420Y-67010000D02*
X109115580Y-67010000D01*
X108834420Y-65990000D02*
X109115580Y-65990000D01*
%TO.C,J7*%
X92560000Y-72000000D02*
X92560000Y-76060000D01*
X90440000Y-76060000D02*
X92560000Y-76060000D01*
X90440000Y-72000000D02*
X92560000Y-72000000D01*
X90440000Y-72000000D02*
X90440000Y-76060000D01*
X90440000Y-71000000D02*
X90440000Y-69940000D01*
X90440000Y-69940000D02*
X91500000Y-69940000D01*
%TO.C,C10*%
X90540580Y-87290000D02*
X90259420Y-87290000D01*
X90540580Y-88310000D02*
X90259420Y-88310000D01*
%TO.C,J2*%
X119520000Y-88170000D02*
X124660000Y-88170000D01*
X124660000Y-90830000D02*
X124660000Y-88170000D01*
X119520000Y-90830000D02*
X119520000Y-88170000D01*
X119520000Y-90830000D02*
X124660000Y-90830000D01*
X118250000Y-90830000D02*
X116920000Y-90830000D01*
X116920000Y-90830000D02*
X116920000Y-89500000D01*
%TO.C,C7*%
X90440580Y-77990000D02*
X90159420Y-77990000D01*
X90440580Y-79010000D02*
X90159420Y-79010000D01*
%TO.C,C18*%
X90665580Y-63740000D02*
X90384420Y-63740000D01*
X90665580Y-64760000D02*
X90384420Y-64760000D01*
%TO.C,C3*%
X121609420Y-87110000D02*
X121890580Y-87110000D01*
X121609420Y-86090000D02*
X121890580Y-86090000D01*
%TO.C,C11*%
X90540580Y-89740000D02*
X90259420Y-89740000D01*
X90540580Y-90760000D02*
X90259420Y-90760000D01*
%TO.C,J4*%
X119570000Y-76470000D02*
X124710000Y-76470000D01*
X124710000Y-79130000D02*
X124710000Y-76470000D01*
X119570000Y-79130000D02*
X119570000Y-76470000D01*
X119570000Y-79130000D02*
X124710000Y-79130000D01*
X118300000Y-79130000D02*
X116970000Y-79130000D01*
X116970000Y-79130000D02*
X116970000Y-77800000D01*
%TO.C,C5*%
X108809420Y-73510000D02*
X109090580Y-73510000D01*
X108809420Y-72490000D02*
X109090580Y-72490000D01*
%TO.C,C17*%
X90665580Y-60740000D02*
X90384420Y-60740000D01*
X90665580Y-61760000D02*
X90384420Y-61760000D01*
%TO.C,J3*%
X119520000Y-82670000D02*
X124660000Y-82670000D01*
X124660000Y-85330000D02*
X124660000Y-82670000D01*
X119520000Y-85330000D02*
X119520000Y-82670000D01*
X119520000Y-85330000D02*
X124660000Y-85330000D01*
X118250000Y-85330000D02*
X116920000Y-85330000D01*
X116920000Y-85330000D02*
X116920000Y-84000000D01*
%TO.C,C1*%
X121859420Y-98310000D02*
X122140580Y-98310000D01*
X121859420Y-97290000D02*
X122140580Y-97290000D01*
%TO.C,J6*%
X88060000Y-64000000D02*
X88060000Y-76060000D01*
X88060000Y-61940000D02*
X88060000Y-63000000D01*
X87000000Y-61940000D02*
X88060000Y-61940000D01*
X85940000Y-76060000D02*
X88060000Y-76060000D01*
X85940000Y-64000000D02*
X88060000Y-64000000D01*
X85940000Y-64000000D02*
X85940000Y-76060000D01*
%TO.C,C15*%
X108809420Y-63260000D02*
X109090580Y-63260000D01*
X108809420Y-62240000D02*
X109090580Y-62240000D01*
%TO.C,J1*%
X119520000Y-93670000D02*
X124660000Y-93670000D01*
X124660000Y-96330000D02*
X124660000Y-93670000D01*
X119520000Y-96330000D02*
X119520000Y-93670000D01*
X119520000Y-96330000D02*
X124660000Y-96330000D01*
X118250000Y-96330000D02*
X116920000Y-96330000D01*
X116920000Y-96330000D02*
X116920000Y-95000000D01*
%TO.C,J5*%
X88010000Y-80250000D02*
X88010000Y-96310000D01*
X85890000Y-96310000D02*
X88010000Y-96310000D01*
X85890000Y-80250000D02*
X88010000Y-80250000D01*
X85890000Y-80250000D02*
X85890000Y-96310000D01*
X85890000Y-79250000D02*
X85890000Y-78190000D01*
X85890000Y-78190000D02*
X86950000Y-78190000D01*
%TO.C,C2*%
X121859420Y-92610000D02*
X122140580Y-92610000D01*
X121859420Y-91590000D02*
X122140580Y-91590000D01*
%TO.C,C12*%
X90640580Y-92490000D02*
X90359420Y-92490000D01*
X90640580Y-93510000D02*
X90359420Y-93510000D01*
%TD*%
M02*
