%TF.GenerationSoftware,KiCad,Pcbnew,7.0.2*%
%TF.CreationDate,2023-07-25T22:56:35+09:00*%
%TF.ProjectId,bluepill_yoke,626c7565-7069-46c6-9c5f-796f6b652e6b,rev?*%
%TF.SameCoordinates,Original*%
%TF.FileFunction,Paste,Top*%
%TF.FilePolarity,Positive*%
%FSLAX46Y46*%
G04 Gerber Fmt 4.6, Leading zero omitted, Abs format (unit mm)*
G04 Created by KiCad (PCBNEW 7.0.2) date 2023-07-25 22:56:35*
%MOMM*%
%LPD*%
G01*
G04 APERTURE LIST*
G04 Aperture macros list*
%AMRoundRect*
0 Rectangle with rounded corners*
0 $1 Rounding radius*
0 $2 $3 $4 $5 $6 $7 $8 $9 X,Y pos of 4 corners*
0 Add a 4 corners polygon primitive as box body*
4,1,4,$2,$3,$4,$5,$6,$7,$8,$9,$2,$3,0*
0 Add four circle primitives for the rounded corners*
1,1,$1+$1,$2,$3*
1,1,$1+$1,$4,$5*
1,1,$1+$1,$6,$7*
1,1,$1+$1,$8,$9*
0 Add four rect primitives between the rounded corners*
20,1,$1+$1,$2,$3,$4,$5,0*
20,1,$1+$1,$4,$5,$6,$7,0*
20,1,$1+$1,$6,$7,$8,$9,0*
20,1,$1+$1,$8,$9,$2,$3,0*%
G04 Aperture macros list end*
%ADD10RoundRect,0.225000X0.225000X0.250000X-0.225000X0.250000X-0.225000X-0.250000X0.225000X-0.250000X0*%
%ADD11RoundRect,0.225000X-0.225000X-0.250000X0.225000X-0.250000X0.225000X0.250000X-0.225000X0.250000X0*%
G04 APERTURE END LIST*
D10*
%TO.C,C9*%
X89525000Y-84750000D03*
X91075000Y-84750000D03*
%TD*%
D11*
%TO.C,C4*%
X122675000Y-80600000D03*
X121125000Y-80600000D03*
%TD*%
D10*
%TO.C,C8*%
X89725000Y-81900000D03*
X91275000Y-81900000D03*
%TD*%
%TO.C,C19*%
X89750000Y-67250000D03*
X91300000Y-67250000D03*
%TD*%
D11*
%TO.C,C22*%
X109575000Y-81200000D03*
X108025000Y-81200000D03*
%TD*%
%TO.C,C6*%
X109725000Y-69000000D03*
X108175000Y-69000000D03*
%TD*%
%TO.C,C21*%
X109725000Y-84750000D03*
X108175000Y-84750000D03*
%TD*%
D10*
%TO.C,C16*%
X89750000Y-58750000D03*
X91300000Y-58750000D03*
%TD*%
%TO.C,C13*%
X89725000Y-95500000D03*
X91275000Y-95500000D03*
%TD*%
D11*
%TO.C,C20*%
X109725000Y-87250000D03*
X108175000Y-87250000D03*
%TD*%
%TO.C,C14*%
X109750000Y-66500000D03*
X108200000Y-66500000D03*
%TD*%
D10*
%TO.C,C10*%
X89625000Y-87800000D03*
X91175000Y-87800000D03*
%TD*%
%TO.C,C7*%
X89525000Y-78500000D03*
X91075000Y-78500000D03*
%TD*%
%TO.C,C18*%
X89750000Y-64250000D03*
X91300000Y-64250000D03*
%TD*%
D11*
%TO.C,C3*%
X122525000Y-86600000D03*
X120975000Y-86600000D03*
%TD*%
D10*
%TO.C,C11*%
X89625000Y-90250000D03*
X91175000Y-90250000D03*
%TD*%
D11*
%TO.C,C5*%
X109725000Y-73000000D03*
X108175000Y-73000000D03*
%TD*%
D10*
%TO.C,C17*%
X89750000Y-61250000D03*
X91300000Y-61250000D03*
%TD*%
D11*
%TO.C,C1*%
X122775000Y-97800000D03*
X121225000Y-97800000D03*
%TD*%
%TO.C,C15*%
X109725000Y-62750000D03*
X108175000Y-62750000D03*
%TD*%
%TO.C,C2*%
X122775000Y-92100000D03*
X121225000Y-92100000D03*
%TD*%
D10*
%TO.C,C12*%
X89725000Y-93000000D03*
X91275000Y-93000000D03*
%TD*%
M02*
